<?xml version="1.0" standalone="no"?>
<!DOCTYPE svg PUBLIC "-//W3C//DTD SVG 20010904//EN"
 "http://www.w3.org/TR/2001/REC-SVG-20010904/DTD/svg10.dtd">
<svg version="1.0" xmlns="http://www.w3.org/2000/svg"
 width="500.000000pt" height="500.000000pt" viewBox="0 0 500.000000 500.000000"
 preserveAspectRatio="xMidYMid meet">
<metadata>
Created by potrace 1.14, written by Peter Selinger 2001-2017
</metadata>
<g transform="translate(0.000000,500.000000) scale(0.100000,-0.100000)"
fill="#000000" stroke="none">
<path d="M1718 4591 c-78 -25 -123 -80 -140 -169 -14 -78 -22 -120 -48 -242
-12 -58 -26 -123 -30 -145 -4 -22 -18 -87 -30 -145 -12 -58 -24 -118 -26 -135
-2 -16 -7 -39 -11 -50 -3 -11 -7 -30 -9 -42 -1 -12 -6 -36 -10 -55 -4 -18 -8
-40 -10 -48 -1 -8 -16 -80 -33 -160 -31 -141 -115 -551 -246 -1200 -35 -173
-73 -362 -85 -419 -24 -116 -21 -156 16 -213 40 -62 41 -63 441 -143 199 -41
203 -41 203 -17 0 16 -35 25 -267 72 -148 29 -280 59 -295 66 -30 16 -65 68
-74 111 -9 44 26 117 68 143 50 30 70 28 423 -44 93 -20 170 -34 171 -33 1 1
5 38 8 82 4 44 13 148 21 230 8 83 21 229 30 325 9 96 22 245 30 330 20 219
42 456 60 660 9 96 22 243 30 325 8 83 17 188 20 235 8 107 19 143 58 187 57
64 106 73 304 53 54 -5 177 -16 273 -25 96 -9 245 -22 330 -30 85 -8 236 -22
335 -30 99 -9 260 -24 358 -34 98 -9 180 -14 182 -11 8 12 36 162 32 166 -3 3
-26 9 -53 13 -27 5 -96 19 -154 31 -58 12 -123 26 -145 30 -22 4 -110 22 -195
40 -85 18 -175 36 -200 41 -84 16 -105 20 -120 24 -8 2 -31 7 -50 10 -19 3
-43 8 -53 11 -10 3 -30 7 -45 9 -15 2 -74 14 -132 26 -58 12 -123 25 -145 29
-22 4 -110 22 -195 40 -137 29 -207 43 -275 55 -11 2 -54 11 -95 21 -41 9 -84
18 -95 19 -78 12 -103 13 -127 6z"/>
</g>
</svg>
