<?xml version="1.0" encoding="UTF-8" standalone="no"?>
<svg width="31px" height="30px" viewBox="0 0 31 30" version="1.1" xmlns="http://www.w3.org/2000/svg" xmlns:xlink="http://www.w3.org/1999/xlink">
    <!-- Generator: sketchtool 46.2 (44496) - http://www.bohemiancoding.com/sketch -->
    <title>E54004DB-4887-458C-9C99-617F89B62077</title>
    <desc>Created with sketchtool.</desc>
    <defs></defs>
    <g id="Page-1" stroke="none" stroke-width="1" fill="none" fill-rule="evenodd">
        <g id="Login" transform="translate(-673.000000, -156.000000)" fill="#3A81D5">
            <g id="Group" transform="translate(654.547813, 146.000000)">
                <path d="M38.8401539,39.1529994 L44.311649,39.1529994 C47.0730728,39.1529994 49.311649,36.9144232 49.311649,34.1529994 L49.311649,15.8470006 C49.311649,13.0855768 47.0730728,10.8470006 44.311649,10.8470006 L44.311649,10.8470006 L23.8374766,10.8470006 L23.8374766,10.8470006 C21.0760529,10.8470006 18.8374766,13.0855768 18.8374766,15.8470006 L18.8374766,15.8470006 L18.8374766,34.1529994 C18.8374766,36.9144232 21.0760529,39.1529994 23.8374766,39.1529994 L34.1999247,39.1529994 C34.1560811,39.0404855 34.132022,38.9180777 34.132022,38.7900506 L34.132022,29.0534171 L32.0499255,29.0534171 C31.4976408,29.0534171 31.0499255,28.6057019 31.0499255,28.0534171 L31.0499255,25.3757035 C31.0499255,24.8234187 31.4976408,24.3757035 32.0499255,24.3757035 L34.132022,24.3757035 C34.132022,23.987761 34.132022,22.6032912 34.132022,20.2222942 C34.132022,16.6507986 36.6507413,15.8557837 39.2385501,15.8557837 C40.2990606,15.8557837 41.3595712,15.8557837 42.4200818,15.8557837 C42.9723666,15.8557837 43.4200818,16.3034989 43.4200818,16.8557837 L43.4200818,18.4954839 C43.4200818,19.0477687 42.9723666,19.4954839 42.4200818,19.4954839 C41.8520315,19.4954839 41.2839811,19.4954839 40.7159308,19.4954839 C39.1698129,19.4954839 38.8401539,20.4039513 38.8401539,21.6438639 C38.8401539,22.4704723 38.8401539,23.3810855 38.8401539,24.3757035 L42.3302309,24.3757035 C42.381841,24.3757035 42.4333737,24.3796989 42.4843671,24.3876539 C43.0300518,24.4727809 43.4034075,24.984155 43.3182805,25.5298397 L43.3182805,25.5298397 L42.9174949,28.0989707 C42.8415406,28.5858557 42.4222191,28.9448345 41.9294453,28.9448345 L38.8401539,28.9448345 L38.8401539,39.1529994 Z" id="Combined-Shape-Copy"></path>
            </g>
        </g>
    </g>
</svg>