<?xml version="1.0" encoding="UTF-8" standalone="no"?>
<svg width="28px" height="37px" viewBox="0 0 28 37" version="1.1" xmlns="http://www.w3.org/2000/svg" xmlns:xlink="http://www.w3.org/1999/xlink">
    <!-- Generator: sketchtool 47.1 (45422) - http://www.bohemiancoding.com/sketch -->
    <title>F856F8AA-0A39-40E7-B05A-5ED778EB756B</title>
    <desc>Created with sketchtool.</desc>
    <defs></defs>
    <g id="Page-1" stroke="none" stroke-width="1" fill="none" fill-rule="evenodd">
        <g id="Setting-Copy-2" transform="translate(-147.000000, -129.000000)" stroke="#2E2E2E">
            <g id="Group-6" transform="translate(147.961167, 130.244904)">
                <path d="M0.392343151,29.1406504 L0.392343151,4.00773339 L0.392343151,4.00773339 C0.392343151,1.79859439 2.18320415,0.00773338571 4.39234315,0.00773338571 L26.0685549,0.00773338571 L26.0685549,24.8218071" id="Path-27" fill="#F5F8FA" stroke-linecap="round" stroke-linejoin="round"></path>
                <path d="M26.4516761,25.2558033 L3.91890112,25.2558033 L3.91890112,25.2558033 C1.98722843,25.2558033 0.421298318,26.8217334 0.421298318,28.7534061 C0.421298318,30.6850788 1.98722843,32.2510089 3.91890112,32.2510089 L3.91890112,32.2510089 L26.4516761,32.2510089 C26.080615,31.7517327 25.8610692,31.1331485 25.8610692,30.4632867 L25.8610692,27.0435256 L25.8610692,27.0435256 C25.8610692,26.3736637 26.080615,25.7550795 26.4516761,25.2558033 Z" id="Combined-Shape-Copy" fill="#D5CBEC" stroke-linecap="round" stroke-linejoin="round"></path>
                <path d="M20.352928,28.7534061 L6.45002499,28.7534061" id="Line" stroke-linecap="round" stroke-linejoin="round"></path>
                <polygon id="Rectangle-2" fill="#FFFFFF" stroke-linecap="round" stroke-linejoin="round" points="7.77795869 28.7498333 12.9813943 28.7498333 12.9813943 34.704909 10.4245889 33.1334613 7.77795869 34.704909"></polygon>
                <path d="M8.65071164,8.88823594 L15.0249202,8.88823594" id="Line-2" stroke-linecap="square"></path>
                <path d="M8.65071164,12.137506 L16.8555466,12.137506" id="Line-2-Copy" stroke-linecap="square"></path>
            </g>
        </g>
    </g>
</svg>