<?xml version="1.0" encoding="UTF-8" standalone="no"?>
<svg width="18px" height="17px" viewBox="0 0 18 17" version="1.1" xmlns="http://www.w3.org/2000/svg" xmlns:xlink="http://www.w3.org/1999/xlink">
    <!-- Generator: sketchtool 47.1 (45422) - http://www.bohemiancoding.com/sketch -->
    <title>0227AFEE-B4D5-480D-AC07-06FEA81C1539</title>
    <desc>Created with sketchtool.</desc>
    <defs></defs>
    <g id="Symbols" stroke="none" stroke-width="1" fill="none" fill-rule="evenodd" stroke-linecap="round" stroke-linejoin="round">
        <g id="share" stroke="#616770">
            <g id="Group" transform="translate(1.000000, 0.500000)">
                <path d="M14.9763084,9.11367558 L14.9763084,13.425299 L14.9763084,13.425299 C14.9763084,14.5298685 14.0808779,15.425299 12.9763084,15.425299 L2,15.425299 L2,15.425299 C0.8954305,15.425299 1.3527075e-16,14.5298685 0,13.425299 L0,2.98893009 L0,2.98893009 C-1.3527075e-16,1.88436059 0.8954305,0.988930091 2,0.988930091 L8.13957937,0.988930091" id="Rectangle" fill="#FFFFFF"></path>
                <path d="M6.82076084,11.9499321 C5.26833912,10.4168244 4.99003863,7.02090459 6.51072223,5.15159307 C7.52451129,3.9053854 9.22170527,3.19968026 11.6023042,3.03447767 L11.6023042,0.570087055 L15.7371611,4.51486948 L11.6023042,8.67873156 L11.6023042,6.0565502 C8.17563235,6.14697024 6.58178456,8.11143089 6.82076084,11.9499321 Z" id="Path-8"></path>
            </g>
        </g>
    </g>
</svg>