<?xml version="1.0" encoding="UTF-8" standalone="no"?>
<svg width="18px" height="18px" viewBox="0 0 18 18" version="1.1" xmlns="http://www.w3.org/2000/svg" xmlns:xlink="http://www.w3.org/1999/xlink">
    <!-- Generator: sketchtool 47.1 (45422) - http://www.bohemiancoding.com/sketch -->
    <title>D542F977-B505-433F-8AD4-564969E1A33B</title>
    <desc>Created with sketchtool.</desc>
    <defs></defs>
    <g id="Page-1" stroke="none" stroke-width="1" fill="none" fill-rule="evenodd">
        <g id="Artboard" transform="translate(-329.000000, -127.000000)" stroke="#7554BD" fill="#FFFFFF">
            <g id="Group-7" transform="translate(329.358456, 127.091544)">
                <g id="Group-4" transform="translate(4.564003, 0.456440)">
                    <path d="M11.6402453,14.6396261 C11.6402453,13.8974094 11.6402453,13.8247626 11.6402453,13.3284202 C11.6402453,9.16624673 9.17963731,6.54385636 6.14432351,6.54385636 C3.10900971,6.54385636 0.648401699,9.41760774 0.648401699,13.3284202 C0.648401699,13.7673011 0.648401699,14.342557 0.648401699,15.0541879 C2.77847936,15.0541879 4.6104533,15.0541879 6.14432351,15.0541879" id="Oval-5-Copy-2" stroke-linecap="round" stroke-linejoin="round" transform="translate(6.144324, 10.799022) scale(-1, 1) translate(-6.144324, -10.799022) "></path>
                    <circle id="Oval-5-Copy-3" transform="translate(6.187244, 3.833589) scale(-1, 1) translate(-6.187244, -3.833589) " cx="6.1872437" cy="3.83358937" r="3.17754174"></circle>
                </g>
                <path d="M12.3771778,16.6204663 C12.3771778,15.8201491 12.3771778,15.7418154 12.3771778,15.2066196 C12.3771778,10.7186325 9.7239542,7.89096233 6.45103705,7.89096233 C3.1781199,7.89096233 0.524896318,10.98967 0.524896318,15.2066196 C0.524896318,15.679856 0.524896318,16.3001427 0.524896318,17.0674798 C2.82171574,17.0674798 4.79709599,17.0674798 6.45103705,17.0674798" id="Oval-5-Copy" stroke-linecap="round" stroke-linejoin="round"></path>
                <circle id="Oval-5" cx="6.49731702" cy="4.96853654" r="3.42627865"></circle>
            </g>
        </g>
    </g>
</svg>