<?xml version="1.0" encoding="UTF-8"?>
<svg width="21px" height="19px" viewBox="0 0 21 19" version="1.1" xmlns="http://www.w3.org/2000/svg" xmlns:xlink="http://www.w3.org/1999/xlink">
    <g id="Judul-Buku-Copy" stroke="none" stroke-width="1" fill="none" fill-rule="evenodd" transform="translate(-20.000000, -535.000000)" stroke-linecap="round">
        <g id="Group-25" transform="translate(21.000000, 536.000000)" stroke="#6b6b6b" stroke-width="2">
            <path d="M4.06922416,17 L3.95833333,17 C1.7722062,17 2.2093943e-15,15.1878192 0,12.952381 L2.812565e-15,3.77691144 C2.56274716e-15,1.69098085 1.6536798,3.83179233e-16 3.69359722,0 L6.03231984,7.19001578e-16 C6.91055858,5.54032719e-16 7.76385897,0.298659234 8.45789276,0.848962173 L9.62932634,1.77779785 C10.3233601,2.32810078 11.1766605,2.62676002 12.0548993,2.62676002 L15.0416667,2.62676002 C17.2277938,2.62676002 19,4.43894079 19,6.67437907 L19,12.952381 C19,15.1878192 17.2277938,17 15.0416667,17 L8.00716107,17" id="Path-14"></path>
            <polyline id="Path-57" stroke-linejoin="round" points="6 9.09160231 8.11868873 11 12 7"></polyline>
        </g>
    </g>
</svg>
