<?xml version="1.0" encoding="UTF-8" standalone="no"?>
<svg width="24px" height="23px" viewBox="0 0 24 23" version="1.1" xmlns="http://www.w3.org/2000/svg" xmlns:xlink="http://www.w3.org/1999/xlink">
    <!-- Generator: sketchtool 47.1 (45422) - http://www.bohemiancoding.com/sketch -->
    <title>F34D2CBC-EF14-4D37-86A8-C402E387E28B</title>
    <desc>Created with sketchtool.</desc>
    <defs></defs>
    <g id="Page-1" stroke="none" stroke-width="1" fill="none" fill-rule="evenodd">
        <g id="Details-Copy" transform="translate(-903.000000, -293.000000)" fill="#FFFFFF">
            <path d="M918.672841,315.232558 L921.797635,315.232558 C924.559058,315.232558 926.797635,312.993981 926.797635,310.232558 L926.797635,310.232558 L926.797635,298.270039 C926.797635,295.508615 924.559058,293.270039 921.797635,293.270039 L908.152838,293.270039 L908.152838,293.270039 C905.391414,293.270039 903.152838,295.508615 903.152838,298.270039 L903.152838,298.270039 L903.152838,310.232558 C903.152838,312.993981 905.391414,315.232558 908.152838,315.232558 L915.156932,315.232558 C915.069788,315.084187 915.019819,314.911351 915.019819,314.726843 L915.019819,307.396329 L913.628432,307.396329 C913.076147,307.396329 912.628432,306.948614 912.628432,306.396329 L912.628432,304.766909 C912.628432,304.214624 913.076147,303.766909 913.628432,303.766909 L915.019819,303.766909 C915.019819,303.465906 915.019819,302.391701 915.019819,300.544294 C915.019819,297.773184 916.974084,297.156335 918.981955,297.156335 C919.7301,297.156335 920.478245,297.156335 921.22639,297.156335 C921.778674,297.156335 922.22639,297.60405 922.22639,298.156335 L922.22639,298.980365 C922.22639,299.532649 921.778674,299.980365 921.22639,299.980365 L921.22639,299.980365 C920.860343,299.980365 920.494296,299.980365 920.128249,299.980365 C918.928622,299.980365 918.672841,300.685241 918.672841,301.647285 C918.672841,302.288647 918.672841,302.995188 918.672841,303.766909 L921.119004,303.766909 C921.170614,303.766909 921.222147,303.770904 921.27314,303.778859 C921.818825,303.863986 922.192181,304.37536 922.107054,304.921045 L921.866006,306.466217 C921.790052,306.953102 921.37073,307.312081 920.877956,307.312081 L918.672841,307.312081 L918.672841,315.232558 Z" id="Combined-Shape-Copy"></path>
        </g>
    </g>
</svg>