<?xml version="1.0" encoding="UTF-8"?>
<svg width="42px" height="42px" viewBox="0 0 42 42" version="1.1" xmlns="http://www.w3.org/2000/svg" xmlns:xlink="http://www.w3.org/1999/xlink">
    <!-- Generator: sketchtool 50.2 (55047) - http://www.bohemiancoding.com/sketch -->
    <title>41994C64-D8CE-482E-9CBC-53D22830010C</title>
    <desc>Created with sketchtool.</desc>
    <defs></defs>
    <g id="Page-1" stroke="none" stroke-width="1" fill="none" fill-rule="evenodd">
        <g id="tulis-opsi" transform="translate(-258.000000, -394.000000)">
            <g id="Group-4" transform="translate(258.000000, 394.000000)">
                <circle id="Oval-2-Copy" fill="#623FAA" cx="21" cy="21" r="21"></circle>
                <g id="nulis" transform="translate(9.000000, 9.000000)" stroke="#FFFFFF">
                    <g id="003-pen" transform="translate(4.000000, 3.000000)">
                        <path d="M12.923851,8.07437458 C12.8224527,7.97520847 12.65787,7.97520847 12.5563379,8.07437458 L4.81381698,15.6364759 L2.41989907,13.2981679 L3.48796985,12.2551165 C3.58932353,12.1559503 3.58932353,11.9952028 3.48796985,11.8959932 C3.38639321,11.7968271 3.22181052,11.7968271 3.12027847,11.8959932 L1.86876332,13.118345 C1.86858496,13.1185192 1.8684066,13.1186934 1.8684066,13.1186934 L1.85850756,13.1281875 C1.83411668,13.1521843 1.81458614,13.1807538 1.80152119,13.2122414 L0.035523488,17.4588327 C-0.0324320857,17.6054696 -0.00139725677,17.7723578 0.115830567,17.886854 C0.191767799,17.9610217 0.290356889,18 0.391175493,18 C0.445887756,18 0.501268874,17.9885896 0.554063755,17.9652897 L4.90179358,16.2402263 C4.93398776,16.2274658 4.96328357,16.2086081 4.98780822,16.1846114 L12.923851,8.43349785 C13.025383,8.33433174 13.025383,8.17358423 12.923851,8.07437458 Z M0.625809502,17.3887152 L2.14134365,13.7443936 L4.35694506,15.9083225 L0.625809502,17.3887152 Z" id="Fill-1" fill="#FFFFFF"></path>
                        <path d="M17.6278112,0.373842043 C17.1315594,-0.124614014 16.3241914,-0.124614014 15.8277179,0.373842043 L14.7217385,1.4846348 L14.4750538,1.23687648 C14.3657906,1.12713777 14.2204316,1.0665677 14.0657603,1.0665677 C13.9112664,1.0665677 13.76573,1.12713777 13.6564225,1.23687648 L4.07576143,10.8592785 C3.97474619,10.9606888 3.97474619,11.1251188 4.07576143,11.2265291 C4.12613601,11.2771675 4.19234135,11.3025534 4.25850233,11.3025534 C4.32466332,11.3025534 4.39082431,11.2771675 4.44142062,11.2265291 L11.7105267,3.92578682 L14.0912137,6.31687945 L13.4567422,6.95415677 C13.3559043,7.0555671 13.3559043,7.21995249 13.4567422,7.32140736 C13.5577131,7.42263955 13.7213862,7.42263955 13.8224014,7.32140736 L15.11529,6.02266924 L15.7825315,6.69281473 C15.8090048,6.7192696 15.8129958,6.75040083 15.8129958,6.76661223 C15.8129958,6.78260095 15.8090048,6.81373219 15.7825315,6.8403652 L11.0863873,11.5567251 C10.9854164,11.6581799 10.9854164,11.8225653 11.0863873,11.9239757 C11.1368062,11.974614 11.2029672,12 11.2691282,12 C11.3353336,12 11.4014945,11.974614 11.4519135,11.9239757 L16.1480134,7.20743765 C16.2652584,7.08963777 16.3299117,6.93309086 16.3299117,6.76643409 C16.3299117,6.59991093 16.2652584,6.44336401 16.1480134,6.32556413 L15.4809492,5.65559679 L16.7682948,4.36247031 C16.8777797,4.25250891 16.9378656,4.10656176 16.9378656,3.95121734 C16.9378656,3.79600653 16.8777797,3.64988124 16.7684722,3.54009798 L16.5218318,3.2923842 L17.6278112,2.18154691 C18.1240629,1.68313539 18.1240629,0.872253563 17.6278112,0.373842043 Z M14.4566955,5.94980701 L12.0760085,3.55853622 L13.027494,2.60290974 L15.408181,4.99400238 L14.4566955,5.94980701 Z M16.402813,3.99521971 L15.7738402,4.62692993 L13.3929758,2.23583729 L14.0219486,1.60417162 C14.0369812,1.5890291 14.0541422,1.58586698 14.0657603,1.58586698 C14.0775558,1.58586698 14.0944951,1.5890291 14.109572,1.60417162 L16.402813,3.90734857 C16.4177125,3.92231295 16.4208166,3.93954869 16.4208166,3.95121734 C16.420994,3.9630196 16.4178899,3.9800772 16.402813,3.99521971 Z M17.2623294,1.81447447 L16.1561726,2.92531176 L15.0873977,1.85170724 L16.1933771,0.740914489 C16.4880418,0.44496734 16.9676646,0.44496734 17.262152,0.740914489 C17.5569497,1.0368171 17.5569497,1.51839371 17.2623294,1.81447447 Z" id="Fill-3" fill="#FFFFFF"></path>
                        <path d="M0.265430004,17.8418238 C1.60455803,18.7457993 2.90505901,19.1977871 4.16693293,19.1977871 C6.05974382,19.1977871 8.61266452,17.1638422 11.8296483,17.8418238 C13.9743041,18.2938116 15.6412493,18.5198055 16.8304839,18.5198055" id="Path-2" stroke-linecap="round"></path>
                    </g>
                </g>
            </g>
        </g>
    </g>
</svg>