<?xml version="1.0" encoding="UTF-8" standalone="no"?>
<svg width="32px" height="34px" viewBox="0 0 32 34" version="1.1" xmlns="http://www.w3.org/2000/svg" xmlns:xlink="http://www.w3.org/1999/xlink">
    <!-- Generator: sketchtool 47.1 (45422) - http://www.bohemiancoding.com/sketch -->
    <title>73EF31DE-EF98-4BD5-A412-E08FAA190282</title>
    <desc>Created with sketchtool.</desc>
    <defs>
        <polygon id="path-1" points="0.00409380994 0.027155606 0.00409380994 33.4327812 31.1837373 33.4327812 31.1837373 0.027155606"></polygon>
        <polygon id="path-3" points="2.22219052e-21 0.0145431806 2.22219052e-21 5.14406764 6.60610948 5.14406764 6.60610948 0.0145431806 0 0.0145431806"></polygon>
    </defs>
    <g id="Page-1" stroke="none" stroke-width="1" fill="none" fill-rule="evenodd">
        <g id="Setting-Copy-2" transform="translate(-247.000000, -130.000000)">
            <g id="Group-7" transform="translate(246.878558, 130.244904)">
                <polygon id="Path-30" fill="#CFE8F3" points="4.67464233 33.6066009 6.35234488 32.7736926 5.97415946 3.51042527 5.75193051 2.13058876 5.5134936 1.36971572 4.85905274 0.891221119 3.9319582 0.60289976 2.91680049 0.3684248 2.00339266 0.60289976 0.950236313 1.0931001 0.379536508 2.13058876 2.00339266 30.6653989 2.24561141 31.5607979 2.91680049 32.2635024 4.29987859 32.4693434"></polygon>
                <polygon id="Path-31" fill="#D5CBEC" points="6.14035088 3.62065709 14.4886925 1.67871051 14.9125121 3.12370277 28.3937226 7.31137637 31.3759654 32.0730365 9.64358167 33.4023829"></polygon>
                <polygon id="Path-29" fill="#F5F8FA" points="29.1558644 29.7918527 26.6428119 31.069111 25.3230055 31.3612571 5.15056303 33.5033003 5.98255602 32.8913654 6.26575885 32.2553108 6.26575885 31.3612571 5.98255602 3.43258033 27.9669545 2.45614035 28.4458248 9.11100025 29.1558644 20.3968361 29.6664425 26.1424659"></polygon>
                <g id="Group-5" transform="translate(0.319562, 0.000000)">
                    <g id="comic" transform="translate(0.012545, 0.234206)">
                        <g id="Group-3" transform="translate(0.000000, 0.068230)">
                            <mask id="mask-2" fill="white">
                                <use xlink:href="#path-1"></use>
                            </mask>
                            <g id="Clip-2"></g>
                            <path d="M27.7174131,2.12871294 C27.7158439,2.11697735 27.7105219,2.10606053 27.7067692,2.09487078 C27.7041083,2.08606909 27.7028119,2.07699448 27.6987863,2.06901155 C27.6686968,2.00903723 27.6079037,1.96721214 27.5412429,1.97922065 L27.538036,1.97922065 C27.5378314,1.97922065 27.5372855,1.97894773 27.5367397,1.97922065 C27.5361938,1.97922065 27.5359209,1.97949357 27.535648,1.97949357 L14.6148333,2.61696801 L14.224625,1.28757146 C14.1993116,1.20201083 14.1124546,1.15165697 14.0253246,1.16980619 L5.8115726,3.01734262 C5.80672826,2.51919418 5.80461312,2.21400065 5.80461312,2.14843146 C5.80461312,0.978693497 4.5026451,0.027155606 2.9021701,0.027155606 C1.30196802,0.027155606 0,0.978420577 0,2.14843146 C0,3.21957683 1.70070511,29.9159938 1.77316555,31.0518896 C1.77316555,31.0532542 1.77425723,31.0543459 1.77425723,31.0553693 C1.78728919,31.7656453 2.76359463,32.3451241 3.99119178,32.3893373 L4.01172905,33.2675278 C4.01172905,33.2683465 4.01254782,33.2688924 4.01254782,33.2699158 C4.01254782,33.2710075 4.0122749,33.2715533 4.0122749,33.2725768 C4.01275251,33.2840395 4.01759685,33.2939328 4.02025783,33.3048497 C4.02264588,33.3141972 4.02346464,33.3240223 4.02742199,33.3325511 C4.02769491,33.3336428 4.02769491,33.3344615 4.02796783,33.335485 C4.03274395,33.3453784 4.04052218,33.3528155 4.0466629,33.3613442 C4.05253069,33.3690542 4.05676096,33.3778559 4.06372044,33.3845425 C4.06501681,33.3858389 4.06638142,33.3866576 4.06740487,33.3880222 C4.06849655,33.3890457 4.06876947,33.3901374 4.06958824,33.391229 C4.07811701,33.3981203 4.08821507,33.4026917 4.09804021,33.4080137 C4.10445385,33.4116981 4.10950288,33.4168154 4.11673528,33.4199539 C4.11782696,33.4202269 4.11885042,33.4204998 4.12021502,33.4210456 C4.13884185,33.4280051 4.15856037,33.4319625 4.17882473,33.4325083 C4.17964349,33.4325083 4.18046225,33.4327812 4.18121279,33.4327812 L4.18175863,33.4327812 C4.18469253,33.4327812 4.1873535,33.4327812 4.1902874,33.4325083 L4.23238541,33.4301202 C4.28253458,33.4287556 4.33288845,33.4269134 4.38194593,33.4218644 L31.0239152,31.9908731 C31.0705846,31.9884851 31.1143202,31.9669243 31.1438638,31.9308988 C31.1737487,31.8949415 31.1881452,31.8488179 31.1825503,31.8024214 L27.7174131,2.12871294 Z M5.84063865,5.992519 L15.3014334,5.51333854 L15.6012368,10.4725117 L5.89181127,11.0895171 C5.87257037,9.18439438 5.85496698,7.43203903 5.84063865,5.992519 Z M5.76360679,31.5119656 C5.76360679,32.2672735 5.23079743,32.8984026 4.52181777,33.0551272 L4.34564749,33.0748458 L4.27448342,30.047678 C5.03333933,30.1193197 5.76333387,30.65479 5.76333387,31.5114197 C5.76360679,31.5114197 5.76360679,31.5116927 5.76360679,31.5119656 Z M6.10182372,31.5116927 L6.10182372,31.5100551 C6.1001862,31.3477356 6.00507335,22.1910426 5.92319715,14.1441816 C5.93070247,14.1444545 5.9371161,14.1471155 5.94455319,14.1465696 L13.2830487,13.6332059 L13.4916965,18.6313384 L6.1718961,19.2350389 C6.07889839,19.242476 6.00957654,19.3243522 6.01708186,19.4173499 C6.02451894,19.5058445 6.09807106,19.5724371 6.18547391,19.5724371 C6.19031825,19.5724371 6.19482144,19.5721642 6.19959755,19.5719595 L13.6812399,18.9551588 C13.7718496,18.9479946 13.8403527,18.870144 13.8360542,18.7795344 L13.6134874,13.4458458 C13.6119181,13.4000634 13.5916537,13.3574195 13.5572657,13.3264431 C13.5228777,13.2960806 13.4765494,13.2784772 13.4328139,13.2837992 L5.92080909,13.8088986 C5.92053617,13.8088986 5.92005856,13.8091715 5.91951272,13.8091715 C5.91125687,12.9992112 5.90327394,12.2025558 5.89494986,11.4282798 L15.7907802,10.7998118 C15.8837779,10.7936711 15.954669,10.7137053 15.9488012,10.6207076 L15.6289382,5.32597851 C15.6231387,5.23373132 15.5429,5.15990628 15.4517445,5.16734337 L5.83743183,5.65402914 C5.8280843,4.74411165 5.82064721,3.974953 5.81525703,3.38940171 L27.3925693,2.32569343 L29.0727372,25.3184405 C29.1553639,26.4471722 28.6233733,28.9165583 28.5231432,29.3701525 C28.1526534,29.5801649 26.2699784,30.6270886 25.354466,30.7291609 L5.44804227,32.9525091 C5.84780281,32.5996227 6.10182372,32.0855084 6.10182372,31.5116927 Z M14.2672688,2.63402555 L7.59620081,2.96296318 L13.945086,1.53490581 L14.2672688,2.63402555 Z M2.90271594,0.365372538 C4.31610382,0.365372538 5.46666911,1.16496185 5.46666911,2.14843146 C5.46666911,2.29662738 5.47949638,3.6567275 5.49969251,5.71373054 C5.46537274,5.74654925 5.44347085,5.79185408 5.44640475,5.84329962 C5.44851989,5.88962791 5.46987593,5.93390928 5.50242172,5.96427171 C5.56983312,12.7625207 5.71291178,26.590319 5.75316758,30.4780739 C5.39550505,30.00558 4.7955572,29.7006594 4.10179287,29.7006594 L4.09701676,29.7006594 C3.21507364,29.7016828 2.46399598,29.9716696 2.06955739,30.3786625 C1.80305036,26.1878293 0.338762773,3.11723158 0.338762773,2.14843146 C0.338489852,1.16496185 1.48878222,0.365372538 2.90271594,0.365372538 Z M2.11110956,31.0412457 C2.11110956,30.525835 2.93096323,30.087388 3.9360618,30.0433795 L3.98293593,32.0513933 C2.96937681,32.0079307 2.11110956,31.5550871 2.11110956,31.0412457 Z M10.038909,32.7795456 L25.3917197,31.0649898 C26.4751465,30.9439495 28.6638338,29.6793033 28.7566268,29.6254697 C28.7971555,29.6022715 28.8261533,29.5625615 28.8363196,29.5169838 C28.8637482,29.3978539 29.5039518,26.5833596 29.4095895,25.2939459 L28.2867257,9.92373646 L30.8253654,31.6630272 L10.038909,32.7795456 Z" id="Fill-1" stroke="#3F3838" stroke-width="0.3" fill="#3F3838" mask="url(#mask-2)"></path>
                        </g>
                        <path d="M18.2643966,10.7102938 C18.2678081,10.7102938 18.2712879,10.7102938 18.2750405,10.7100209 L25.7275486,10.23664 C25.7728534,10.2337061 25.8150197,10.2131688 25.8448363,10.1785761 C25.8744481,10.144461 25.8891176,10.0996338 25.8856379,10.054329 L25.4735959,4.89230757 C25.4660906,4.80087915 25.3863978,4.72971509 25.2963339,4.73694749 L17.9128066,5.11084879 C17.8675017,5.11323685 17.8251308,5.13322829 17.7950413,5.16734337 C17.7648836,5.20118553 17.7497365,5.24546691 17.7528751,5.29049882 L18.0962092,10.5522045 C18.1015312,10.6417907 18.1759021,10.7102938 18.2643966,10.7102938 Z M25.1497756,5.08260151 L25.5348666,9.90988573 L18.4221447,10.3619106 L18.1012583,5.43999111 L25.1497756,5.08260151 Z" id="Fill-4" stroke="#3F3838" stroke-width="0.3" fill="#3F3838"></path>
                        <path d="M16.5967149,24.1046941 L26.7630096,23.1417618 C26.8552568,23.1329601 26.923214,23.051698 26.9157087,22.9597237 L26.7078796,20.3568111 C26.7003743,20.2640863 26.6185663,20.1926493 26.5260462,20.2017239 C26.4327756,20.2088881 26.363249,20.2907643 26.3706861,20.383762 L26.5652786,22.8206024 L16.739043,23.7512618 L16.1193767,13.5031592 L18.4327887,13.3416584 C18.5260593,13.3346989 18.595927,13.2539826 18.5897863,13.1609849 C18.5828268,13.067919 18.4999954,12.9986653 18.4091128,13.0039873 L15.9285369,13.1774966 C15.8358121,13.1843878 15.7659444,13.2640807 15.7715393,13.3566008 L16.4120158,23.9464001 C16.4146768,23.9919779 16.4360329,24.0348946 16.4706255,24.0647112 C16.501602,24.0911163 16.5407662,24.1052399 16.580749,24.1052399 C16.5857981,24.1055129 16.5913929,24.104967 16.5967149,24.1046941 Z" id="Fill-5" stroke="#3F3838" stroke-width="0.3" fill="#3F3838"></path>
                        <path d="M14.0007618,21.3851079 C13.9661009,21.3549502 13.920796,21.3421912 13.8754912,21.3445792 L6.28515818,22.0169875 C6.19216046,22.0250387 6.12311153,22.1076654 6.1316403,22.2003902 C6.13989615,22.2936608 6.22361457,22.3640061 6.31504299,22.3539081 L13.7313209,21.6969198 L14.1583052,29.3544595 L6.62446679,30.1590979 C6.53194669,30.168923 6.46453528,30.2520956 6.47442866,30.3450933 C6.48343504,30.4322232 6.55705539,30.496496 6.64254779,30.496496 C6.6486885,30.496496 6.65455629,30.4962231 6.66069701,30.4954043 L14.354467,29.6734355 C14.4439849,29.6638833 14.5103729,29.5857598 14.5053239,29.495696 L14.0596444,21.503419 C14.0567787,21.4578413 14.0356956,21.4151974 14.0007618,21.3851079 Z" id="Fill-7" stroke="#3F3838" stroke-width="0.3" fill="#000000"></path>
                        <path d="M26.9085445,27.741976 C26.9210307,27.7003556 27.2150344,26.7147709 27.121218,25.5407344 C27.1174653,25.4954296 27.0959046,25.4533316 27.0609707,25.4242655 C27.0258322,25.3951995 26.9818237,25.3810758 26.9354272,25.3861248 L16.7235548,26.415718 C16.633218,26.4245197 16.5663525,26.5036667 16.5716744,26.5940717 L16.7316059,29.2411292 C16.7345398,29.2875257 16.7561006,29.3304425 16.7913073,29.3602591 C16.8216698,29.3861183 16.8605609,29.400242 16.9002709,29.400242 C16.9066845,29.400242 16.9122794,29.3997643 16.9184201,29.3992185 L24.3422033,28.6063157 C25.0649655,28.528738 26.7374233,27.8778905 26.8083144,27.8501891 C26.8568261,27.8317669 26.8936021,27.791784 26.9085445,27.741976 Z M26.606012,27.5658057 C26.2638377,27.6966712 24.8999849,28.2067599 24.3064507,28.2704869 L17.058906,29.0444899 L16.918966,26.7361269 L26.7947366,25.7406488 C26.8352653,26.5940717 26.6673509,27.3306846 26.606012,27.5658057 Z" id="Fill-8" stroke="#3F3838" stroke-width="0.3" fill="#3F3838"></path>
                    </g>
                    <g id="002-thought-bubble" transform="translate(22.820703, 17.034102) rotate(9.000000) translate(-22.820703, -17.034102) translate(18.522457, 13.042874)">
                        <path d="M7.62219969,2.72848373 C7.86104125,2.44156509 7.99446614,2.09002912 7.99446614,1.72923059 C7.99446614,0.80562165 7.15289696,0.0544726382 6.11725522,0.0544726382 C5.67706337,0.0544726382 5.26179221,0.187897521 4.92679651,0.434237347 C4.63634929,0.279199838 4.30819023,0.19826276 3.96613735,0.19826276 C2.9315983,0.19826276 2.08914697,0.948750161 2.08914697,1.87213857 C2.08914697,1.93080141 2.09245503,1.98836156 2.09951221,2.04702441 C1.4068055,2.30284732 0.941692977,2.90932406 0.941692977,3.59342983 C0.941692977,4.4969699 1.74974053,5.23620992 2.75494817,5.26642349 C3.11596723,5.75733884 3.72928062,6.05726916 4.3961845,6.05726916 C4.9422341,6.05726916 5.45321832,5.8590064 5.82349994,5.50747042 C5.9675106,5.53856614 6.11394716,5.55400373 6.26038373,5.55400373 C7.29580493,5.55400373 8.13825626,4.80285472 8.13825626,3.87946631 C8.13825626,3.45030132 7.94969713,3.03679445 7.62219969,2.72848373 Z M6.40166062,5.18680894 C6.23937744,5.18680894 6.07804886,5.16246646 5.92053871,5.11592938 C5.81338408,5.08323409 5.69787664,5.11688398 5.62413325,5.20065074 C5.32677318,5.53834296 4.87452813,5.75647065 4.38433745,5.73117356 C2.85625036,5.65289579 2.8693762,4.57705374 2.8693762,4.34508425 C2.8684216,4.1594132 2.89443464,4.04390576 2.89443464,4.04390576 C2.92617532,3.90787426 2.72117347,3.86109852 2.6903874,3.99641406 C2.71544583,3.91049943 2.55984489,4.3720519 2.65411233,4.87536842 C1.86059529,4.86415179 1.21933807,4.31334357 1.21933807,3.63748184 C1.21933807,3.07999137 1.66203705,2.58860744 2.29708933,2.44231392 C2.37441249,2.42465369 2.44051902,2.37525278 2.48061252,2.30699839 C2.52070601,2.23898264 2.53001343,2.15712509 2.50758016,2.08051788 C2.47607813,1.97718168 2.46008847,1.87456143 2.46008847,1.77575961 C2.46008847,1.09249968 3.11447154,0.535963817 3.91992117,0.535963817 C4.24997652,0.535963817 4.56332626,0.629037996 4.82417261,0.805401632 C4.93323646,0.879860975 5.07976863,0.869598951 5.17857045,0.779149941 C5.45827029,0.522837971 5.83844251,0.381078837 6.24677564,0.381078837 C7.05127066,0.381078837 7.70660834,0.93666009 7.70660834,1.62015868 C7.70660834,1.95474842 7.54909819,2.26976871 7.26390936,2.50651124 C7.26390936,2.50651124 6.79209487,2.43109729 6.53864672,2.45806494 C6.36061252,2.47667977 6.38209118,2.65948701 6.49855323,2.67452207 C6.49855323,2.67452207 6.60761707,2.68836387 6.77348003,2.73585556 C6.92263737,2.77976748 7.11379741,2.85518143 7.2834788,2.96162011 C7.28538802,2.96257472 7.28729723,2.96519989 7.28896779,2.96615449 C7.65267304,3.20385163 7.86149332,3.56182924 7.86149332,3.94701315 C7.86053871,4.63027308 7.20615564,5.18680894 6.40166062,5.18680894 Z" id="Fill-1" fill="#3F3838"></path>
                        <path d="M1.75062268,5.36191601 C1.33623366,5.36191601 0.999253133,5.69889654 0.999253133,6.11240341 C0.999253133,6.52657189 1.33623366,6.86267027 1.75062268,6.86267027 C2.16390901,6.86267027 2.50088954,6.52657189 2.50088954,6.11240341 C2.50088954,5.69889654 2.16390901,5.36191601 1.75062268,5.36191601 Z M1.75073802,6.59340829 C1.48486725,6.59340829 1.26939726,6.3779383 1.26939726,6.11233421 C1.26939726,5.84753012 1.48486725,5.63206013 1.75073802,5.63206013 C2.01527543,5.63206013 2.23074542,5.84753012 2.23074542,6.11233421 C2.23074542,6.37687162 2.01527543,6.59340829 1.75073802,6.59340829 Z" id="Fill-2" fill="#3F3838"></path>
                        <path d="M0.515174425,6.65580657 C0.230902236,6.65580657 0,6.8867088 0,7.17098099 C0,7.45459157 0.230902236,7.68615542 0.515174425,7.68615542 C0.799446614,7.68615542 1.03034885,7.45459157 1.03034885,7.17098099 C1.03034885,6.8867088 0.799446614,6.65580657 0.515174425,6.65580657 Z M0.515174425,7.42519398 C0.374717371,7.42519398 0.261244677,7.31172129 0.261244677,7.17091828 C0.261244677,7.03046123 0.374717371,6.91698854 0.515174425,6.91698854 C0.655631479,6.91698854 0.769104172,7.03046123 0.769104172,7.17091828 C0.769104172,7.31172129 0.655631479,7.42519398 0.515174425,7.42519398 Z" id="Fill-3" fill="#3F3838"></path>
                        <path d="M4.1798377,0.996827226 C3.82411153,0.965069898 3.11420293,1.09761263 2.97129496,1.830016 C2.95321093,1.92550852 3.01518182,2.01857513 3.11067434,2.03665917 C3.12192173,2.03930561 3.13405126,2.04018776 3.14529865,2.04018776 C3.22800002,2.04018776 3.30121831,1.98152492 3.31753804,1.89705925 C3.43464319,1.2983013 4.11610251,1.34571676 4.14808037,1.3483632 C4.24710149,1.35608199 4.33068501,1.28551015 4.33928595,1.1880328 C4.34788689,1.09077599 4.27643291,1.00542817 4.1798377,0.996827226 Z" id="Fill-4" fill="#000000"></path>
                    </g>
                    <g id="001-cartoon-happy-eyes" transform="translate(6.641397, 23.512254)">
                        <g id="Group-3" transform="translate(0.000000, 0.020496)">
                            <mask id="mask-4" fill="white">
                                <use xlink:href="#path-3"></use>
                            </mask>
                            <g id="Clip-2"></g>
                            <path d="M6.34329386,1.03988962 C6.0810054,0.48255994 5.65780213,0.126132937 5.1516512,0.0362985752 C4.76357823,-0.0325682868 4.3643144,0.0630459724 3.99673752,0.312667851 C3.73100572,0.493217907 3.49505473,0.745647749 3.30306786,1.0520438 C3.110999,0.745647749 2.87504801,0.493217907 2.6093367,0.312667851 C2.24184181,0.0629639881 1.842496,-0.0326297751 1.45450502,0.0362985752 C0.948354078,0.126132937 0.525130318,0.48255994 0.262759872,1.03988962 C0.0103300293,1.57614931 -0.0633329177,2.23954625 0.0552369622,2.90773928 C0.173888826,3.5759528 0.471410067,4.17345481 0.892932651,4.59011982 C1.25971018,4.95263416 1.68395874,5.14406764 2.10933459,5.14406764 C2.1921183,5.14406764 2.27482002,5.13685302 2.3572143,5.12219831 C2.72253661,5.05743067 3.05094546,4.8475917 3.30306786,4.52285165 C3.55519026,4.8475917 3.88353762,5.05743067 4.24885993,5.12219831 C4.33123371,5.13685302 4.41393543,5.14406764 4.49673964,5.14406764 C4.92209499,5.14406764 5.34636405,4.95255218 5.71312108,4.59011982 C6.13472565,4.17345481 6.43224689,3.5759528 6.55081677,2.90773928 C6.66946863,2.23954625 6.5957442,1.57614931 6.34329386,1.03988962 Z M2.32113704,4.86312306 C1.91668473,4.93501428 1.49102879,4.77428605 1.12309978,4.4105507 C0.737904049,4.02993375 0.465016952,3.47797606 0.354676764,2.85630955 C0.244357972,2.23481422 0.310643391,1.62260483 0.541230206,1.13258913 C0.761546847,0.664547318 1.10572607,0.36724716 1.51032816,0.295377334 C2.12262313,0.186813031 2.76476579,0.609216752 3.16502445,1.37614204 C3.04340847,1.64534899 2.95457146,1.93419765 2.90099538,2.23633335 C2.77137722,2.96656416 2.86481441,3.69846387 3.15674412,4.26512075 C2.94102766,4.59417286 2.64742905,4.80520355 2.32113704,4.86312306 Z M6.26856985,2.85630955 C6.15825106,3.47789047 5.88536396,4.02993375 5.50014683,4.4105507 C5.13223922,4.77420047 4.70673305,4.9349287 4.30213097,4.86312306 C3.94742481,4.80019684 3.6313174,4.55647276 3.41192079,4.17686144 C3.12108229,3.67347311 3.02428589,2.99012137 3.14639399,2.30219084 C3.19964912,2.00206639 3.29116066,1.71713323 3.41827546,1.45520099 C3.81493956,0.638294184 4.48023291,0.183132885 5.11285427,0.295377334 C5.51745635,0.36724716 5.86163558,0.664547318 6.08193082,1.13267471 C6.31262462,1.62260483 6.37888864,2.23481422 6.26856985,2.85630955 Z" id="Fill-1" fill="#3F3838" mask="url(#mask-4)"></path>
                        </g>
                        <path d="M2.06914176,2.87949567 C1.6259958,2.87949567 1.26667885,3.23881262 1.26667885,3.68195858 C1.26667885,3.93119103 1.38037066,4.15384005 1.55858416,4.30108396 C1.5552228,4.28185863 1.55594017,4.26281776 1.56147411,4.24430979 C1.58979971,4.14879801 1.732391,4.1069245 1.87996285,4.15072465 C2.02759619,4.19452479 2.12423525,4.30741725 2.09588916,4.40292903 C2.0857231,4.43711651 2.06082035,4.46425333 2.02638692,4.48323271 C2.04057021,4.48395008 2.05481499,4.4843395 2.06914176,4.4843395 C2.51228772,4.4843395 2.87160467,4.12510453 2.87160467,3.68195858 C2.87160467,3.23881262 2.51228772,2.87949567 2.06914176,2.87949567 Z M2.54952911,3.3316804 C2.52118302,3.42719218 2.37859173,3.46906569 2.23095839,3.42526555 C2.08338654,3.3814859 1.98676798,3.26851145 2.01509357,3.17308166 C2.04343966,3.07756988 2.18603096,3.03561438 2.33358231,3.07947601 C2.48123614,3.12327616 2.57785471,3.23616862 2.54952911,3.3316804 Z" id="Fill-4" fill="#3F3838"></path>
                        <path d="M4.29913683,2.87949567 C3.85599087,2.87949567 3.49667392,3.23881262 3.49667392,3.68195858 C3.49667392,4.12510453 3.85599087,4.4843395 4.29913683,4.4843395 C4.3134636,4.4843395 4.32770838,4.48403206 4.34189168,4.48323271 C4.30745825,4.46425333 4.2825555,4.43711651 4.27238944,4.40292903 C4.24404334,4.30741725 4.34068241,4.19452479 4.48831574,4.15072465 C4.63588759,4.1069245 4.77847889,4.14879801 4.80680448,4.24430979 C4.81233843,4.26281776 4.81305579,4.28194061 4.80969443,4.30108396 C4.98790793,4.15384005 5.10159974,3.93119103 5.10159974,3.68195858 C5.10151776,3.23881262 4.74228279,2.87949567 4.29913683,2.87949567 Z M4.1373202,3.42526555 C3.98968687,3.46906569 3.84709557,3.42719218 3.81874948,3.3316804 C3.79042388,3.23616862 3.88704245,3.12327616 4.0346143,3.07947601 C4.18224763,3.03561438 4.32483893,3.07756988 4.35318502,3.17308166 C4.38151062,3.26859344 4.28489205,3.3814859 4.1373202,3.42526555 Z" id="Fill-5" fill="#3F3838"></path>
                    </g>
                </g>
            </g>
        </g>
    </g>
</svg>