<?xml version="1.0" encoding="UTF-8" standalone="no"?>
<svg width="66px" height="68px" viewBox="0 0 66 68" version="1.1" xmlns="http://www.w3.org/2000/svg" xmlns:xlink="http://www.w3.org/1999/xlink">
    <!-- Generator: sketchtool 47.1 (45422) - http://www.bohemiancoding.com/sketch -->
    <title>2D28628B-8599-4B1C-8BA2-B2B1771BA699</title>
    <desc>Created with sketchtool.</desc>
    <defs>
        <linearGradient x1="-5.72709694%" y1="103.440939%" x2="72.9142663%" y2="27.1814041%" id="linearGradient-1">
            <stop stop-color="#602B98" offset="0%"></stop>
            <stop stop-color="#6454BD" offset="100%"></stop>
        </linearGradient>
        <circle id="path-2" cx="33" cy="34" r="30"></circle>
        <filter x="-20.0%" y="-20.0%" width="140.0%" height="140.0%" filterUnits="objectBoundingBox" id="filter-3">
            <feOffset dx="0" dy="0" in="SourceAlpha" result="shadowOffsetOuter1"></feOffset>
            <feGaussianBlur stdDeviation="4" in="shadowOffsetOuter1" result="shadowBlurOuter1"></feGaussianBlur>
            <feColorMatrix values="0 0 0 0 0.297155764   0 0 0 0 0.228151932   0 0 0 0 0.680989583  0 0 0 0.493376359 0" type="matrix" in="shadowBlurOuter1"></feColorMatrix>
        </filter>
    </defs>
    <g id="Symbols" stroke="none" stroke-width="1" fill="none" fill-rule="evenodd">
        <g id="Tulis">
            <g id="Oval-9">
                <use fill="black" fill-opacity="1" filter="url(#filter-3)" xlink:href="#path-2"></use>
                <use fill="url(#linearGradient-1)" fill-rule="evenodd" xlink:href="#path-2"></use>
            </g>
            <g id="003-pen" transform="translate(17.500000, 18.500000)" fill="#FFFFFF">
                <path d="M21.5976832,13.5691568 C21.4282317,13.3994817 21.1531898,13.3994817 20.9835148,13.5691568 L8.04462207,26.5080495 L4.04403271,22.5071621 L5.82893626,20.7224821 C5.9983132,20.5528071 5.9983132,20.2777651 5.82893626,20.1080156 C5.65918674,19.9383406 5.38414483,19.9383406 5.21446982,20.1080156 L3.1230037,22.1994817 C3.12270564,22.1997798 3.12240757,22.2000779 3.12240757,22.2000779 L3.10586481,22.2163226 C3.06510406,22.2573814 3.03246566,22.3062645 3.0106322,22.3601402 L0.0593899774,29.6261351 C-0.0541737937,29.8770335 -0.00231002421,30.1625823 0.193594933,30.3584873 C0.320497231,30.4853896 0.485254119,30.5520822 0.653736853,30.5520822 C0.745169101,30.5520822 0.837719104,30.5325588 0.925947125,30.4926922 L8.19164393,27.5410774 C8.24544514,27.5192439 8.29440275,27.4869781 8.33538705,27.4459193 L21.5976832,14.1836232 C21.7673582,14.0139482 21.7673582,13.7389063 21.5976832,13.5691568 Z M1.04584483,29.5061628 L3.57852558,23.2706623 L7.28112181,26.973184 L1.04584483,29.5061628 Z" id="Fill-1"></path>
                <path d="M29.896706,0.655376225 C29.0627872,-0.178617034 27.7060578,-0.178617034 26.8717665,0.655376225 L25.0132403,2.51390248 L24.5987027,2.09936491 C24.415093,1.91575524 24.1708266,1.81441225 23.9109116,1.81441225 C23.6512947,1.81441225 23.4067302,1.91575524 23.223046,2.09936491 L7.12336951,18.1991159 C6.95361999,18.3687909 6.95361999,18.6439074 7.12336951,18.8135824 C7.20802072,18.8983081 7.31927447,18.9407827 7.43045369,18.9407827 C7.54163292,18.9407827 7.65281215,18.8983081 7.73783595,18.8135824 L19.953095,6.59832336 L23.9536843,10.5989872 L22.8874964,11.6652497 C22.7180449,11.8349247 22.7180449,12.1099666 22.8874964,12.2797161 C23.0571714,12.4490931 23.3322133,12.4490931 23.5019628,12.2797161 L25.6745778,10.1067285 L26.7958338,11.2279845 C26.8403204,11.2722475 26.8470269,11.3243348 26.8470269,11.351459 C26.8470269,11.3782106 26.8403204,11.4302979 26.7958338,11.474859 L18.9042695,19.3660507 C18.7345944,19.5358003 18.7345944,19.8108422 18.9042695,19.9805172 C18.9889952,20.0652429 19.1001744,20.1077176 19.2113536,20.1077176 C19.3226074,20.1077176 19.4337866,20.0652429 19.5185123,19.9805172 L27.4100022,12.0890274 C27.6070249,11.8919301 27.7156705,11.6300032 27.7156705,11.3511609 C27.7156705,11.0725422 27.6070249,10.8106153 27.4100022,10.613518 L26.2890443,9.49256015 L28.4523447,7.32896166 C28.6363269,7.14497941 28.7372974,6.9007875 28.7372974,6.64087252 C28.7372974,6.38118108 28.6363269,6.1366911 28.4526428,5.95300692 L28.0381797,5.53854386 L29.896706,3.67994309 C30.7306247,2.84602435 30.7306247,1.48929497 29.896706,0.655376225 Z M24.5678527,9.98481886 L20.5672633,5.98385692 L22.1661727,4.38494758 L26.166762,8.38561145 L24.5678527,9.98481886 Z M27.8381763,6.71449522 L26.7812285,7.77144308 L22.780341,3.7707792 L23.8372889,2.71390587 C23.8625501,2.68857012 23.8913882,2.68327942 23.9109116,2.68327942 C23.9307331,2.68327942 23.9591986,2.68857012 23.9845343,2.71390587 L27.8381763,6.56747336 C27.863214,6.59251104 27.8684302,6.62134908 27.8684302,6.64087252 C27.8687283,6.6606195 27.8635121,6.68915947 27.8381763,6.71449522 Z M29.2825376,3.06577472 L27.4237133,4.92437549 L25.6277067,3.12807085 L27.486233,1.2695446 C27.9813978,0.77437973 28.7873727,0.77437973 29.2822395,1.2695446 C29.7776279,1.76463495 29.7776279,2.5703863 29.2825376,3.06577472 Z" id="Fill-3"></path>
            </g>
        </g>
    </g>
</svg>