<?xml version="1.0" encoding="UTF-8"?>
<svg width="16px" height="20px" viewBox="0 0 16 20" version="1.1" xmlns="http://www.w3.org/2000/svg" xmlns:xlink="http://www.w3.org/1999/xlink">
    <!-- Generator: sketchtool 48.2 (47327) - http://www.bohemiancoding.com/sketch -->
    <title>BF13EA67-343D-47C3-A601-DE1CEA54AC6B</title>
    <desc>Created with sketchtool.</desc>
    <defs>
        <polygon id="path-1" points="7.86976162 0.340092562 0.0456902315 0.340092562 0.0456902315 5.3315926 15.693833 5.3315926 15.693833 0.340092562"></polygon>
    </defs>
    <g id="Delete-Book" stroke="none" stroke-width="1" fill="none" fill-rule="evenodd" transform="translate(-282.000000, -13.000000)">
        <g id="dustbin" transform="translate(282.000000, 12.000000)">
            <path d="M13.5966514,7.13953749 C13.5966514,6.97029332 13.72763,6.83233124 13.8883074,6.83233124 C14.0520307,6.83233124 14.1830093,6.97029332 14.1830093,7.13953749 L14.1830093,18.9545456 C14.1830093,19.4775181 13.9774033,19.9507601 13.6537642,20.2956653 C13.3263175,20.6405705 12.8739842,20.8531284 12.3805297,20.8531284 L3.31406479,20.8531284 C2.81984878,20.8531284 2.36751549,20.6405705 2.04083034,20.2956653 C1.71338368,19.9539686 1.51082365,19.4775181 1.51082365,18.9545456 L1.51082365,7.13953749 C1.51082365,6.97029332 1.64180232,6.83233124 1.80247963,6.83233124 C1.96315694,6.83233124 2.09718162,6.97029332 2.09718162,7.13953749 L2.09718162,18.9545456 C2.09718162,19.3058676 2.23425232,19.6283139 2.45432693,19.8601223 C2.67440155,20.0919306 2.9805261,20.239518 3.31406479,20.239518 L12.3774837,20.239518 C12.7133069,20.239518 13.0171469,20.0919306 13.2372216,19.8601223 C13.4572962,19.6283139 13.5966514,19.3058676 13.5966514,18.9545456 L13.5966514,7.13953749 Z" id="Fill-1" fill="#050008"></path>
            <path d="M5.6663502,18.1588574 C5.6663502,18.3313099 5.53613304,18.469272 5.37240971,18.469272 C5.2117324,18.469272 5.08075374,18.3313099 5.08075374,18.1588574 L5.08075374,7.21734169 C5.08075374,7.04809751 5.2117324,6.91013543 5.37240971,6.91013543 C5.53613304,6.91013543 5.6663502,7.04809751 5.6663502,7.21734169 L5.6663502,18.1588574 Z" id="Fill-2" fill="#050008"></path>
            <path d="M8.13895323,18.1588574 C8.13895323,18.3313099 8.00797457,18.469272 7.84729725,18.469272 C7.68661994,18.469272 7.55564127,18.3313099 7.55564127,18.1588574 L7.55564127,7.21734169 C7.55564127,7.04809751 7.68661994,6.91013543 7.84729725,6.91013543 C8.00797457,6.91013543 8.13895323,7.04809751 8.13895323,7.21734169 L8.13895323,18.1588574 Z" id="Fill-3" fill="#050008"></path>
            <path d="M10.6138408,18.1588574 C10.6138408,18.3313099 10.4828621,18.469272 10.3221848,18.469272 C10.1584615,18.469272 10.0274828,18.3313099 10.0274828,18.1588574 L10.0274828,7.21734169 C10.0274828,7.04809751 10.1584615,6.91013543 10.3221848,6.91013543 C10.4828621,6.91013543 10.6138408,7.04809751 10.6138408,7.21734169 L10.6138408,18.1588574 Z" id="Fill-4" fill="#050008"></path>
            <g id="Group-8" transform="translate(0.000000, 0.802105)">
                <mask id="mask-2" fill="white">
                    <use xlink:href="#path-1"></use>
                </mask>
                <g id="Clip-6"></g>
                <path d="M5.49425033,2.23867533 C5.49425033,2.40791951 5.36327167,2.54909001 5.20259435,2.54909001 C5.04191704,2.54909001 4.91093838,2.40791951 4.91093838,2.23867533 C4.91093838,1.71570281 5.1134984,1.2424608 5.44094506,0.897555606 C5.7645842,0.553452519 6.21691749,0.340092562 6.71341801,0.340092562 L8.98041499,0.340092562 C9.47386949,0.340092562 9.92620278,0.553452519 10.2536494,0.897555606 C10.5810961,1.2424608 10.7828946,1.71891123 10.7828946,2.23867533 C10.7828946,2.40791951 10.651916,2.54909001 10.4912386,2.54909001 C10.3275153,2.54909001 10.1972982,2.40791951 10.1972982,2.23867533 C10.1972982,1.8881554 10.0602275,1.56490705 9.84015285,1.33309868 C9.62007823,1.1012903 9.31319218,0.957713489 8.98041499,0.957713489 L6.71341801,0.957713489 C6.38064082,0.957713489 6.07451627,1.1012903 5.85444166,1.33309868 C5.63360554,1.56490705 5.49425033,1.8881554 5.49425033,2.23867533 Z" id="Fill-5" fill="#050008" mask="url(#mask-2)"></path>
                <path d="M1.0470678,3.12580357 L14.6437192,3.12580357 C14.9323291,3.12580357 15.1942865,3.24772355 15.3846624,3.44824982 L15.3846624,3.45145824 C15.5750384,3.65198452 15.693833,3.92790867 15.693833,4.22869809 L15.693833,5.02438634 C15.693833,5.19363052 15.5636158,5.3315926 15.3998925,5.3315926 L0.291655977,5.3315926 C0.130978663,5.3315926 0,5.19363052 0,5.02438634 L0,4.22869809 C0,3.92790867 0.118794602,3.65198452 0.306124551,3.45145824 L0.309170566,3.44824982 C0.499546531,3.24772355 0.761503858,3.12580357 1.0470678,3.12580357 Z M14.6437192,3.73941397 L1.0470678,3.73941397 C0.919135156,3.73941397 0.80338657,3.79636344 0.719621145,3.88379289 C0.636617225,3.97122235 0.58635797,4.09394443 0.58635797,4.22869809 L0.58635797,4.71718009 L15.1082365,4.71718009 L15.1082365,4.22869809 C15.1082365,4.09394443 15.0549313,3.97122235 14.9711658,3.88379289 C14.8881619,3.79636344 14.7716518,3.73941397 14.6437192,3.73941397 Z" id="Fill-7" fill="#050008" mask="url(#mask-2)"></path>
            </g>
        </g>
    </g>
</svg>