<?xml version="1.0" encoding="UTF-8" standalone="no"?>
<svg width="17px" height="17px" viewBox="0 0 17 17" version="1.1" xmlns="http://www.w3.org/2000/svg" xmlns:xlink="http://www.w3.org/1999/xlink">
    <!-- Generator: sketchtool 47.1 (45422) - http://www.bohemiancoding.com/sketch -->
    <title>CBAB2848-EAA6-44E8-A78D-EFDC5FE02CE9</title>
    <desc>Created with sketchtool.</desc>
    <defs></defs>
    <g id="Page-1" stroke="none" stroke-width="1" fill="none" fill-rule="evenodd">
        <g id="Profile-Draft" transform="translate(-153.000000, -809.000000)" fill="#525252">
            <g id="Group" transform="translate(0.000000, 559.000000)">
                <g id="Group-72-Copy" transform="translate(153.471636, 248.992071)">
                    <g id="003-pen" transform="translate(0.371254, 1.495405)">
                        <path d="M11.0314472,7.3002436 C10.9448964,7.20895798 10.8044133,7.20895798 10.7177484,7.3002436 L4.10895106,14.2614034 L2.06557031,12.108915 L2.97724538,11.1487523 C3.06375802,11.0574666 3.06375802,10.9094933 2.97724538,10.8181676 C2.89054242,10.726882 2.75005928,10.726882 2.66339439,10.8181676 L1.59513639,11.9433821 C1.59498414,11.9435425 1.5948319,11.9437029 1.5948319,11.9437029 L1.58638236,11.9524426 C1.56556299,11.9745323 1.54889228,12.0008315 1.5377404,12.0298168 L0.0303346147,15.938942 C-0.0276703449,16.0739261 -0.00117989091,16.2275521 0.0988824704,16.3329495 C0.163700349,16.4012233 0.247853213,16.4371041 0.333909128,16.4371041 C0.380609971,16.4371041 0.427881729,16.4266005 0.47294595,16.4051522 L4.18404541,14.8171753 C4.21152545,14.8054288 4.23653153,14.7880697 4.25746507,14.76598 L11.0314472,7.63082823 C11.118112,7.53954262 11.118112,7.39156931 11.0314472,7.3002436 Z M0.534186094,15.8743966 L1.82780326,12.5196802 L3.71897809,14.5116471 L0.534186094,15.8743966 Z" id="Fill-1"></path>
                        <path d="M15.2703385,0.352594209 C14.8443978,-0.0960964547 14.1514213,-0.0960964547 13.7252903,0.352594209 L12.776011,1.35248644 L12.5642777,1.12946409 C12.4704954,1.03068158 12.3457314,0.976158771 12.2129747,0.976158771 C12.0803702,0.976158771 11.955454,1.03068158 11.8616336,1.12946409 L3.63840296,9.79117435 C3.5517,9.88245997 3.5517,10.0304734 3.63840296,10.121759 C3.68164025,10.1673417 3.73846532,10.1901931 3.79525233,10.1901931 C3.85203933,10.1901931 3.90882634,10.1673417 3.95225394,10.121759 L10.1914409,3.54991609 L12.2348217,5.70228424 L11.690245,6.27593638 C11.6036942,6.36722199 11.6036942,6.5151953 11.690245,6.60652101 C11.7769098,6.69764627 11.917393,6.69764627 12.0040959,6.60652101 L13.1138024,5.4374477 L13.6865062,6.04068648 C13.7092286,6.06450012 13.7126541,6.09252324 13.7126541,6.10711611 C13.7126541,6.12150853 13.7092286,6.14953165 13.6865062,6.17350565 L9.65573241,10.4189885 C9.56906752,10.5103142 9.56906752,10.6582875 9.65573241,10.7495731 C9.69900777,10.7951558 9.75579478,10.8180073 9.81258178,10.8180073 C9.86940685,10.8180073 9.92619386,10.7951558 9.96946921,10.7495731 L14.0002049,6.50392993 C14.1008382,6.39789108 14.1563311,6.25697366 14.1563311,6.10695575 C14.1563311,5.95705811 14.1008382,5.8161407 14.0002049,5.71010185 L13.4276533,5.10702343 L14.5326022,3.9430015 C14.6265748,3.84401855 14.6781474,3.71264263 14.6781474,3.57280765 C14.6781474,3.43309295 14.6265748,3.30155667 14.5327544,3.20273407 L14.3210591,2.97975181 L15.2703385,1.97981949 C15.6962791,1.53116892 15.6962791,0.801244782 15.2703385,0.352594209 Z M12.5485204,5.37185997 L10.5051397,3.21933146 L11.3218145,2.35911384 L13.3651953,4.51148199 L12.5485204,5.37185997 Z M14.2189034,3.61241687 L13.6790462,4.18105772 L11.6355132,2.02868957 L12.1753704,1.46008881 C12.1882731,1.44645811 12.2030027,1.4436117 12.2129747,1.4436117 C12.2230989,1.4436117 12.2376382,1.44645811 12.250579,1.46008881 L14.2189034,3.5333187 C14.2316919,3.54678905 14.2343562,3.56230399 14.2343562,3.57280765 C14.2345084,3.58343158 14.2318442,3.59878617 14.2189034,3.61241687 Z M14.9566397,1.64939522 L14.0072082,2.64932754 L13.089862,1.68291071 L14.0391413,0.683018481 C14.2920567,0.416618422 14.7037244,0.416618422 14.9564875,0.683018481 C15.209517,0.949378449 15.209517,1.38287489 14.9566397,1.64939522 Z" id="Fill-3"></path>
                    </g>
                </g>
            </g>
        </g>
    </g>
</svg>