<?xml version="1.0" encoding="UTF-8"?>
<svg width="20px" height="20px" viewBox="0 0 20 20" version="1.1" xmlns="http://www.w3.org/2000/svg" xmlns:xlink="http://www.w3.org/1999/xlink">
    <!-- Generator: sketchtool 49.1 (51147) - http://www.bohemiancoding.com/sketch -->
    <title>0227AFEE-B4D5-480D-AC07-06FEA81C1539</title>
    <desc>Created with sketchtool.</desc>
    <defs></defs>
    <g id="Symbols" stroke="none" stroke-width="1" fill="none" fill-rule="evenodd" stroke-linecap="round" stroke-linejoin="round">
        <g id="share" stroke="#616770" stroke-width="1.5">
            <g id="Group" transform="translate(3.000000, 3.000000)">
                <path d="M14.0402891,8.54407086 L14.0402891,12.4612179 C14.0402891,13.5657874 13.1448586,14.4612179 12.0402891,14.4612179 L2,14.4612179 C0.8954305,14.4612179 1.11632554e-15,13.5657874 0,12.4612179 L0,2.92712196 C-1.3527075e-16,1.82255246 0.8954305,0.92712196 2,0.92712196 L7.63085566,0.92712196" id="Rectangle" fill="#FFFFFF"></path>
                <path d="M6.39446329,11.2030614 C4.93906792,9.76577284 4.67816122,6.58209805 6.10380209,4.82961851 C7.05422933,3.66129881 8.64534869,2.99970025 10.8771602,2.84482281 L10.8771602,0.534456614 L14.7535885,4.23269014 L10.8771602,8.13631083 L10.8771602,5.67801581 C7.66465532,5.7627846 6.17042303,7.60446646 6.39446329,11.2030614 Z" id="Path-8"></path>
            </g>
        </g>
    </g>
</svg>