<?xml version="1.0" encoding="UTF-8"?>
<svg width="42px" height="42px" viewBox="0 0 42 42" version="1.1" xmlns="http://www.w3.org/2000/svg" xmlns:xlink="http://www.w3.org/1999/xlink">
    <!-- Generator: sketchtool 50.2 (55047) - http://www.bohemiancoding.com/sketch -->
    <title>54870A4F-3E5B-4E9A-8EC0-3BA545F7714C</title>
    <desc>Created with sketchtool.</desc>
    <defs></defs>
    <g id="Page-1" stroke="none" stroke-width="1" fill="none" fill-rule="evenodd">
        <g id="tulis-opsi" transform="translate(-258.000000, -451.000000)">
            <g id="Group-5" transform="translate(258.000000, 451.000000)">
                <circle id="Oval-2" fill="#623FAA" cx="21" cy="21" r="21"></circle>
                <g id="pdf" transform="translate(9.000000, 9.000000)">
                    <g id="Group-5" transform="translate(4.000000, 4.000000)">
                        <path d="M14.3298888,16 L4.75,16 C3.78350169,16 3,15.1045695 3,14 L3,2 C3,0.8954305 3.78350169,0 4.75,0 L15.25,0 C16.2164983,0 17,0.8954305 17,2 L17,14.6488247" id="Rectangle-8" stroke="#FFFFFF" stroke-width="2" stroke-linecap="round" stroke-linejoin="round"></path>
                        <rect id="Rectangle" fill="#FFFFFF" x="0" y="6" width="14" height="7" rx="1"></rect>
                        <path d="M3,11 L3,8 L4.13739546,8 C4.30625333,8 4.4671438,8.01615368 4.62007168,8.04846154 C4.77299957,8.08076939 4.90680946,8.13615345 5.02150538,8.21461538 C5.13620129,8.29307732 5.22779735,8.39615321 5.2962963,8.52384615 C5.36479524,8.6515391 5.39904421,8.80922983 5.39904421,8.99692308 C5.39904421,9.18153938 5.36479524,9.33999934 5.2962963,9.47230769 C5.22779735,9.60461605 5.13620129,9.7130765 5.02150538,9.79769231 C4.90680946,9.88230812 4.77459254,9.94538441 4.62485066,9.98692308 C4.47510877,10.0284617 4.31899723,10.0492308 4.15651135,10.0492308 L3.82198327,10.0492308 L3.82198327,11 L3,11 Z M3.82198327,9.42153846 L4.11827957,9.42153846 C4.28076545,9.42153846 4.40103505,9.38461575 4.479092,9.31076923 C4.55714894,9.23692271 4.59617682,9.13230837 4.59617682,8.99692308 C4.59617682,8.86153778 4.5531665,8.76615412 4.46714456,8.71076923 C4.38112263,8.65538434 4.25846356,8.62769231 4.09916368,8.62769231 L3.82198327,8.62769231 L3.82198327,9.42153846 Z M5.90561529,11 L5.90561529,8 L6.82317802,8 C7.05894184,8 7.27478994,8.02769203 7.47072879,8.08307692 C7.66666765,8.13846182 7.8347265,8.22615325 7.97491039,8.34615385 C8.11509429,8.46615445 8.22421307,8.61999906 8.30227001,8.80769231 C8.38032695,8.99538555 8.41935484,9.22153714 8.41935484,9.48615385 C8.41935484,9.75077055 8.38112344,9.97846058 8.3046595,10.1692308 C8.22819556,10.360001 8.12066975,10.5169225 7.98207885,10.64 C7.84348796,10.7630775 7.67941154,10.8538459 7.48984468,10.9123077 C7.30027783,10.9707695 7.09398757,11 6.87096774,11 L5.90561529,11 Z M6.72759857,10.3630769 L6.77538829,10.3630769 C6.88689821,10.3630769 6.99203455,10.3500001 7.09080048,10.3238462 C7.1895664,10.2976922 7.27479056,10.252308 7.34647551,10.1876923 C7.41816045,10.1230766 7.47471106,10.0338467 7.51612903,9.92 C7.557547,9.80615328 7.57825568,9.66153934 7.57825568,9.48615385 C7.57825568,9.31076835 7.557547,9.16769286 7.51612903,9.05692308 C7.47471106,8.94615329 7.41816045,8.86000031 7.34647551,8.79846154 C7.27479056,8.73692277 7.1895664,8.6946155 7.09080048,8.67153846 C6.99203455,8.64846142 6.88689821,8.63692308 6.77538829,8.63692308 L6.72759857,8.63692308 L6.72759857,10.3630769 Z M8.97371565,11 L8.97371565,8 L11,8 L11,8.66461538 L9.79569892,8.66461538 L9.79569892,9.23692308 L10.827957,9.23692308 L10.827957,9.90153846 L9.79569892,9.90153846 L9.79569892,11 L8.97371565,11 Z" id="PDF" fill="#623FAA"></path>
                    </g>
                </g>
            </g>
        </g>
    </g>
</svg>