<?xml version="1.0" encoding="UTF-8" standalone="no"?>
<svg width="21px" height="20px" viewBox="0 0 21 20" version="1.1" xmlns="http://www.w3.org/2000/svg" xmlns:xlink="http://www.w3.org/1999/xlink">
    <!-- Generator: sketchtool 47.1 (45422) - http://www.bohemiancoding.com/sketch -->
    <title>491128DD-0D58-4749-A39A-C6D57338C16B</title>
    <desc>Created with sketchtool.</desc>
    <defs></defs>
    <g id="Page-1" stroke="none" stroke-width="1" fill="none" fill-rule="evenodd">
        <g id="Artboard" transform="translate(-271.000000, -126.000000)" fill="#7554BD">
            <g id="Group-3" transform="translate(270.944981, 126.091544)">
                <path d="M11.8848862,9.20900218 C11.9419912,9.32061011 12.0558227,9.38528499 12.1733446,9.38528499 C12.2223594,9.38528499 12.2727935,9.37402484 12.3195373,9.34999058 C12.3386038,9.34038633 14.2397235,8.37475778 15.1772963,8.07849292 C15.3472866,8.02455776 15.4415785,7.84307069 15.3875961,7.67322226 C15.3339921,7.50318458 15.1538298,7.4085615 14.9822781,7.46235472 C13.994697,7.77470551 12.1064461,8.73385238 12.0264423,8.77449299 C11.8675228,8.85525379 11.8041254,9.04970423 11.8848862,9.20900218 Z" id="Fill-1"></path>
                <path d="M12.1733446,5.50966549 C12.2223594,5.50966549 12.2727935,5.49816879 12.3195373,5.47432377 C12.3386038,5.46471953 14.2397235,4.49890173 15.1772963,4.20282611 C15.3472866,4.14889095 15.4415785,3.96740388 15.3875961,3.7973662 C15.3339921,3.62751777 15.1538298,3.53289469 14.9822781,3.58649867 C13.994697,3.89884946 12.1064461,4.85818557 12.0264423,4.89882619 C11.8675228,4.97958699 11.8041254,5.17403742 11.8848862,5.33314613 C11.9419912,5.4449433 12.0558227,5.50966549 12.1733446,5.50966549 Z" id="Fill-2"></path>
                <path d="M19.924489,4.86353178 C19.7459825,4.86353178 19.6014458,5.00825778 19.6014458,5.18657498 L19.6014458,17.7827523 C19.6014458,18.3170415 19.1667947,18.7516927 18.6326947,18.7516927 L10.8811718,18.7516927 L10.8811718,18.0085703 C11.3520636,17.8439261 12.5786626,17.459851 13.7878509,17.459851 C16.601421,17.459851 18.5118137,18.0828494 18.5308329,18.0893311 C18.6280581,18.1215029 18.7365435,18.105417 18.8215623,18.0446217 C18.9058242,17.9840156 18.9555486,17.8864119 18.9555486,17.7827523 L18.9555486,3.57173747 C18.9555486,3.42015129 18.8505643,3.28914563 18.7027157,3.25645336 C18.7027157,3.25645336 18.4495517,3.19986876 18.0166984,3.12043268 C17.8418823,3.08807158 17.6729801,3.20450529 17.640619,3.37951068 C17.6084471,3.55527305 17.7243604,3.72346558 17.8997443,3.75577936 C18.0647669,3.78610606 18.2030113,3.81288439 18.3096515,3.83412727 L18.3096515,17.3535893 C17.5777892,17.1615991 15.9525432,16.8137646 13.7878509,16.8137646 C12.3807111,16.8137646 10.9983152,17.2759984 10.5706662,17.4326942 C10.1905179,17.2646909 9.04136792,16.8137646 7.65121292,16.8137646 C5.42648233,16.8137646 3.59391711,17.1808076 2.80660575,17.3671204 L2.80660575,3.82158971 C3.45160399,3.66300143 5.35641394,3.24864695 7.65121292,3.24864695 C8.82884448,3.24864695 9.83885125,3.6153114 10.2350854,3.78090179 L10.2350854,16.4909107 C10.2350854,16.6071551 10.2977259,16.7146943 10.3988307,16.7717993 C10.4998881,16.8292828 10.6246486,16.8278162 10.7244287,16.7675886 C10.7564113,16.748522 13.956422,14.8372304 16.7967703,13.8906211 C16.9289115,13.8462902 17.0176206,13.7231855 17.0176206,13.5840423 L17.0176206,0.341778571 C17.0176206,0.235895343 16.9656725,0.136824976 16.8784774,0.0764081385 C16.7919445,0.0159439893 16.6807151,0.0020817078 16.5809351,0.0392685789 C13.9968733,1.00858743 11.3820118,2.63563132 11.3557539,2.65190649 C11.2045935,2.74652957 11.1585594,2.94575847 11.2531825,3.09691884 C11.347427,3.24812653 11.5466559,3.29430259 11.6981948,3.19967951 C11.7220398,3.18435057 13.9968733,1.76907314 16.3717234,0.814136995 L16.3717234,13.3528308 C14.166911,14.118852 11.8651099,15.3698637 10.8809826,15.9298431 L10.8809826,3.57173747 C10.8809826,3.44920058 10.8118604,3.33754534 10.7024761,3.28266395 C10.6468377,3.25512863 9.32320277,2.6027498 7.65121292,2.6027498 C4.73270589,2.6027498 2.489098,3.23426425 2.39466417,3.26123182 C2.2562306,3.30059503 2.16051935,3.4275792 2.16051935,3.57173747 L2.16051935,17.7827523 C2.16051935,17.8838098 2.20835132,17.9795683 2.28878094,18.0405529 C2.34569672,18.0836064 2.4140619,18.1057955 2.48356255,18.1057955 C2.51332151,18.1057955 2.54308047,18.1015375 2.57208245,18.0932106 C2.59427156,18.0871075 4.82770747,17.459851 7.65121292,17.459851 C8.83196704,17.459851 9.8410749,17.8274617 10.2350854,17.9924844 L10.2350854,18.7516927 L2.48356255,18.7516927 C1.94927332,18.7516927 1.51457488,18.3170415 1.51457488,17.7827523 L1.51457488,5.18657498 C1.51457488,5.00825778 1.36989619,4.86353178 1.19172093,4.86353178 C1.01340373,4.86353178 0.868677729,5.00825778 0.868677729,5.18657498 L0.868677729,17.7827523 C0.868677729,18.6733448 1.59311204,19.3977791 2.48356255,19.3977791 L18.6326947,19.3977791 C19.5230979,19.3977791 20.2475795,18.6733448 20.2475795,17.7827523 L20.2475795,5.18657498 C20.2475795,5.00825778 20.1030427,4.86353178 19.924489,4.86353178 Z" id="Fill-4"></path>
                <path d="M11.8848862,7.27107416 C11.9419912,7.38287133 12.0558227,7.44740427 12.1733446,7.44740427 C12.2223594,7.44740427 12.2727935,7.43609681 12.3195373,7.4122518 C12.3386038,7.40245831 14.2397235,6.43682976 15.1772963,6.14056489 C15.3472866,6.08662973 15.4415785,5.90514266 15.3875961,5.73529423 C15.3339921,5.5654458 15.1538298,5.47082272 14.9822781,5.52442669 C13.994697,5.83677749 12.1064461,6.79592435 12.0264423,6.83656497 C11.8675228,6.91732577 11.8041254,7.11196545 11.8848862,7.27107416 Z" id="Fill-6"></path>
                <path d="M11.8848862,11.146741 C11.9419912,11.2585381 12.0558227,11.323213 12.1733446,11.323213 C12.2223594,11.323213 12.2727935,11.3117636 12.3195373,11.2879186 C12.3386038,11.2783144 14.2397235,10.3124966 15.1772963,10.0164209 C15.3472866,9.96248578 15.4415785,9.78099871 15.3875961,9.61115028 C15.3339921,9.4411126 15.1538298,9.34648952 14.9822781,9.4000935 C13.994697,9.71244429 12.1064461,10.6717804 12.0264423,10.712421 C11.8675228,10.7931818 11.8041254,10.9876323 11.8848862,11.146741 Z" id="Fill-7"></path>
                <path d="M8.69391197,6.01268179 C6.69944665,5.54477066 4.43312922,6.14094338 4.33774915,6.1664443 C4.16572439,6.21266768 4.0632949,6.38970746 4.10951828,6.56215803 C4.14831374,6.70645823 4.27860973,6.8014598 4.42111209,6.8014598 C4.4490259,6.8014598 4.47712895,6.79795875 4.50518469,6.79057815 C4.52680607,6.78428571 6.70886165,6.21044404 8.54663114,6.64159411 C8.7194602,6.68190354 8.8940871,6.5743171 8.93491696,6.40063643 C8.97560488,6.22723963 8.86763994,6.05355897 8.69391197,6.01268179 Z" id="Fill-8"></path>
                <path d="M8.69391197,7.95060982 C6.69944665,7.48302986 4.43312922,8.07887141 4.33774915,8.10437233 C4.16572439,8.1505957 4.0632949,8.32763549 4.10951828,8.50008606 C4.14831374,8.64438626 4.27860973,8.73938783 4.42111209,8.73938783 C4.4490259,8.73938783 4.47712895,8.73588678 4.50518469,8.72831693 C4.52680607,8.72221374 6.70886165,8.14837206 8.54663114,8.57952213 C8.7194602,8.61983157 8.8940871,8.51224512 8.93491696,8.33851714 C8.97560488,8.16516766 8.86763994,7.99129775 8.69391197,7.95060982 Z" id="Fill-9"></path>
                <path d="M11.8848862,13.084669 C11.9419912,13.1964662 12.0558227,13.2609518 12.1733446,13.2609518 C12.2223594,13.2609518 12.2727935,13.2496916 12.3195373,13.2258466 C12.3386038,13.2162424 14.2397235,12.2504246 15.1772963,11.9541597 C15.3472866,11.9004138 15.4415785,11.7187375 15.3875961,11.5488891 C15.3339921,11.3790406 15.1538298,11.2844175 14.9822781,11.3380215 C13.994697,11.650325 12.1064461,12.6097084 12.0264423,12.650349 C11.8675228,12.7311098 11.8041254,12.9255603 11.8848862,13.084669 Z" id="Fill-10"></path>
                <path d="M8.69391197,9.88853785 C6.69944665,9.42076864 4.43312922,10.0164209 4.33774915,10.0423004 C4.16572439,10.0885237 4.0632949,10.2653743 4.10951828,10.4379668 C4.14831374,10.5823143 4.27860973,10.6775051 4.42111209,10.6775051 C4.4490259,10.6775051 4.47712895,10.6736256 4.50518469,10.666245 C4.52680607,10.6601418 6.70886165,10.0861108 8.54663114,10.5172609 C8.7194602,10.5577596 8.8940871,10.4501731 8.93491696,10.2764452 C8.97560488,10.1029064 8.86763994,9.92922577 8.69391197,9.88853785 Z" id="Fill-11"></path>
                <path d="M8.69391197,13.7642047 C6.69944665,13.2962935 4.43312922,13.8924662 4.33774915,13.9179672 C4.16572439,13.9641905 4.0632949,14.1412303 4.10951828,14.3136336 C4.14831374,14.4579811 4.27860973,14.5533612 4.42111209,14.5533612 C4.4490259,14.5533612 4.47712895,14.5494816 4.50518469,14.542101 C4.52680607,14.5358086 6.70886165,13.9619669 8.54663114,14.393117 C8.7194602,14.4332372 8.8940871,14.32584 8.93491696,14.152112 C8.97560488,13.9787625 8.86763994,13.8050345 8.69391197,13.7642047 Z" id="Fill-12"></path>
                <path d="M8.69391197,11.8264659 C6.69944665,11.3583655 4.43312922,11.954349 4.33774915,11.9802284 C4.16572439,12.0262625 4.0632949,12.2033023 4.10951828,12.3757529 C4.14831374,12.5200531 4.27860973,12.6154331 4.42111209,12.6154331 C4.4490259,12.6154331 4.47712895,12.6115536 4.50518469,12.604173 C4.52680607,12.5980698 6.70886165,12.0240389 8.54663114,12.4551889 C8.7194602,12.4956876 8.8940871,12.3881012 8.93491696,12.2141839 C8.97560488,12.0408345 8.86763994,11.8671538 8.69391197,11.8264659 Z" id="Fill-13"></path>
            </g>
        </g>
    </g>
</svg>