<?xml version="1.0" encoding="UTF-8" standalone="no"?>
<svg width="56px" height="37px" viewBox="0 0 56 37" version="1.1" xmlns="http://www.w3.org/2000/svg" xmlns:xlink="http://www.w3.org/1999/xlink">
    <!-- Generator: sketchtool 47.1 (45422) - http://www.bohemiancoding.com/sketch -->
    <title>6E753755-7EB2-482A-8DB0-3090B0175A64</title>
    <desc>Created with sketchtool.</desc>
    <defs></defs>
    <g id="Page-1" stroke="none" stroke-width="1" fill="none" fill-rule="evenodd">
        <g id="Setting-Copy-2" transform="translate(-25.000000, -129.000000)" stroke="#3F3838">
            <g id="Group-4" transform="translate(22.235757, 130.244904)">
                <g id="Group-3" transform="translate(14.369693, 18.691521) rotate(14.000000) translate(-14.369693, -18.691521) translate(1.869693, 13.191521)" stroke-linecap="round" stroke-linejoin="round">
                    <polyline id="Path-25" points="8.30994882 6.79450963 6.54273972 8.93963594 0.203907862 0.401631522 11.4886479 1.35998129 9.30411365 4.40863143 0.288992854 0.421301709 10.8278669 8.53959925 9.33018808 4.49623237"></polyline>
                    <path d="M11.7081962,8.69124266 C14.2886502,10.3560418 16.4966667,10.639201 18.3322458,9.54072024 C21.0856144,7.89299906 20.0801477,5.72401795 17.977725,5.82579973 C15.8753023,5.9275815 14.9796227,9.49428945 20.0993604,10.1841183 C23.5125189,10.6440042 25.0970363,9.12856122 24.8529125,5.63778934" id="Path-26" stroke-dasharray="2"></path>
                </g>
                <g id="Group-2" transform="translate(21.495528, 0.228623)">
                    <path d="M26.6177785,1.29832891 L2.61977036,0 C1.3224333,17.4211473 0.66996268,26.8742844 0.662358513,28.3594113 C0.650952262,30.5871017 0.367035798,32.0937187 7.38014439,32.782557 C12.0555501,33.2417826 17.3144146,33.6864131 23.1567378,34.1164484 L30.2816646,5.50351608 L28.0596773,5.20546578 L26.314273,3.12060148 L26.6177785,1.29832891 Z" id="Path-22" fill="#F5F8FA" stroke-linecap="round" stroke-linejoin="round"></path>
                    <path d="M11.8849829,11.7947182 C12.2507855,11.6105072 12.8253594,11.6105072 13.6087044,11.7947182" id="Path-23" stroke-width="2"></path>
                    <path d="M20.8445826,29.9448969 C10.3150542,29.0096725 4.71157595,28.5290398 4.03414796,28.5029986 C3.01800599,28.4639369 2.74149643,29.0617135 2.79935706,29.5617413 C2.85721769,30.0617691 3.42761151,30.2502828 5.04416283,30.6321629 C6.12186371,30.8867497 11.7959383,31.3489504 22.0663866,32.0187649 L28.4445452,5.43581838 L26.3210119,2.9659854 L20.8445826,29.9448969 Z" id="Path-8" fill="#D5CBEC"></path>
                    <path d="M13.6310342,11.6665617 C13.8194088,11.226549 14.743172,10.7794471 15.7736465,10.4661717 C16.8041211,10.1528962 21.4130038,9.74418058 25.0838573,12.141766 C24.7637932,13.2656841 24.0142482,16.9199653 22.317689,17.4368997 C20.6211298,17.9538341 15.8783249,17.3201998 14.7857008,16.513446 C13.6930766,15.7066921 13.1250807,14.8268704 13.6310342,11.6665617 Z" id="Path-20" fill="#CFE8F3" stroke-linecap="round" stroke-linejoin="round"></path>
                    <path d="M19.1947887,19.7493023 C14.9331489,23.5270856 11.6069043,25.3939087 9.21605487,25.3497715 C6.82520549,25.3056342 5.32685391,23.5372521 4.72100015,20.044625 L19.0351012,19.6644993" id="Path-21" fill="#FFFFFF" stroke-linecap="round" stroke-linejoin="round"></path>
                    <path d="M0.917391558,10.4050775 C1.0962321,9.98733485 1.97324157,9.56286181 2.95156148,9.26544194 C3.92988139,8.96802207 8.19842445,8.90064795 11.6834877,11.1768862 C11.3796228,12.2439202 10.9970923,15.7805347 9.38639972,16.271306 C7.77570716,16.7620772 3.05094185,15.7725723 2.01361788,15.0066501 C0.976293911,14.2407279 0.437045504,13.4054359 0.917391558,10.4050775 Z" id="Path-20-Copy" fill="#CFE8F3" stroke-linecap="round" stroke-linejoin="round" transform="translate(6.211818, 12.759296) scale(-1, 1) rotate(-14.000000) translate(-6.211818, -12.759296) "></path>
                </g>
                <path d="M55.6885057,27.437409 C56.2565837,26.7150042 56.7875052,26.3746605 57.2812703,26.4163777 C58.0219179,26.4789534 58.1372102,27.7303682 57.4626595,28.9081407 C57.0129591,29.6933224 56.6334132,30.2741436 56.324022,30.6506042 C54.2763256,29.6601901 53.2871858,28.6237328 53.3566026,27.5412324 C53.4064585,26.7637694 53.927028,26.2873026 54.7436317,26.6307651 C54.945184,26.7155377 55.260142,26.984419 55.6885057,27.437409 Z" id="Path-24-Copy" stroke-linecap="round" stroke-linejoin="round" transform="translate(55.630830, 28.531783) scale(-1, 1) translate(-55.630830, -28.531783) "></path>
                <path d="M51.699382,24.7293586 C52.6672336,23.4985758 53.5717808,22.9187218 54.4130233,22.9897966 C55.674887,23.0964088 55.8713141,25.2284821 54.7220616,27.2350889 C53.9558933,28.5728268 53.3092496,29.5623894 52.7821303,30.2037768 C49.2934078,28.5163783 47.6081803,26.7505346 47.7264479,24.9062458 C47.8113889,23.5816584 48.698299,22.7698874 50.0895715,23.3550549 C50.4329622,23.4994846 50.9695657,23.9575858 51.699382,24.7293586 Z" id="Path-24" fill="#FFFFFF" stroke-linecap="round" stroke-linejoin="round"></path>
            </g>
        </g>
    </g>
</svg>