<?xml version="1.0" encoding="UTF-8" standalone="no"?>
<svg width="20px" height="20px" viewBox="0 0 20 20" version="1.1" xmlns="http://www.w3.org/2000/svg" xmlns:xlink="http://www.w3.org/1999/xlink">
    <!-- Generator: sketchtool 47.1 (45422) - http://www.bohemiancoding.com/sketch -->
    <title>41D9CB62-76DF-4C7D-9AB2-7ABBD0A76BFD</title>
    <desc>Created with sketchtool.</desc>
    <defs></defs>
    <g id="Symbols" stroke="none" stroke-width="1" fill="none" fill-rule="evenodd" stroke-linecap="round">
        <g id="love-copy" stroke="#EDB6C1" stroke-width="1.2" fill="#EDB6C1">
            <g id="Group" transform="translate(1.000000, 2.500000)">
                <path d="M0.626877969,3.84248593 C3.02781947,-0.00654224902 5.43479844,-0.862298325 7.84781487,1.2752177 C9.14088067,2.42065079 9.5567451,4.29829524 8.88506251,5.97406415 C8.10988592,7.9080384 3.82009443,12.7654636 0.626877969,14.7338583" id="Path-3-Copy" transform="translate(4.914780, 7.432132) scale(-1, 1) translate(-4.914780, -7.432132) "></path>
                <path d="M9.20017933,3.84248593 C11.6011208,-0.00654224902 14.0080998,-0.862298325 16.4211162,1.2752177 C17.714182,2.42065079 18.1300465,4.29829524 17.4583639,5.97406415 C16.6831873,7.9080384 12.3933958,12.7654636 9.20017933,14.7338583 C6.57019545,11.5683095 5.42493331,8.33315262 5.7643929,5.02838778 L6.73859006,2.86627778 C8.03937885,2.78564511 8.89272487,3.08258663 9.29862812,3.75710233" id="Path-3-Copy" stroke-linejoin="round"></path>
            </g>
        </g>
    </g>
</svg>