<?xml version="1.0" encoding="UTF-8" standalone="no"?>
<svg width="28px" height="25px" viewBox="0 0 28 25" version="1.1" xmlns="http://www.w3.org/2000/svg" xmlns:xlink="http://www.w3.org/1999/xlink">
    <!-- Generator: sketchtool 47.1 (45422) - http://www.bohemiancoding.com/sketch -->
    <title>818B29CE-3E68-4CDD-9A4B-B23CE5631AAA</title>
    <desc>Created with sketchtool.</desc>
    <defs></defs>
    <g id="Page-1" stroke="none" stroke-width="1" fill="none" fill-rule="evenodd">
        <g id="Details-Copy" transform="translate(-901.000000, -91.000000)" stroke="#403F3F">
            <g id="Group-10" transform="translate(900.975236, 92.128163)">
                <path d="M0.766430075,6.9761877 L0.766430075,1.68323456 L0.766430075,1.68323456 C0.766430075,0.953930572 1.28568235,0.362712874 1.92621249,0.362712874 L1.92621249,0.362712874 L6.81707165,0.362712874 M20.6089551,0.362712874 L25.8746973,0.362712874 L25.8746973,0.362712874 C26.5152275,0.362712874 27.0344797,0.953930572 27.0344797,1.68323456 L27.0344797,6.9761877 M27.0344797,15.5865605 L27.0344797,21.4910599 L27.0344797,21.4910599 C27.0344797,22.2203639 26.5152275,22.8115816 25.8746973,22.8115816 L20.6089551,22.8115816 M6.81707165,22.8115816 L1.92621249,22.8115816 L1.92621249,22.8115816 C1.28568235,22.8115816 0.766430075,22.2203639 0.766430075,21.4910599 L0.766430075,15.5865605" id="Rectangle" fill="#FFFFFF" stroke-linecap="round" stroke-linejoin="round"></path>
                <g id="Group-5" transform="translate(4.574314, 8.074068)">
                    <circle id="Oval-2" cx="4.61876915" cy="3.60643618" r="3.54586064"></circle>
                    <circle id="Oval-2-Copy" cx="13.993428" cy="3.60643618" r="3.54586064"></circle>
                    <path d="M0.0632708102,3.44313694 L1.07560377,3.44313694" id="Line-2" stroke-linecap="round" stroke-linejoin="round"></path>
                    <path d="M17.5296756,3.44313694 L18.5420086,3.44313694" id="Line-2-Copy-4" stroke-linecap="round" stroke-linejoin="round"></path>
                    <path d="M10.4676719,4.04335733 C10.4676719,3.34868519 9.94524961,2.78554216 9.3008091,2.78554216 C8.65636859,2.78554216 8.13394634,3.34868519 8.13394634,4.04335733" id="Oval-3" stroke-linecap="round" stroke-linejoin="round"></path>
                </g>
            </g>
        </g>
    </g>
</svg>