<svg xmlns="http://www.w3.org/2000/svg" width="26" height="22" viewBox="0 0 26 22">
    <path fill="#FFF" fill-rule="evenodd" stroke="#FFF" stroke-width=".5" d="M24.362 7.605h-5.508l-2.228-3.501a1.91 1.91 0 0 0 .521-1.308A1.926 1.926 0 0 0 15.223.872 1.926 1.926 0 0 0 13.3 2.796c0 1.06.863 1.923 1.924 1.923.207 0 .403-.04.59-.101l1.9 2.987h-9.79l1.901-2.987c.187.06.383.101.59.101a1.926 1.926 0 0 0 1.923-1.923A1.926 1.926 0 0 0 10.413.872 1.926 1.926 0 0 0 8.49 2.796c0 .506.2.964.52 1.308L6.782 7.605H1.275a.48.48 0 1 0 0 .962h.54l1.392 10.755c.09.998.914 1.75 1.916 1.75h15.39a1.909 1.909 0 0 0 1.915-1.731l1.394-10.774h.54a.48.48 0 1 0 0-.962zm-10.149-4.81a1.01 1.01 0 1 1 2.022.002 1.01 1.01 0 0 1-2.022-.001zm-3.8-1.01a1.01 1.01 0 1 1-.001 2.022 1.01 1.01 0 0 1 .001-2.021zM8.99 8.568l.189 4.81H6.983l-.378-4.81H8.99zm3.348 4.81H10.14l-.188-4.81h2.385v4.81zm.962-4.81h2.386l-.189 4.81H13.3v-4.81zM9.215 14.34l.227 5.772H7.51l-.452-5.772h2.157zm.963 0h2.16v5.772h-1.934l-.226-5.772zm3.121 0h2.16l-.227 5.772H13.3v-5.772zm3.122 0h2.157l-.452 5.772h-1.932l.227-5.772zm.038-.962l.188-4.81h2.385l-.378 4.81H16.46zm-10.82-4.81l.378 4.81h-2.61l-.623-4.81H5.64zm-1.476 10.65l-.631-4.878h2.56l.453 5.772H5.123a.962.962 0 0 1-.96-.893zm17.308.02a.957.957 0 0 1-.957.874h-1.422l.452-5.772h2.56l-.633 4.897zm.759-5.86h-2.61l.376-4.81h2.856l-.622 4.81z"/>
</svg>
