<svg xmlns="http://www.w3.org/2000/svg" width="22" height="18" viewBox="0 0 22 18">
    <g fill="none" fill-rule="evenodd" stroke="#616770" stroke-linecap="round" stroke-linejoin="round">
        <path stroke-width="2" d="M3.857 16.182A2.857 2.857 0 0 1 1 13.325V3.857A2.857 2.857 0 0 1 3.857 1h3.564c1.052 0 1.904.853 1.904 1.905v13.277H4.032M16.452 1.28A2.39 2.39 0 0 0 15.327 1h-4.326A1.6 1.6 0 0 0 9.4 2.6v13.582h5.927a2.4 2.4 0 0 0 2.401-2.4v-1.31"/>
        <path stroke-width="1.5" d="M3.857 5.571h2.286M3.857 8.429h3.11M3.857 11.476h3.11M13.988 11.935c-1.164-1.15-1.373-3.697-.232-5.099.76-.935 2.033-1.464 3.819-1.588V3.4l3.1 2.959-3.1 3.122V7.515c-2.57.068-3.766 1.541-3.587 4.42z"/>
    </g>
</svg>
