<svg xmlns="http://www.w3.org/2000/svg" width="117" height="99" viewBox="0 0 117 99">
    <g fill="none" fill-rule="evenodd">
        <path fill="#7661CA" d="M114.651 32.757H87.858l-10.84-17.033c1.563-1.673 2.536-3.9 2.536-6.365 0-5.161-4.198-9.359-9.36-9.359-5.161 0-9.359 4.198-9.359 9.36 0 5.16 4.198 9.359 9.36 9.359 1.006 0 1.958-.202 2.866-.496l9.25 14.534H34.68l9.25-14.534c.907.294 1.86.496 2.865.496 5.162 0 9.36-4.198 9.36-9.36 0-5.161-4.198-9.359-9.36-9.359-5.161 0-9.359 4.198-9.359 9.36 0 2.463.976 4.69 2.534 6.364l-10.84 17.033H2.34A2.338 2.338 0 0 0 0 35.097a2.338 2.338 0 0 0 2.34 2.34h2.623l6.776 52.32a9.313 9.313 0 0 0 9.32 8.515h74.874c4.873 0 8.882-3.659 9.31-8.425l6.785-52.41h2.623a2.338 2.338 0 0 0 2.34-2.34 2.338 2.338 0 0 0-2.34-2.34zM65.281 9.36a4.918 4.918 0 0 1 4.914-4.913 4.916 4.916 0 0 1 4.913 4.913 4.919 4.919 0 0 1-4.913 4.914 4.919 4.919 0 0 1-4.914-4.914zM46.796 4.446a4.918 4.918 0 0 1 4.914 4.913 4.92 4.92 0 0 1-4.914 4.914 4.919 4.919 0 0 1-4.913-4.914 4.919 4.919 0 0 1 4.913-4.913zm-6.928 32.991l.917 23.398H30.106L28.27 37.437h11.598zm16.288 23.398H45.467l-.917-23.398h11.606v23.398zm4.68-23.398H72.44l-.917 23.398H60.835V37.437zM40.967 65.515l1.102 28.078h-9.397l-2.202-28.078h10.497zm4.682 0h10.506v28.078h-9.404L45.65 65.515zm15.185 0h10.506L70.24 93.593h-9.404V65.515zm15.186 0h10.496l-2.2 28.078H74.92l1.102-28.078zm.185-4.68l.917-23.398H88.72l-1.834 23.398H76.206zM23.574 37.437l1.834 23.398H12.71L9.682 37.437h13.892zM16.39 89.25l-3.072-23.735h12.46l2.202 28.078h-6.922c-2.438 0-4.438-1.83-4.668-4.343zm84.201.089a4.653 4.653 0 0 1-4.658 4.254h-6.92l2.2-28.078h12.46l-3.082 23.824zm3.69-28.504h-12.7l1.834-23.398h13.891l-3.025 23.398z"/>
        <g stroke="#0EB739" stroke-linecap="round" stroke-linejoin="round" transform="translate(31 35)">
            <circle cx="26.843" cy="26.843" r="26.843" fill="#FFF" stroke-width="3"/>
            <path stroke-width="4" d="M16 28.93l8.662 7.969L38.567 18"/>
        </g>
    </g>
</svg>
