<?xml version="1.0" encoding="UTF-8"?>
<svg width="26px" height="21px" viewBox="0 0 26 21" version="1.1" xmlns="http://www.w3.org/2000/svg" xmlns:xlink="http://www.w3.org/1999/xlink">
    <!-- Generator: sketchtool 48.2 (47327) - http://www.bohemiancoding.com/sketch -->
    <title>22A09F2C-8AAD-448C-92E2-63FA091B978A</title>
    <desc>Created with sketchtool.</desc>
    <defs></defs>
    <g id="Details-Copy" stroke="none" stroke-width="1" fill="none" fill-rule="evenodd" transform="translate(-893.000000, -349.000000)">
        <path d="M905.455254,354.526064 L905.455254,355.239111 C900.196557,354.303249 897.611787,352.877155 894.759599,349.891309 C893.55637,353.246883 894.937861,355.952158 896.987896,357.467407 C895.606355,357.467407 894.447678,357.289146 893.55637,356.486943 C893.467214,356.44239 893.378108,356.486943 893.422661,356.576099 C894.180261,359.339131 896.765031,361.344563 898.770463,361.923901 C896.943293,361.923901 895.740064,362.191319 894.447678,361.389116 C894.358523,361.344563 894.269417,361.389116 894.31397,361.478272 C895.382204,363.237406 897.255263,365.043457 900.107451,365.043457 C898.681357,366.113027 896.765031,367.182597 893.155293,367.271753 C893.021585,367.271753 892.932429,367.450015 893.066138,367.539121 C894.403076,368.653244 897.700943,369.5 902.335698,369.5 C909.95635,369.5 916.150908,362.726104 916.150908,354.347802 L916.150908,353.902173 C917.035412,353.334588 917.560796,352.806219 918.379204,351.317403 C918.379204,351.2728 918.334602,351.228247 918.290049,351.228247 L915.749831,352.119556 C915.705278,352.119556 915.660725,352.030449 915.705278,351.985896 C916.774849,351.139141 917.577002,350.06957 917.933525,349.044553 C917.933525,349.044553 917.888972,349 917.844419,349 C916.64114,349.490232 915.482464,349.980415 914.591155,350.247832 C914.457446,350.292385 914.279184,350.292385 914.145476,350.203279 C913.566138,349.891309 912.601718,349 910.71395,349 C907.772656,349.044553 905.455254,351.58477 905.455254,354.526064 Z" id="Fill-1" fill="#6DB1D6"></path>
    </g>
</svg>