<svg xmlns="http://www.w3.org/2000/svg" xmlns:xlink="http://www.w3.org/1999/xlink" width="260" height="265" viewBox="0 0 260 265">
    <defs>
        <rect id="a" width="115.45" height="10.423" x="24.698" y="48.569" rx="3"/>
    </defs>
    <g fill="none" fill-rule="evenodd">
        <g transform="translate(-1 1)">
            <g transform="translate(.629)">
                <rect width="222.223" height="25.97" x=".684" y="237.52" fill="#EFEFEF" rx="12.985"/>
                <rect width="231.052" height="25.97" x="29.117" y="185.579" fill="#EFEFEF" rx="12.985"/>
                <rect width="208.765" height="25.97" x="51.405" y="107.669" fill="#EFEFEF" rx="12.985"/>
                <circle cx="70.886" cy="24.177" r="9.552" fill="#FED5A8"/>
                <circle cx="89.172" cy="67.73" r="3.65" stroke="#F4C9BE" stroke-width="3"/>
                <circle cx="132.845" cy="63.674" r="2.599" stroke="#F4C9BE" stroke-width="3"/>
                <circle cx="154" cy="44.315" r="1.788" stroke="#F4C9BE" stroke-width="2"/>
                <circle cx="41.602" cy="86.708" r="1.788" stroke="#F4C9BE" stroke-width="2"/>
                <path stroke="#FED5A8" stroke-linecap="round" stroke-linejoin="round" stroke-width="4" d="M70.886 1.649v6.368M56.18 9.609l4.517 4.49M56.18 40.649l4.517-4.49M82.139 36.16l4.515 4.489M82.139 14.098l4.515-4.49M70.886 41.131V47.5"/>
                <path fill="#EFEFEF" d="M209.871 211.55c-7.171 0-12.985 5.813-12.985 12.985 0 7.171 5.814 12.985 12.985 12.985H51.106c7.171 0 12.985-5.814 12.985-12.985 0-7.172-5.814-12.985-12.985-12.985H209.87zM199.639 133.64c-7.172 0-12.985 5.813-12.985 12.984 0 7.172 5.813 12.985 12.985 12.985H21.285c-7.171 0-12.985-5.813-12.985-12.985 0-7.171 5.814-12.985 12.985-12.985H199.64zM44.025 159.61h177.008c7.172 0 12.985 5.813 12.985 12.984 0 7.172-5.813 12.985-12.985 12.985H44.025c7.171 0 12.985-5.813 12.985-12.985 0-7.171-5.814-12.985-12.985-12.985z"/>
            </g>
            <g stroke="#C5EBF2" stroke-linecap="round" stroke-linejoin="round" stroke-width="4">
                <path d="M67.73 89.405v9.158M63.151 93.984h9.158"/>
            </g>
            <g stroke="#C5EBF2" stroke-linecap="round" stroke-linejoin="round" stroke-width="3">
                <path d="M111.667 45.417v5.77M108.783 48.302h5.769"/>
            </g>
            <g stroke="#C5EBF2" stroke-linecap="round" stroke-linejoin="round" stroke-width="2">
                <path d="M56.724 67.044v3.964M54.742 69.026h3.963"/>
            </g>
            <circle cx="213.024" cy="58.96" r="30.248" fill="#C5EBF2"/>
            <g fill="#FFF">
                <path d="M218.244 70.032c-.156 0-.317-.026-.487-.076-3.033-.9-6.14-1.498-9.127-2.592-2.298-.841-4.673-1.436-6.993-2.214-1.364-.456-2.684-1.07-4.034-1.583-.52-.198-.772-.543-.791-1.13-.023-.729-.076-1.454-.111-2.18-.023-.467-.033-.931-.054-1.559l5.164-3.814c-.219-.165-.349-.304-.505-.377-.95-.436-1.907-.856-2.856-1.29-.138-.064-.258-.175-.508-.351.252-.089.378-.163.508-.172.018-.002.035-.002.052-.002.14 0 .285.033.424.064a9.469 9.469 0 0 0 2.061.227c1.583 0 3.126-.397 4.63-1.099 1.324-.617 2.612-1.328 4.024-2.05 1.534.434 3.192.883 4.837 1.374 1.61.482 3.213 1 4.818 1.512 1.64.524 3.28 1.064 4.921 1.586 1.592.507 3.24.83 4.681 1.531-.001 1.41-.015 2.688 0 3.966.007.506-.17.856-.496 1.241-1.638 1.921-3.483 3.59-5.362 5.22-.813.706-1.571 1.487-2.376 2.204-.494.44-1.033.822-1.546 1.237a1.347 1.347 0 0 1-.874.327m-20.992-7.63c.113.606.42.723.71.834 1.536.59 3.067 1.2 4.617 1.746 1.097.383 2.23.66 3.337 1.016 2.1.672 4.18 1.414 6.294 2.04 1.843.547 3.72.977 5.581 1.446a.449.449 0 0 0 .11.013c.118 0 .258-.033.456-.049-.115-.291-.148-.565-.293-.697-.17-.15-.436-.189-.666-.257-4.002-1.165-8.007-2.314-12.005-3.5-1.729-.51-3.466-.994-5.138-1.703-.665-.28-1.36-.487-2.049-.706-.258-.083-.536-.105-.954-.183m29.965-1.027c-.28 0-.413.276-.59.448-2.289 2.245-4.605 4.452-7.124 6.4-.194.152-.375.329-.541.514-.108.12-.21.272-.01.473.558-.215.993-.658 1.445-1.07 1.351-1.229 2.707-2.451 4.044-3.696a82.906 82.906 0 0 0 2.496-2.443c.158-.158.236-.409.347-.62a.48.48 0 0 0-.067-.006m-29.91-.416c-.193.718-.18.81.296.983.601.22 1.227.368 1.824.6 2.805 1.105 5.694 1.928 8.561 2.812 3.25 1.008 6.539 1.878 9.812 2.8.038.01.078.014.123.014.08 0 .172-.012.286-.012.025-.242.045-.47.061-.641-.402-.094-.742-.148-1.068-.253-.494-.162-.971-.389-1.469-.536-3.032-.895-6.065-1.786-9.104-2.658-1.807-.519-3.634-.945-5.385-1.678-1.287-.543-2.622-.96-3.936-1.43m21.633 6.926l-.028.138.106-.02.019-.078-.097-.04m2.745-3.2l-2.856 2.366c1.136-.333 2.093-1.186 2.856-2.365m-4.99 1.664l-.132.096.088.069c.33.08.624.37 1.002.37.15 0 .313-.046.496-.165-.522-.266-1.02-.247-1.454-.37m11.762-7.72c-2.564 2.63-4.948 5.078-7.438 7.635.225-.069.31-.07.36-.116 2.057-1.798 4.085-3.629 5.97-5.636.335-.36.702-.68 1.096-1.056l.012-.827m-3.896 2.065l-.291.187a1793.56 1793.56 0 0 0-5.023 4.603l-.32.376-.006.361c1.24-.563 4.229-3.402 5.64-5.527m-8.99 5.359l-.016.055.094.012.014-.055-.092-.012m-5.38-2.814c-.03.185.016.322.198.393 1.347.519 2.68 1.075 4.041 1.55 1.011.352 2.055.602 3.085.895-.061-.23-.162-.37-.295-.428-.666-.276-1.333-.557-2.016-.784-1.667-.558-3.343-1.089-5.016-1.63-.299-.03-.597-.055-.895-.085l-.002.101.9-.012m-7.605-8.102c-.298 0-.58.1-.886.338-1.208.938-2.458 1.808-3.687 2.713-.193.14-.365.314-.654.57.41.15.692.271.986.358 1.73.508 3.472.972 5.192 1.517 2.025.641 4.015 1.416 6.052 2.008 2.813.816 5.61 1.668 8.326 2.79.179.074.373.1.562.149 3.183-2.728 6.157-5.642 9.122-8.566l.03-.267c-.394.012-.686.248-.996.42-1.573.87-3.14 1.755-4.718 2.615-1.19.648-2.46 1.052-3.757 1.362-.29.07-.574.106-.853.106-.54 0-1.061-.133-1.585-.416a54.58 54.58 0 0 0-3.81-1.84c-2.872-1.27-5.712-2.614-8.65-3.715a1.93 1.93 0 0 0-.674-.142m10.109 10.09l.232.134.1-.009-.093-.133-.24.009m-15.417-5.12c.276.544.729.64 1.107.783 1.766.663 3.535 1.33 5.331 1.894 1.836.575 3.704 1.04 5.56 1.543 1.103.298 2.211.575 3.32.86l-.134-.257a8.084 8.084 0 0 0-1.006-.407 539.768 539.768 0 0 0-5.155-1.654c-2.408-.762-4.82-1.512-7.232-2.26-.568-.175-1.144-.32-1.79-.502m30.924-2.355c-1.763 1.814-3.459 3.622-5.066 5.533 1.215-.876 3.676-3.426 5.135-5.217.026-.032-.027-.14-.069-.316m-21.007 4.95c.296.03.595.057.893.085l.002-.094-.895.01m-9.84-3.344c.118.245.273.378.45.434.572.182 1.156.322 1.728.5 2.55.798 5.101 1.603 7.655 2.407-.014-.244-.15-.348-.359-.426-2.516-.943-5.042-1.843-7.64-2.504-.608-.154-1.222-.274-1.834-.41m31 .582c-.406.551-.9.81-1.037 1.4.836-.563.93-.679 1.037-1.4m-18.51-9.519c-.356 0-.694.104-1.05.35-1.397.966-2.968 1.52-4.523 2.093-.918.34-1.87.484-2.83.557-.347.026-.693.013-1.316.024.439.236.633.367.846.45.522.202 1.063.358 1.581.573 4.564 1.893 9.122 3.799 13.538 6.054.38.195.753.299 1.15.299.152 0 .308-.016.47-.047 1.387-.276 2.73-.704 3.994-1.384 1.866-1.004 3.716-2.047 5.571-3.077.168-.094.383-.175.281-.514-.158-.057-.341-.13-.529-.19-1.761-.541-3.532-1.046-5.281-1.627a248.368 248.368 0 0 0-11.25-3.46 2.396 2.396 0 0 0-.653-.101m16.47 8.718c-.532.305-.532.305-.636.67.187-.195.33-.348.636-.67"/>
                <path d="M228.126 55.948l-6.708 3.785-3.303 1.255h-1.211l-2.757-1.255-11.815-5.014-3.53-1.626h2.627l2.364-.28 5.938-2.758z"/>
            </g>
            <path stroke="#FED5A8" stroke-linecap="round" stroke-linejoin="round" stroke-width="4" d="M86.834 23.937h6.368M49.568 23.937h6.368"/>
        </g>
        <g transform="translate(73.5 80.083)">
            <path fill="#FAB99C" d="M55.944 77.833h10.248v12.81H55.944z"/>
            <path fill="#4B2329" d="M79.849 71.315c15.631-8.829 26.244-24.137 21.565-41.898-1.56-5.915-5.373-12.169-11.28-12.713C85.31 7.327 75.469.468 65.196.168c-10.268-.3-20.285 3.917-28.74 9.945-8.46 6.033-15.581 13.82-22.632 21.542 2.71.535 5.419 1.074 8.123 1.609-1.022 4.086-2.044 8.172-3.072 12.258 2.266-.727 4.533-1.455 6.799-2.186-1.004 16.1 4.104 15.435 10.782 24.15 1.83 2.384 16.294 3.66 43.393 3.829z"/>
            <path fill="#FAB99C" d="M49.551 25.928l-16.17 6.292c-.399 5.94-1.787 10.056-4.163 12.349-.84.811-.84 4.086 0 9.824-2.743-2.575-5.17-3.218-7.279-1.93-3.164 1.93-6.328 5.975-3.164 13.734 3.164 7.76 12.685 5.244 13.709 2.18 2.488 3.064 11.855 10.422 28.47 10.422 11.076 0 21.315-3.192 30.717-9.576 7.401 4.105 12.544 1.99 15.43-6.347 2.884-8.336.14-11.808-8.231-10.414l-1.966 2.831c-.098-5.565-.777-9.903-2.04-13.014-1.263-3.111-6.183-9.986-14.762-20.626l-30.55 8.507v-4.232z"/>
            <circle cx="41.5" cy="57.5" r="5.5" fill="#FAB597"/>
            <circle cx="81.5" cy="57.5" r="5.5" fill="#FAB597"/>
            <path stroke="#1D1D1D" stroke-linecap="square" stroke-width="3" d="M43.576 40.154h7.95M73.783 40.154H65.83"/>
            <path fill="#2F3130" d="M44.516 46.57a3.377 3.377 0 0 0 .844 2.504c1.135 1.258 2.79.78 3.389-.72.287-.723.28-1.539.08-2.292-.134-.514-.365-1.015-.735-1.4-1.475-1.546-3.435.226-3.578 1.907M68.738 46.57a3.377 3.377 0 0 0 .845 2.504c1.134 1.258 2.79.78 3.388-.72.288-.723.28-1.539.08-2.292-.134-.514-.365-1.015-.735-1.4-1.475-1.546-3.435.226-3.578 1.907"/>
            <path fill="#AAA" d="M47.946 44.519c.05.044.1.091.148.142.279.292.48.648.618 1.027-.111.254-.329.427-.578.427-.363 0-.657-.365-.657-.814 0-.37.198-.682.47-.782zM72.169 44.519c.05.044.098.091.147.142.28.292.48.648.618 1.027-.111.254-.328.427-.578.427-.363 0-.657-.365-.657-.814 0-.37.198-.682.47-.782z"/>
            <path fill="#1A1919" d="M47.477 47.219c0 .783-.424 1.42-.947 1.42-.522 0-.945-.637-.945-1.42 0-.786.423-1.42.945-1.42.523 0 .947.634.947 1.42M71.699 47.219c0 .783-.423 1.42-.947 1.42-.522 0-.945-.637-.945-1.42 0-.786.423-1.42.945-1.42.524 0 .947.634.947 1.42"/>
            <path fill="#4D261D" d="M64.79 72.692a5.361 5.361 0 0 1-1.684.28c-.905.029-1.839-.138-2.709-.388-.74-.21-1.458-.475-2.123-.84-1.451-.79-2.584-2.022-3.41-3.374-.786-1.297-1.525-2.848-1.823-4.297 3.086 1.025 6.016-.336 9.15-1.092 1.958-.462 4.205-.046 5.722-1.265.528.86.598 1.885.63 2.864.016.59.034 1.19.002 1.776-.03.992-.16 1.968-.494 2.903-.54 1.493-1.657 2.877-3.26 3.433z"/>
            <path fill="#C43D67" d="M68.179 68.701c-.407 1.533-1.4 3.01-2.949 3.704a5.361 5.361 0 0 1-1.653.426c-.13-1.437.252-2.919 1.063-4.161a7.227 7.227 0 0 1 1.805-1.897c.376-.284 1.355-1.029 1.973-1.007.057.99.012 1.974-.239 2.935"/>
            <path fill="#EDB6C1" d="M38.143 87.708h46.424v55.67H38.143z"/>
            <path fill="#2E8D9D" d="M55.944 80.913l-2.988.658L55.944 84z"/>
            <path fill="#81D4E8" d="M55.504 95.228l4.871-8.231-7.43-5.45-4.358 5.983z"/>
            <path fill="#2E8D9D" d="M66.192 80.913l2.988.658L66.192 84z"/>
            <path fill="#81D4E8" d="M66.632 95.228l-4.87-8.231 7.428-5.45 4.359 5.983z"/>
            <path fill="#AB9CE8" d="M38.483 97.273H22.846v-9.565h15.637z"/>
            <path stroke="#F9B699" stroke-linejoin="round" stroke-width="4" d="M22.846 92.632H7.739L4.612 65.934"/>
            <path fill="#F9B699" d="M4.814 67.186c2.312 0 1.956-.833 3.456-4.476 1.5-3.642-1.144-4.48-3.456-4.48-2.312 0-4.82.584-4.079 4.074.742 3.49 1.767 4.882 4.08 4.882z"/>
            <path stroke="#F9B699" stroke-linejoin="round" stroke-width="4" d="M90.488 101.908l8.313 7.215-11.217 18.414"/>
            <path fill="#AB9CE8" d="M84.185 88.56l14.05 11.401-7.025 7.475-7.025-5.61z"/>
            <path stroke="#E9A182" stroke-linecap="round" stroke-linejoin="round" d="M57 55.534c.555.442 1.08.553 1.573.331.647.959 2.228.52 2.34-.331.603.437 1.537.412 1.635-.647"/>
            <path fill="#4B2329" d="M48.988 3.266c-6.544 1.939-11.27 2.908-14.18 2.908 2.91 1.454 5.632 2.618 8.167 3.492-.86-1.592-5.1-2.099-12.719-1.519 2.416 4.308 3.934 6.68 4.552 7.117l23.395-2.202-9.215-9.796z"/>
        </g>
        <g transform="translate(50.153 202.756)">
            <use fill="#AB9CE8" xlink:href="#a"/>
            <rect width="111.45" height="6.423" x="26.698" y="50.569" stroke="#9E8EDE" stroke-width="4" rx="3"/>
            <rect width="100.03" height="57.326" x="32.716" y=".64" fill="#AB9CE8" stroke="#9E8EDE" stroke-width="4" rx="3"/>
            <path stroke="#9E8EDE" stroke-linecap="round" stroke-linejoin="round" stroke-width="5" d="M1.047 59.168h161.95"/>
        </g>
        <g fill="#FFF">
            <path d="M149.66 236.386a2.694 2.694 0 0 1-2.69-2.69 2.694 2.694 0 0 1 2.69-2.692 2.694 2.694 0 0 1 2.692 2.691 2.694 2.694 0 0 1-2.691 2.691m-8.172 0a2.694 2.694 0 0 1-2.691-2.69 2.694 2.694 0 0 1 2.691-2.692 2.694 2.694 0 0 1 2.691 2.691 2.694 2.694 0 0 1-2.691 2.691m-8.246 0a2.694 2.694 0 0 1-2.691-2.69 2.694 2.694 0 0 1 2.69-2.692 2.694 2.694 0 0 1 2.692 2.691 2.694 2.694 0 0 1-2.691 2.691m-9.029 0a2.694 2.694 0 0 1-2.69-2.69 2.694 2.694 0 0 1 2.69-2.692 2.694 2.694 0 0 1 2.692 2.691 2.68 2.68 0 0 1-.706 1.815c-.492.538-1.2.876-1.986.876m-8.246 0a2.694 2.694 0 0 1-2.69-2.69 2.694 2.694 0 0 1 2.69-2.692 2.694 2.694 0 0 1 2.691 2.691 2.694 2.694 0 0 1-2.69 2.691m33.692-7.389a4.7 4.7 0 0 0-4.086 2.383 4.7 4.7 0 0 0-4.086-2.383c-1.776 0-3.325.99-4.123 2.448a4.702 4.702 0 0 0-4.123-2.448c-1.103 0-1.983.383-2.691 1.022v-1.868h-.002a1.003 1.003 0 0 0-2.004 0h-.002v3.721a4.706 4.706 0 0 0-4.33-2.875c-1.775 0-3.324.99-4.123 2.448a4.702 4.702 0 0 0-4.123-2.448c-1.102 0-1.982.383-2.69 1.022v-1.868h-.003a1.002 1.002 0 0 0-2.003 0h-.002v5.754c0 .025.004.05.01.074a4.704 4.704 0 0 0 4.688 4.415c1.776 0 3.325-.99 4.123-2.448a4.702 4.702 0 0 0 4.123 2.448c1.112 0 2.011-.39 2.692-1.037v.053h.002a1.003 1.003 0 0 0 2.003 0h.002v-1.891a4.706 4.706 0 0 0 4.33 2.875c1.776 0 3.324-.99 4.123-2.448a4.702 4.702 0 0 0 4.123 2.448 4.7 4.7 0 0 0 4.086-2.383 4.7 4.7 0 0 0 4.086 2.383 4.704 4.704 0 0 0 4.698-4.699 4.704 4.704 0 0 0-4.698-4.698"/>
            <path d="M149.66 232.591a1.104 1.104 0 1 0 0 2.209 1.104 1.104 0 0 0 0-2.209M141.489 232.591a1.104 1.104 0 1 0 0 2.209 1.104 1.104 0 0 0 0-2.209"/>
        </g>
    </g>
</svg>
