<svg xmlns="http://www.w3.org/2000/svg" xmlns:xlink="http://www.w3.org/1999/xlink" width="253" height="265" viewBox="0 0 253 265">
    <defs>
        <rect id="b" width="42.455" height="76.716" x="44.944" y="7.448" rx="5"/>
        <filter id="a" width="107.1%" height="103.9%" x="-3.5%" y="-2%" filterUnits="objectBoundingBox">
            <feOffset in="SourceAlpha" result="shadowOffsetOuter1"/>
            <feGaussianBlur in="shadowOffsetOuter1" result="shadowBlurOuter1" stdDeviation=".5"/>
            <feColorMatrix in="shadowBlurOuter1" values="0 0 0 0 0 0 0 0 0 0 0 0 0 0 0 0 0 0 0.5 0"/>
        </filter>
    </defs>
    <g fill="none" fill-rule="evenodd">
        <g transform="translate(0 1)">
            <g transform="translate(.629)">
                <rect width="222.223" height="25.97" x="5.684" y="237.52" fill="#EFEFEF" rx="12.985"/>
                <rect width="231.052" height="25.97" x="21.117" y="185.579" fill="#EFEFEF" rx="12.985"/>
                <rect width="208.765" height="25.97" x="43.405" y="107.669" fill="#EFEFEF" rx="12.985"/>
                <circle cx="62.886" cy="24.177" r="9.552" fill="#FED5A8"/>
                <circle cx="81.172" cy="67.73" r="3.65" stroke="#F4C9BE" stroke-width="3"/>
                <circle cx="124.845" cy="63.674" r="2.599" stroke="#F4C9BE" stroke-width="3"/>
                <circle cx="146" cy="44.315" r="1.788" stroke="#F4C9BE" stroke-width="2"/>
                <circle cx="33.602" cy="86.708" r="1.788" stroke="#F4C9BE" stroke-width="2"/>
                <path stroke="#FED5A8" stroke-linecap="round" stroke-linejoin="round" stroke-width="4" d="M62.886 1.649v6.368M48.18 9.609l4.517 4.49M48.18 40.649l4.517-4.49M74.139 36.16l4.515 4.489M74.139 14.098l4.515-4.49M62.886 41.131V47.5"/>
                <path fill="#EFEFEF" d="M201.871 211.55c-7.171 0-12.985 5.813-12.985 12.985 0 7.171 5.814 12.985 12.985 12.985H43.106c7.171 0 12.985-5.814 12.985-12.985 0-7.172-5.814-12.985-12.985-12.985H201.87zM191.639 133.64c-7.172 0-12.985 5.813-12.985 12.984 0 7.172 5.813 12.985 12.985 12.985H13.285C6.114 159.61.3 153.796.3 146.624c0-7.171 5.814-12.985 12.985-12.985H191.64z"/>
                <path fill="#EFEFEF" d="M36.025 159.61h177.008c7.172 0 12.985 5.813 12.985 12.984 0 7.172-5.813 12.985-12.985 12.985H36.025c7.171 0 12.985-5.813 12.985-12.985 0-7.171-5.814-12.985-12.985-12.985z"/>
            </g>
            <g stroke="#C5EBF2" stroke-linecap="round" stroke-linejoin="round" stroke-width="4">
                <path d="M59.73 89.405v9.158M55.151 93.984h9.158"/>
            </g>
            <g stroke="#C5EBF2" stroke-linecap="round" stroke-linejoin="round" stroke-width="3">
                <path d="M103.667 45.417v5.77M100.783 48.302h5.769"/>
            </g>
            <g stroke="#C5EBF2" stroke-linecap="round" stroke-linejoin="round" stroke-width="2">
                <path d="M48.724 67.044v3.964M46.742 69.026h3.963"/>
            </g>
            <circle cx="205.024" cy="58.96" r="30.248" fill="#C5EBF2"/>
            <g fill="#FFF">
                <path d="M213.05 75.175c-.235 0-.479-.04-.736-.115-4.587-1.361-9.287-2.266-13.806-3.921-3.475-1.272-7.068-2.172-10.577-3.35-2.064-.689-4.06-1.617-6.103-2.394-.787-.299-1.167-.82-1.196-1.71-.034-1.101-.115-2.198-.168-3.296-.034-.706-.05-1.409-.081-2.358l7.81-5.77c-.33-.25-.527-.459-.763-.57-1.437-.66-2.885-1.295-4.32-1.95-.21-.098-.39-.265-.768-.533.38-.134.572-.246.768-.26.027-.002.053-.002.08-.002.212 0 .43.05.64.097 1.048.233 2.09.343 3.117.343 2.395 0 4.73-.6 7.003-1.662 2.004-.934 3.952-2.01 6.087-3.1 2.321.655 4.829 1.335 7.317 2.077 2.437.729 4.86 1.513 7.289 2.287 2.48.792 4.96 1.61 7.443 2.4 2.408.765 4.902 1.256 7.081 2.315-.002 2.133-.023 4.066 0 5.998.01.766-.257 1.296-.75 1.878-2.478 2.906-5.269 5.43-8.112 7.897-1.23 1.068-2.376 2.248-3.593 3.334-.747.666-1.563 1.243-2.34 1.87-.419.34-.854.495-1.321.495m-31.753-11.542c.17.918.635 1.093 1.073 1.261 2.324.895 4.64 1.815 6.984 2.641 1.66.58 3.373 1 5.049 1.537 3.176 1.018 6.323 2.14 9.52 3.087 2.788.826 5.626 1.477 8.442 2.187a.68.68 0 0 0 .166.019c.178 0 .39-.05.69-.074-.174-.44-.224-.855-.444-1.054-.257-.228-.658-.286-1.007-.388-6.053-1.763-12.111-3.501-18.16-5.295-2.614-.771-5.242-1.503-7.77-2.576-1.007-.425-2.06-.737-3.1-1.067-.391-.126-.81-.16-1.443-.278m45.325-1.553c-.422 0-.624.417-.891.677-3.462 3.396-6.966 6.735-10.777 9.683a6.348 6.348 0 0 0-.818.776c-.163.181-.318.412-.016.716.844-.325 1.503-.997 2.187-1.618 2.043-1.86 4.094-3.709 6.116-5.592a125.407 125.407 0 0 0 3.777-3.695c.239-.239.357-.619.525-.939a.726.726 0 0 0-.103-.008m-45.24-.63c-.295 1.087-.274 1.226.445 1.488.91.333 1.857.556 2.759.907 4.244 1.67 8.613 2.917 12.95 4.254 4.916 1.524 9.89 2.84 14.842 4.236a.699.699 0 0 0 .187.02c.12 0 .26-.018.432-.018.037-.367.069-.71.092-.97-.608-.142-1.122-.223-1.615-.383-.748-.244-1.469-.587-2.222-.81a1923.492 1923.492 0 0 0-13.771-4.02c-2.733-.785-5.498-1.43-8.146-2.54-1.946-.82-3.966-1.45-5.954-2.163m32.723 10.477l-.042.21.16-.031.03-.118-.148-.06m4.152-4.84c-1.44 1.191-2.88 2.385-4.32 3.578 1.718-.504 3.166-1.794 4.32-3.577m-7.548 2.517l-.2.145.134.104c.499.121.944.56 1.516.56.226 0 .472-.07.75-.25-.79-.401-1.542-.372-2.2-.559M228.5 57.93c-3.879 3.978-7.485 7.681-11.251 11.55.34-.105.47-.108.545-.176 3.11-2.72 6.18-5.49 9.03-8.526.506-.543 1.062-1.028 1.658-1.597.002-.231.008-.549.018-1.251m-5.893 3.123l-.44.283c-2.537 2.316-5.07 4.637-7.599 6.964l-.485.569-.008.545c1.876-.852 6.397-5.145 8.532-8.36m-13.599 8.106l-.023.084.141.018.021-.084-.139-.018m-8.138-4.257c-.044.28.024.488.3.596 2.037.784 4.054 1.626 6.113 2.344 1.529.533 3.108.91 4.665 1.354-.091-.35-.244-.562-.445-.648-1.008-.417-2.017-.842-3.05-1.186-2.521-.844-5.057-1.647-7.588-2.465-.451-.045-.902-.084-1.353-.129l-.003.153c.454-.008.907-.014 1.361-.019m-11.503-12.256c-.45 0-.878.153-1.34.512-1.828 1.419-3.719 2.735-5.578 4.104-.292.213-.551.475-.99.863.62.226 1.047.41 1.493.54 2.618.769 5.25 1.472 7.852 2.295 3.064.97 6.074 2.143 9.156 3.037 4.254 1.236 8.484 2.523 12.594 4.22.27.113.564.152.85.226 4.815-4.126 9.313-8.534 13.798-12.956l.044-.404c-.595.018-1.036.375-1.505.635-2.379 1.316-4.75 2.654-7.136 3.955-1.802.98-3.722 1.592-5.684 2.061-.438.105-.868.16-1.29.16-.816 0-1.605-.202-2.397-.63-1.883-1.012-3.816-1.922-5.765-2.782-4.343-1.923-8.639-3.955-13.082-5.62-.364-.137-.697-.216-1.02-.216m15.29 15.264l.352.202.152-.013-.142-.202-.362.013m-23.32-7.744c.417.823 1.101.967 1.673 1.185 2.672 1.002 5.347 2.012 8.065 2.864 2.777.87 5.602 1.574 8.41 2.334 1.668.451 3.344.871 5.023 1.301l-.205-.388a12.229 12.229 0 0 0-1.52-.616 816.477 816.477 0 0 0-7.798-2.502 2027.75 2027.75 0 0 0-10.94-3.418c-.86-.265-1.73-.485-2.708-.76m46.778-3.562c-2.668 2.743-5.233 5.479-7.664 8.369 1.839-1.324 5.56-5.182 7.768-7.892.04-.047-.042-.21-.104-.477m-31.777 7.488c.449.044.9.086 1.35.128l.004-.141c-.452.005-.903.01-1.354.013m-14.883-5.057c.178.37.411.572.679.656.865.275 1.75.488 2.615.758 3.858 1.206 7.716 2.423 11.579 3.64-.021-.37-.226-.527-.543-.645-3.806-1.427-7.627-2.788-11.558-3.787-.918-.234-1.847-.415-2.772-.622m46.89.882c-.613.834-1.36 1.224-1.568 2.119 1.264-.853 1.406-1.028 1.568-2.12m-28-14.398c-.537 0-1.048.157-1.586.53-2.114 1.46-4.49 2.297-6.843 3.165-1.387.514-2.827.732-4.28.842-.524.04-1.049.021-1.99.037.663.357.957.556 1.28.682.789.304 1.607.54 2.391.865 6.903 2.864 13.798 5.747 20.478 9.159.575.293 1.138.45 1.739.45.23 0 .467-.023.71-.07 2.099-.417 4.131-1.065 6.043-2.093 2.822-1.518 5.62-3.097 8.427-4.655.254-.142.58-.265.425-.776-.239-.087-.517-.197-.8-.289-2.665-.818-5.342-1.581-7.989-2.46a375.692 375.692 0 0 0-17.018-5.235 3.625 3.625 0 0 0-.986-.152m24.912 13.187c-.805.461-.805.461-.962 1.015.283-.297.5-.527.962-1.015"/>
                <path d="M227.998 53.87l-10.145 5.726-4.997 1.898h-1.833l-4.17-1.898-17.871-7.585-5.34-2.46h3.973l3.577-.421 8.982-4.173z"/>
            </g>
            <path stroke="#FED5A8" stroke-linecap="round" stroke-linejoin="round" stroke-width="4" d="M78.834 23.937h6.368M41.568 23.937h6.368"/>
        </g>
        <g transform="translate(43.93 127.877)">
            <path fill="#F0C0A8" d="M59.696 103.495l5.181 2.687L89.99 79.759l4.79-15.307c3.604-4.99 4.359-8.62 2.264-10.886-2.094-2.267-4.955-1.449-8.582 2.454l7.503-12.31c.367-2.2-.028-3.663-1.184-4.386-1.734-1.085-3.94-1.362-7.266 4.386-2.217 3.832-4.21 6.731-5.976 8.698l-25.25 27.35 3.408 23.737z"/>
            <path fill="#FACCB4" d="M64.307 106.476L40.009 86.87l12.149-10.96 6.75 8.617z"/>
            <use fill="#000" filter="url(#a)" xlink:href="#b"/>
            <use fill="#FFF" xlink:href="#b"/>
            <path fill="#DFE7EB" d="M48.296 17.131h35.751v56.606H48.296z"/>
            <rect width="29.993" height="9.697" x="50.803" y="46.333" fill="#514484" rx="4.849"/>
            <text fill="#FFF" font-family="SourceSansPro-Bold, Source Sans Pro" font-size="6" font-weight="bold">
                <tspan x="57.351" y="53.282">Masuk</tspan>
            </text>
            <path stroke="#81D4E8" stroke-width="2" d="M25.214 23.657h13.823"/>
            <circle cx="14.981" cy="23.285" r="11.342" fill="#81D4E8"/>
            <circle cx="138.697" cy="27.457" r="27.431" fill="#FFF" stroke="#514484" stroke-width="2"/>
            <path stroke="#514484" stroke-linecap="square" stroke-width="2" d="M79.196 29.685h31.673"/>
            <path stroke="#AB9CE8" stroke-linecap="square" stroke-width="2" d="M26.6 48.793h13.822"/>
            <path stroke="#EDB6C1" stroke-linecap="square" stroke-width="2" d="M26.6 73.365h13.822"/>
            <circle cx="14.981" cy="48.42" r="11.342" fill="#AB9CE8"/>
            <circle cx="14.981" cy="73.556" r="11.342" fill="#EDB6C1"/>
            <path fill="#E1CCCC" d="M39.529 86.263l-4.56 6.16 27.583 23.19 5.28-6.791z"/>
            <path fill="#514484" d="M.717 135.784l33.376-43.749 32.168 26.854-12.638 16.895H27.17z"/>
            <path fill="#FACCB4" d="M39.834 87.274l2.687-24.907 16.255-9.846a3 3 0 0 1 4.514 2.072c.78 4.684-.245 7.856-3.076 9.515-3.604 2.111-6.446 3.69-8.526 4.738v7.182c5.085 2.73 7.517 6.478 7.296 11.246M129.735 82.218l-23.141 16.518-8.96-10.465L85.947 66.3l3.726-1.422 11.189-1.494z"/>
            <path fill="#FACCB4" d="M105.862 97.794l-7.557-3.382-21.341-.363c.132-5.75 1.719-8.995 4.759-9.735 3.04-.741 6.465-.623 10.273.354L71.094 55.632c-1.941-3.14-1.701-5.623.72-7.448 3.632-2.738 6.825 1.175 8.457 3.55 1.088 1.585 6.413 8.835 15.976 21.752"/>
            <path fill="#E1CCCC" d="M108.214 105.933l-4.221-6.6 27.185-17.726 4.139 5.622z"/>
            <path fill="#FACCB4" d="M90.227 64.77c-.535-3.09.233-4.87 2.305-5.34 2.073-.47 8.753-1.784 20.041-3.94 2.177.148 4.073 1.71 5.688 4.684 1.615 2.975 4.984 7.873 10.108 14.693l.963 8.101"/>
            <path fill="#514484" d="M124.348 135.784l-17.506-29.957 30.986-20.058 36.05 50.015z"/>
            <circle cx="39.731" cy="23.657" r="2.234" fill="#81D4E8"/>
            <circle cx="78.016" cy="29.685" r="2.234" fill="#514484"/>
            <circle cx="39.731" cy="48.793" r="2.234" fill="#AB9CE8"/>
        </g>
        <path fill="#FFF" d="M56.925 198.546l-.08 6.248a1 1 0 0 0 1.61.805l4.114-3.164a1 1 0 0 0-.002-1.587l-4.035-3.084a1 1 0 0 0-1.607.782zM54.614 179.467h8.035a1 1 0 0 0 .884-1.466l-2.064-3.913a1 1 0 0 0-1.643-.184l-2.103 2.452-.415-.666a1 1 0 0 0-1.622-.106l-1.845 2.25a1 1 0 0 0 .773 1.633z"/>
        <g fill="#514484" stroke="#514484">
            <path d="M188.83 153.884a.354.354 0 0 0-.5 0l-10.556 10.555-3.264-3.263 1.456-1.456a.355.355 0 0 0-.5-.502l-1.707 1.707-.014.013a.357.357 0 0 0-.078.118l-2.407 5.927a.528.528 0 0 0 .11.597.53.53 0 0 0 .597.11l5.927-2.408a.353.353 0 0 0 .117-.078l10.82-10.819a.354.354 0 0 0 0-.5zm-16.765 13.001l2.066-5.087 3.02 3.02-5.086 2.067z"/>
            <path d="M195.6 143.35a1.747 1.747 0 0 0-2.467 0l-1.516 1.515-.339-.338a.788.788 0 0 0-.56-.232.79.79 0 0 0-.562.232l-13.134 13.134a.354.354 0 1 0 .502.501l9.965-9.965 3.263 3.264-.87.87a.355.355 0 0 0 .502.501l1.772-1.772.915.914a.142.142 0 0 1 0 .202l-6.438 6.437a.354.354 0 0 0 .501.501l6.438-6.437c.16-.161.25-.375.25-.602a.846.846 0 0 0-.25-.602l-.915-.914 1.765-1.766a.788.788 0 0 0 0-1.122l-.338-.338 1.516-1.516c.68-.68.68-1.787 0-2.468zm-4.347 7.61l-3.263-3.264 1.304-1.304 3.264 3.263-1.305 1.305zm2.668-2.668l-.862.862-3.264-3.263.862-.862a.083.083 0 0 1 .06-.025c.017 0 .04.004.06.025l3.144 3.143c.02.02.025.044.025.06s-.004.04-.025.06zm1.178-2.976l-1.516 1.516-1.465-1.465 1.516-1.517a1.037 1.037 0 0 1 1.465 1.466z"/>
        </g>
        <g stroke="#FFF" stroke-linecap="round" stroke-linejoin="round">
            <path stroke-width=".8" d="M59.748 147.141a4.866 4.866 0 0 1 2.123-.935v7.175a10.03 10.03 0 0 0-2.763.94 583.275 583.275 0 0 1 0-6.313c-1.648-.57-3.098-.483-4.35.26v7.55c1.285-.774 2.687-.834 4.207-.18 1.454-.565 2.925-.594 4.412-.088v-7.269l-.39-.239"/>
            <path stroke-width=".7" d="M60.05 148.925l.903-.46M60.05 150.102l.903-.461M60.05 151.289l.903-.461M60.05 152.368l.903-.46"/>
            <path stroke-width=".6" d="M55.892 151.114c.695-.421 1.42-.49 2.174-.205M55.892 149.975c.695-.421 1.42-.49 2.174-.205M55.892 152.388c.695-.422 1.42-.49 2.174-.205M55.892 153.673c.695-.421 1.42-.49 2.174-.205"/>
        </g>
    </g>
</svg>
