<?xml version="1.0" encoding="UTF-8"?>
<svg width="447px" height="642px" viewBox="0 0 447 642" version="1.1" xmlns="http://www.w3.org/2000/svg" xmlns:xlink="http://www.w3.org/1999/xlink">
    <!-- Generator: sketchtool 49.3 (51167) - http://www.bohemiancoding.com/sketch -->
    <title>1246480E-7A9B-41D0-901C-69FD30CADDE5</title>
    <desc>Created with sketchtool.</desc>
    <defs>
        <rect id="path-1" x="0" y="0" width="447" height="644"></rect>
        <linearGradient x1="60.2920238%" y1="24.1913837%" x2="50%" y2="100%" id="linearGradient-3">
            <stop stop-color="#F3F6F8" stop-opacity="0.337352808" offset="0%"></stop>
            <stop stop-color="#E4E9EE" offset="100%"></stop>
        </linearGradient>
        <linearGradient x1="50%" y1="-34.3234853%" x2="53.6262876%" y2="75.9751253%" id="linearGradient-4">
            <stop stop-color="#C6BED3" offset="0%"></stop>
            <stop stop-color="#F5F5F5" stop-opacity="0" offset="100%"></stop>
        </linearGradient>
        <linearGradient x1="50%" y1="0%" x2="50%" y2="100%" id="linearGradient-5">
            <stop stop-color="#E2DDEB" offset="0%"></stop>
            <stop stop-color="#F5F5F5" stop-opacity="0" offset="100%"></stop>
        </linearGradient>
        <linearGradient x1="-21.2886806%" y1="145.130166%" x2="56.2046231%" y2="9.45288419%" id="linearGradient-6">
            <stop stop-color="#F6F5F8" offset="0%"></stop>
            <stop stop-color="#D7DFE5" offset="100%"></stop>
        </linearGradient>
        <linearGradient x1="60.5882402%" y1="22.0095241%" x2="50%" y2="100%" id="linearGradient-7">
            <stop stop-color="#F3F6F8" offset="0%"></stop>
            <stop stop-color="#E4E9EE" offset="100%"></stop>
        </linearGradient>
    </defs>
    <g id="Page-1" stroke="none" stroke-width="1" fill="none" fill-rule="evenodd">
        <g id="404">
            <g id="Group-5">
                <mask id="mask-2" fill="white">
                    <use xlink:href="#path-1"></use>
                </mask>
                <use id="Mask" fill="#F5F8FA" xlink:href="#path-1"></use>
                <g mask="url(#mask-2)">
                    <g transform="translate(-165.000000, -84.000000)">
                        <path d="M174.563687,262.932982 C94.1270056,277.825731 57.0313867,320.181717 63.2768297,390.00094 C69.5222728,459.820163 138.726726,492.183342 270.89019,487.090478 L560.218734,487.090478 C654.161294,469.813575 701.107648,419.01924 701.057796,334.707474 C700.983019,208.239825 564.315334,175.95828 492.121403,206.809714 C492.267661,118.622834 396.115262,17.4476829 270.89019,64.7365617 C187.406808,96.2624809 155.297974,162.327954 174.563687,262.932982 Z" id="Path-33-Copy-2" stroke="none" fill="url(#linearGradient-3)" fill-rule="evenodd" transform="translate(381.829845, 270.147062) scale(1, -1) rotate(10.000000) translate(-381.829845, -270.147062) "></path>
                        <path d="M32.175521,591.195558 C115.099231,569.372473 162.350316,528.088004 258.72733,507.369031 C355.104343,486.650059 386.581215,554.746843 583.355121,591.376121 C580.616577,645.003431 580.616577,686.3942 583.355121,715.548429 L83.3160749,715.548429 C-6.06010094,647.195238 -23.1069522,605.744281 32.175521,591.195558 Z" id="Path-36" stroke="none" fill="url(#linearGradient-4)" fill-rule="evenodd"></path>
                        <path d="M143.031375,614.653744 C302.980393,591.882702 390.174852,485.48726 486.551866,464.768287 C550.803208,450.955639 630.54507,495.499363 725.777452,598.399459 L725.777452,744.295538 L143.316439,744.295538 C143.123053,681.598378 143.028031,638.384447 143.031375,614.653744 Z" id="Path-36-Copy" stroke="none" fill="url(#linearGradient-5)" fill-rule="evenodd"></path>
                        <circle id="Oval-26-Copy-2" stroke="#F4C9BE" stroke-width="2" fill="none" transform="translate(307.000000, 353.000000) scale(-1, 1) translate(-307.000000, -353.000000) " cx="307" cy="353" r="3"></circle>
                        <circle id="Oval-26-Copy-3" stroke="#E9E7EF" stroke-width="2" fill="none" transform="translate(411.000000, 263.000000) scale(-1, 1) translate(-411.000000, -263.000000) " cx="411" cy="263" r="3"></circle>
                        <g id="Group-3" stroke="none" stroke-width="1" fill="none" fill-rule="evenodd" transform="translate(365.000000, 226.000000)">
                            <circle id="Oval-26" stroke="#E9E7EF" stroke-width="3" transform="translate(82.285714, 38.571429) scale(-1, 1) translate(-82.285714, -38.571429) " cx="82.2857143" cy="38.5714286" r="7.71428571"></circle>
                            <circle id="Oval-26-Copy" stroke="#E9E7EF" stroke-width="3" transform="translate(5.142857, 38.571429) scale(-1, 1) translate(-5.142857, -38.571429) " cx="5.14285714" cy="38.5714286" r="5.14285714"></circle>
                            <g id="Group-33-Copy" transform="translate(50.071429, 7.500000) scale(-1, 1) translate(-50.071429, -7.500000) translate(43.571429, 0.000000)" stroke="#D2CFDB" stroke-linecap="round" stroke-linejoin="round" stroke-width="3">
                                <path d="M6.48468667,1.47604496 L6.48468667,13.2844046" id="Line-12"></path>
                                <path d="M0.482539135,7.38022478 L12.4868342,7.38022478" id="Line-12-Copy"></path>
                            </g>
                            <g id="Group-33-Copy-2" transform="translate(44.357143, 72.357143) scale(-1, 1) translate(-44.357143, -72.357143) translate(39.857143, 66.857143)" stroke="#D2CFDB" stroke-linecap="round" stroke-linejoin="round" stroke-width="2">
                                <path d="M4.34377161,1.04584917 L4.34377161,9.41264255" id="Line-12"></path>
                                <path d="M0.013636211,5.22924586 L8.673907,5.22924586" id="Line-12-Copy"></path>
                            </g>
                        </g>
                        <g id="Group-17" stroke="none" stroke-width="1" fill="none" fill-rule="evenodd" transform="translate(289.000000, 301.000000)">
                            <path d="M10.3868096,50.4947032 C16.9807546,31.575378 34.6496216,8.92507046 61.0028029,13.6277305 C87.3559842,18.3303905 82.0888992,72.5853634 118.059394,49.497071 C154.029888,26.4087785 186.276458,24.7785014 191.763072,66.4616858 C197.249687,108.14487 169.734292,119.420548 155.973367,121.067047 C142.212441,122.713545 125.06657,109.900054 92.5133047,117.68483 C59.9600395,125.469606 29.6650189,120.00615 18.346355,104.397666 C7.02769104,88.7891823 3.79286467,69.4140284 10.3868096,50.4947032 Z" id="Path-15" fill="#E9E7EF" transform="translate(99.738371, 67.107453) rotate(-8.000000) translate(-99.738371, -67.107453) "></path>
                            <ellipse id="Oval-9" stroke="#6D5C7A" stroke-width="4" fill="#F3F5F8" cx="59.8655159" cy="46.647045" rx="31.7193095" ry="31.8761479"></ellipse>
                            <ellipse id="Oval-9-Copy" stroke="#6D5C7A" stroke-width="4" fill="#F3F5F8" cx="144.450341" cy="46.647045" rx="31.7193095" ry="31.8761479"></ellipse>
                            <path d="M116.563852,32.3438387 C112.271743,30.1652659 107.419963,28.9380739 102.282968,28.9380739 C97.1692474,28.9380739 92.3381637,30.1541708 88.0604576,32.3142856" id="Oval-9-Copy-2" stroke="#6D5C7A" stroke-width="3" fill="#F2F9F5"></path>
                            <path d="M94.4642857,97.1919448 C105.935499,101.716515 115.093715,98.8634179 121.938935,88.6326531" id="Path-17" stroke="#6D5C7A" stroke-width="4" stroke-linecap="round" stroke-linejoin="round" transform="translate(108.201610, 93.952858) scale(-1, -1) translate(-108.201610, -93.952858) "></path>
                            <path d="M157.66672,33.3653167 L145.331433,45.7615964" id="Line-9" stroke="#CDCBD4" stroke-width="4" opacity="0.303781703" stroke-linecap="round" stroke-linejoin="round"></path>
                            <path d="M74.8440787,33.3653167 L62.5087916,45.7615964" id="Line-9-Copy-2" stroke="#CDCBD4" stroke-width="4" opacity="0.303781703" stroke-linecap="round" stroke-linejoin="round"></path>
                            <path d="M159.428904,40.4489051 L147.093617,52.8451848" id="Line-9-Copy" stroke="#CDCBD4" stroke-width="4" opacity="0.303781703" stroke-linecap="round" stroke-linejoin="round"></path>
                            <path d="M76.6062625,40.4489051 L64.2709755,52.8451848" id="Line-9-Copy-3" stroke="#CDCBD4" stroke-width="4" opacity="0.303781703" stroke-linecap="round" stroke-linejoin="round"></path>
                        </g>
                        <g id="Group" stroke="none" stroke-width="1" fill="none" fill-rule="evenodd" transform="translate(212.000000, 169.000000)">
                            <path d="M62.6073455,77.554545 C51.3945684,79.5063427 46.2234835,85.0573876 47.0940908,94.2076797 C47.9646981,103.357972 57.6117161,107.59939 76.0351448,106.931935 L116.367198,106.931935 C129.462678,104.667677 136.006944,98.0107286 135.999994,86.9610885 C135.989571,70.3866285 116.938259,66.1559087 106.874511,70.1992026 C106.894899,58.641702 93.4913701,45.3819988 76.0351448,51.5795334 C64.3976613,55.7112231 59.9217282,64.3695603 62.6073455,77.554545 Z" id="Path-33" fill="url(#linearGradient-6)"></path>
                            <path d="M75.8108356,75 L61.6906348,88.0143856 C60.8784303,88.7629827 60.8268664,90.0282624 61.5754635,90.8404669 C61.6129446,90.8811327 61.6520963,90.9202263 61.6928177,90.9576471 L67.4538099,96.2516875 L57,116 L76.5165211,96.9621748 C77.3021034,96.1958611 77.3234401,94.9396534 76.5643352,94.1471032 L72.1010808,89.4872023 L75.8108356,75 Z" id="Path-35" fill="#C7CED5"></path>
                            <path d="M105.454545,111.571429 L94.5454545,126.428571" id="Line" stroke="#E4E9EE" stroke-width="2" stroke-linecap="round" stroke-linejoin="round"></path>
                            <path d="M38.4545455,19.5714286 L27.5454545,34.4285714" id="Line-Copy-3" stroke="#E4E9EE" stroke-width="2" stroke-linecap="round" stroke-linejoin="round"></path>
                            <path d="M266.454545,0.571428571 L255.545455,15.4285714" id="Line-Copy-6" stroke="#E4E9EE" stroke-width="2" stroke-linecap="round" stroke-linejoin="round"></path>
                            <path d="M171.454545,12.5714286 L160.545455,27.4285714" id="Line-Copy-9" stroke="#E4E9EE" stroke-width="2" stroke-linecap="round" stroke-linejoin="round"></path>
                            <path d="M93.4545455,112.571429 L82.5454545,127.428571" id="Line-Copy" stroke="#E4E9EE" stroke-width="2" stroke-linecap="round" stroke-linejoin="round"></path>
                            <path d="M26.4545455,20.5714286 L15.5454545,35.4285714" id="Line-Copy-4" stroke="#E4E9EE" stroke-width="2" stroke-linecap="round" stroke-linejoin="round"></path>
                            <path d="M254.454545,1.57142857 L243.545455,16.4285714" id="Line-Copy-7" stroke="#E4E9EE" stroke-width="2" stroke-linecap="round" stroke-linejoin="round"></path>
                            <path d="M159.454545,13.5714286 L148.545455,28.4285714" id="Line-Copy-10" stroke="#E4E9EE" stroke-width="2" stroke-linecap="round" stroke-linejoin="round"></path>
                            <path d="M78.4545455,114.571429 L67.5454545,129.428571" id="Line-Copy-2" stroke="#E4E9EE" stroke-width="2" stroke-linecap="round" stroke-linejoin="round"></path>
                            <path d="M11.4545455,22.5714286 L0.545454545,37.4285714" id="Line-Copy-5" stroke="#E4E9EE" stroke-width="2" stroke-linecap="round" stroke-linejoin="round"></path>
                            <path d="M239.454545,3.57142857 L228.545455,18.4285714" id="Line-Copy-8" stroke="#E4E9EE" stroke-width="2" stroke-linecap="round" stroke-linejoin="round"></path>
                            <path d="M144.454545,15.5714286 L133.545455,30.4285714" id="Line-Copy-11" stroke="#E4E9EE" stroke-width="2" stroke-linecap="round" stroke-linejoin="round"></path>
                        </g>
                        <path d="M310,433.590409 C313.075236,441.68943 317.9553,444.955052 324.535396,442.760017 C330.454366,440.785526 332.967146,435.402349 330.977122,429.133732 C329.37312,424.081091 327.716243,419.564183 326.35294,416" id="Path-37" stroke="#979797" stroke-width="4" fill="none" stroke-linecap="round" stroke-linejoin="round"></path>
                        <path d="M323.843408,409.683424 C323.843408,409.683424 309.229193,367.065305 297,331 C314.895605,383.455616 323.843408,409.683424 323.843408,409.683424 Z" id="Path" stroke="#BABABA" stroke-width="4" fill="#D8D8D8" fill-rule="evenodd" stroke-linecap="round" stroke-linejoin="round"></path>
                        <g id="Group-2" stroke="none" stroke-width="1" fill="none" fill-rule="evenodd" transform="translate(220.000000, 590.000000)">
                            <path d="M0,11 C0.0267828327,38.8197859 9.28657333,56.7840121 27.7793715,64.8926784 C55.5185687,77.0556779 86.5011014,67.1391427 99,38.9323766 C77.847494,41.5216941 44.847494,32.2109019 0,11 Z" id="Path-40" fill="#5F6696"></path>
                            <path d="M25.0305568,41.680145 C24.6444423,53.4202323 27.9175213,61.5009072 34.8497938,65.9221698 C46.4991507,66.8498754 56.5703039,59.3499529 59,50.592164 C49.1033308,40.7183383 37.7801831,37.7476653 25.0305568,41.680145 Z" id="Path-39" fill="#535983"></path>
                            <path d="M2.47998663,21.6734293 C13.2628589,27.513559 21.1170012,34.0930497 26.0424135,41.4119014 C32.5712103,41.7236577 42.4774328,40.5704773 59.986801,51 C67.5340239,49.1883138 76.6029787,46.6711993 89.4991049,49.1883138 C91.8893477,46.2499571 95.389646,42.8293854 100,38.9265988 C91.8667685,31.1782868 87.5292026,24.5911083 86.9873022,19.1650631 C80.0788601,16.1866764 61.4352818,7.60542361 57.1197699,3.13267422 C50.4759768,4.13395294 32.9138363,3.28219003 23.1793207,0 C14.92873,4.70418077 9.00326992,9.30258705 1,11.3178692 C1.55870349,13.0797168 2.05203237,16.5315702 2.47998663,21.6734293 Z" id="Path-38" fill="#494C74"></path>
                        </g>
                        <path d="M172.285693,103.725198 C151.245988,107.389099 141.542941,117.809482 143.176552,134.986346 C144.810164,152.16321 162.911872,160.125171 197.481676,158.872229 L273.160922,158.872229 C297.73334,154.62178 310.013029,142.125403 309.99999,121.383096 C309.98043,90.2696359 274.232463,82.3277585 255.348802,89.9178013 C255.387058,68.2221423 230.236616,43.3311205 197.481676,54.965089 C175.64505,62.721068 167.246389,78.9744378 172.285693,103.725198 Z" id="Path-33" stroke="none" fill="url(#linearGradient-7)" fill-rule="evenodd" transform="translate(226.500000, 105.500000) scale(1, -1) translate(-226.500000, -105.500000) "></path>
                        <path d="M497.624641,109.766791 C480.364524,112.780093 472.404539,121.350127 473.744687,135.476894 C475.084836,149.603661 489.93474,156.151816 518.2944,155.121359 L580.378571,155.121359 C600.536782,151.625663 610.61054,141.348268 610.599842,124.289174 C610.583797,98.7005344 581.25762,92.1688969 565.766233,98.4111751 C565.797617,80.5680163 545.165218,60.0968955 518.2944,69.6650192 C500.38052,76.0437682 493.490601,89.4110257 497.624641,109.766791 Z" id="Path-33-Copy" stroke="none" fill="url(#linearGradient-7)" fill-rule="evenodd" transform="translate(542.099851, 111.226441) scale(1, -1) rotate(10.000000) translate(-542.099851, -111.226441) "></path>
                    </g>
                </g>
            </g>
        </g>
    </g>
</svg>