<?xml version="1.0" encoding="UTF-8"?>
<svg width="375px" height="667px" viewBox="0 0 375 667" version="1.1" xmlns="http://www.w3.org/2000/svg" xmlns:xlink="http://www.w3.org/1999/xlink">
    <!-- Generator: sketchtool 49.3 (51167) - http://www.bohemiancoding.com/sketch -->
    <title>4CFE881B-27B6-4DAE-B92E-DFB6BF41607E</title>
    <desc>Created with sketchtool.</desc>
    <defs>
        <rect id="path-1" x="0" y="0" width="399" height="684"></rect>
        <linearGradient x1="60.2920238%" y1="24.1913837%" x2="50%" y2="100%" id="linearGradient-3">
            <stop stop-color="#F3F6F8" stop-opacity="0.337352808" offset="0%"></stop>
            <stop stop-color="#E4E9EE" offset="100%"></stop>
        </linearGradient>
        <linearGradient x1="50%" y1="-34.3234853%" x2="53.6262876%" y2="75.9751253%" id="linearGradient-4">
            <stop stop-color="#C6BED3" offset="0%"></stop>
            <stop stop-color="#F5F5F5" stop-opacity="0" offset="100%"></stop>
        </linearGradient>
        <linearGradient x1="50%" y1="0%" x2="50%" y2="100%" id="linearGradient-5">
            <stop stop-color="#E2DDEB" offset="0%"></stop>
            <stop stop-color="#F5F5F5" stop-opacity="0" offset="100%"></stop>
        </linearGradient>
        <linearGradient x1="-21.2886806%" y1="145.130166%" x2="56.2046231%" y2="9.45288419%" id="linearGradient-6">
            <stop stop-color="#F6F5F8" offset="0%"></stop>
            <stop stop-color="#D7DFE5" offset="100%"></stop>
        </linearGradient>
        <linearGradient x1="60.5882402%" y1="22.0095241%" x2="50%" y2="100%" id="linearGradient-7">
            <stop stop-color="#F3F6F8" offset="0%"></stop>
            <stop stop-color="#E4E9EE" offset="100%"></stop>
        </linearGradient>
    </defs>
    <g id="Page-1" stroke="none" stroke-width="1" fill="none" fill-rule="evenodd">
        <g id="iPhone-8">
            <g id="Group-5-Copy" transform="translate(-10.000000, -12.000000)">
                <mask id="mask-2" fill="white">
                    <use xlink:href="#path-1"></use>
                </mask>
                <use id="Mask" fill="#F5F8FA" xlink:href="#path-1"></use>
                <g id="Group-5" mask="url(#mask-2)">
                    <g transform="translate(-209.000000, -90.000000)">
                        <path d="M185.503645,279.520701 C100.025973,295.352992 60.6055608,340.3811 67.2424076,414.605026 C73.8792545,488.828952 147.420772,523.233835 287.866959,517.819676 L595.32781,517.819676 C695.157779,499.45282 745.046275,445.454011 744.993299,355.823248 C744.913835,221.377102 599.681145,187.059004 522.962799,219.85677 C523.118223,126.106422 420.939924,18.5484092 287.866959,68.8206133 C199.151649,102.335416 165.030544,172.568778 185.503645,279.520701 Z" id="Path-33-Copy-2" stroke="none" fill="url(#linearGradient-3)" fill-rule="evenodd" transform="translate(405.759236, 287.189896) scale(1, -1) rotate(10.000000) translate(-405.759236, -287.189896) "></path>
                        <path d="M34.1919706,628.492459 C122.312534,605.292616 172.524859,561.403623 274.941849,539.377547 C377.358839,517.351472 410.808376,589.744295 619.914161,628.684413 C617.003992,685.694922 617.003992,729.696921 619.914161,760.690411 L88.5375183,760.690411 C-6.43988929,688.025005 -24.5550719,643.959021 34.1919706,628.492459 Z" id="Path-36" stroke="none" fill="url(#linearGradient-4)" fill-rule="evenodd"></path>
                        <path d="M151.995194,653.430557 C321.968265,629.222953 414.627227,516.115315 517.044217,494.089239 C585.322211,479.405189 670.061519,526.759054 771.262142,636.150834 L771.262142,791.251095 L152.298123,791.251095 C152.092617,724.598544 151.991641,678.658365 151.995194,653.430557 Z" id="Path-36-Copy" stroke="none" fill="url(#linearGradient-5)" fill-rule="evenodd"></path>
                        <ellipse id="Oval-26-Copy-2" stroke="#F4C9BE" stroke-width="2" fill="none" transform="translate(326.239782, 375.269799) scale(-1, 1) translate(-326.239782, -375.269799) " cx="326.239782" cy="375.269799" rx="3.1880109" ry="3.18926174"></ellipse>
                        <ellipse id="Oval-26-Copy-3" stroke="#E9E7EF" stroke-width="2" fill="none" transform="translate(436.757493, 279.591946) scale(-1, 1) translate(-436.757493, -279.591946) " cx="436.757493" cy="279.591946" rx="3.1880109" ry="3.18926174"></ellipse>
                        <g id="Group-3" stroke="none" stroke-width="1" fill="none" fill-rule="evenodd" transform="translate(387.874659, 240.257718)">
                            <ellipse id="Oval-26" stroke="#E9E7EF" stroke-width="3" transform="translate(87.442585, 41.004794) scale(-1, 1) translate(-87.442585, -41.004794) " cx="87.4425847" cy="41.0047939" rx="8.19774231" ry="8.20095877"></ellipse>
                            <ellipse id="Oval-26-Copy" stroke="#E9E7EF" stroke-width="3" transform="translate(5.465162, 41.004794) scale(-1, 1) translate(-5.465162, -41.004794) " cx="5.46516154" cy="41.0047939" rx="5.46516154" ry="5.46730585"></ellipse>
                            <g id="Group-33-Copy" transform="translate(53.116777, 8.000000) scale(-1, 1) translate(-53.116777, -8.000000) translate(46.116777, 0.000000)" stroke="#D2CFDB" stroke-linecap="round" stroke-linejoin="round" stroke-width="3">
                                <path d="M6.89108393,1.56916457 L6.89108393,14.1224811" id="Line-12"></path>
                                <path d="M0.512780007,7.84582285 L13.2693879,7.84582285" id="Line-12-Copy"></path>
                            </g>
                            <g id="Group-33-Copy-2" transform="translate(46.919035, 77.074976) scale(-1, 1) translate(-46.919035, -77.074976) translate(41.919035, 71.074976)" stroke="#D2CFDB" stroke-linecap="round" stroke-linejoin="round" stroke-width="2">
                                <path d="M4.61599707,1.11182892 L4.61599707,10.0064603" id="Line-12"></path>
                                <path d="M0.0144907965,5.55914459 L9.21750335,5.55914459" id="Line-12-Copy"></path>
                            </g>
                        </g>
                        <g id="Group-17" stroke="none" stroke-width="1" fill="none" fill-rule="evenodd" transform="translate(307.111717, 319.989262)">
                            <path d="M11.0377541,53.6802751 C18.0449436,33.5673818 36.8211238,9.4881286 64.8258669,14.4874665 C92.8306099,19.4868044 87.2334351,77.1645743 125.458211,52.619705 C163.682987,28.0748356 197.95046,26.3417089 203.780922,70.6545706 C209.611383,114.967432 180.371591,126.954462 165.748264,128.704833 C151.124937,130.455205 132.904529,116.833346 98.3111413,125.109242 C63.7177532,133.385138 31.5241345,127.577008 19.4961265,110.983828 C7.46811854,94.3906474 4.03056463,73.7931684 11.0377541,53.6802751 Z" id="Path-15" fill="#E9E7EF" transform="translate(105.989004, 71.341078) rotate(-8.000000) translate(-105.989004, -71.341078) "></path>
                            <ellipse id="Oval-9" stroke="#6D5C7A" stroke-width="4" fill="#F3F5F8" cx="63.6173057" cy="49.5898787" rx="33.7071681" ry="33.8871263"></ellipse>
                            <ellipse id="Oval-9-Copy" stroke="#6D5C7A" stroke-width="4" fill="#F3F5F8" cx="153.503087" cy="49.5898787" rx="33.7071681" ry="33.8871263"></ellipse>
                            <path d="M123.868944,34.3843225 C119.307847,32.0683095 114.152005,30.7636974 108.693072,30.7636974 C103.258873,30.7636974 98.1250241,32.0565145 93.5792329,34.3529049" id="Oval-9-Copy-2" stroke="#6D5C7A" stroke-width="3" fill="#F2F9F5"></path>
                            <path d="M100.384391,103.323517 C112.574508,108.13353 122.306673,105.100439 129.580885,94.2242433" id="Path-17" stroke="#6D5C7A" stroke-width="4" stroke-linecap="round" stroke-linejoin="round" transform="translate(114.982638, 99.880086) scale(-1, -1) translate(-114.982638, -99.880086) "></path>
                            <path d="M167.547741,35.4702427 L154.439398,48.6485696" id="Line-9" stroke="#CDCBD4" stroke-width="4" opacity="0.303781703" stroke-linecap="round" stroke-linejoin="round"></path>
                            <path d="M79.5345795,35.4702427 L66.4262364,48.6485696" id="Line-9-Copy-2" stroke="#CDCBD4" stroke-width="4" opacity="0.303781703" stroke-linecap="round" stroke-linejoin="round"></path>
                            <path d="M169.420361,43.0007152 L156.312018,56.1790421" id="Line-9-Copy" stroke="#CDCBD4" stroke-width="4" opacity="0.303781703" stroke-linecap="round" stroke-linejoin="round"></path>
                            <path d="M81.4072,43.0007152 L68.2988568,56.1790421" id="Line-9-Copy-3" stroke="#CDCBD4" stroke-width="4" opacity="0.303781703" stroke-linecap="round" stroke-linejoin="round"></path>
                        </g>
                        <g id="Group" stroke="none" stroke-width="1" fill="none" fill-rule="evenodd" transform="translate(225.286104, 179.661745)">
                            <path d="M66.5309666,82.4472478 C54.6154814,84.5221791 49.1203231,90.4234241 50.0454916,100.150983 C50.9706601,109.878542 61.2222596,114.38754 80.8002901,113.677977 L123.659965,113.677977 C137.576143,111.270873 144.53054,104.193956 144.523155,92.4472243 C144.512078,74.8271272 124.266815,70.329503 113.572369,74.6278771 C113.594035,62.3412456 99.3505023,48.2450242 80.8002901,54.8335442 C68.433482,59.2258909 63.6770408,68.4304588 66.5309666,82.4472478 Z" id="Path-33" fill="url(#linearGradient-6)"></path>
                            <path d="M80.5619234,79.7315436 L65.4557461,93.6601523 C64.643688,94.4089082 64.5923715,95.674198 65.3411274,96.4862561 C65.3784397,96.5267229 65.4174066,96.5656321 65.4579287,96.6028843 L71.6811604,102.323942 L60.5722071,123.318121 L81.4015685,102.991684 C82.1867818,102.22543 82.2081112,100.969648 81.449373,100.177169 L76.6196772,95.1327036 L80.5619234,79.7315436 Z" id="Path-35" fill="#C7CED5"></path>
                            <path d="M112.063413,118.610163 L100.470647,134.404602" id="Line" stroke="#E4E9EE" stroke-width="2" stroke-linecap="round" stroke-linejoin="round"></path>
                            <path d="M40.8645033,20.8061361 L29.2717364,36.6005753" id="Line-Copy-3" stroke="#E4E9EE" stroke-width="2" stroke-linecap="round" stroke-linejoin="round"></path>
                            <path d="M283.153332,0.607478428 L271.560565,16.4019175" id="Line-Copy-6" stroke="#E4E9EE" stroke-width="2" stroke-linecap="round" stroke-linejoin="round"></path>
                            <path d="M182.199653,13.3645254 L170.606886,29.1589645" id="Line-Copy-9" stroke="#E4E9EE" stroke-width="2" stroke-linecap="round" stroke-linejoin="round"></path>
                            <path d="M99.3113698,119.67325 L87.7186029,135.467689" id="Line-Copy" stroke="#E4E9EE" stroke-width="2" stroke-linecap="round" stroke-linejoin="round"></path>
                            <path d="M28.1124597,21.8692234 L16.5196928,37.6636625" id="Line-Copy-4" stroke="#E4E9EE" stroke-width="2" stroke-linecap="round" stroke-linejoin="round"></path>
                            <path d="M270.401288,1.67056568 L258.808521,17.4650048" id="Line-Copy-7" stroke="#E4E9EE" stroke-width="2" stroke-linecap="round" stroke-linejoin="round"></path>
                            <path d="M169.44761,14.4276127 L157.854843,30.2220518" id="Line-Copy-10" stroke="#E4E9EE" stroke-width="2" stroke-linecap="round" stroke-linejoin="round"></path>
                            <path d="M83.3713153,121.799425 L71.7785484,137.593864" id="Line-Copy-2" stroke="#E4E9EE" stroke-width="2" stroke-linecap="round" stroke-linejoin="round"></path>
                            <path d="M12.1724053,23.9953979 L0.579638345,39.789837" id="Line-Copy-5" stroke="#E4E9EE" stroke-width="2" stroke-linecap="round" stroke-linejoin="round"></path>
                            <path d="M254.461234,3.79674017 L242.868467,19.5911793" id="Line-Copy-8" stroke="#E4E9EE" stroke-width="2" stroke-linecap="round" stroke-linejoin="round"></path>
                            <path d="M153.507555,16.5537872 L141.914788,32.3482263" id="Line-Copy-11" stroke="#E4E9EE" stroke-width="2" stroke-linecap="round" stroke-linejoin="round"></path>
                        </g>
                        <path d="M329.427793,460.944435 C332.695755,469.554401 337.881654,473.026042 344.874127,470.692528 C351.16404,468.593472 353.834297,462.870685 351.719558,456.206599 C350.015032,450.8352 348.254318,446.033333 346.805577,442.244295" id="Path-37" stroke="#979797" stroke-width="4" fill="none" stroke-linecap="round" stroke-linejoin="round"></path>
                        <path d="M344.138771,435.529224 C344.138771,435.529224 328.608679,390.222445 315.613079,351.881879 C334.630207,407.646775 344.138771,435.529224 344.138771,435.529224 Z" id="Path" stroke="#BABABA" stroke-width="4" fill="#D8D8D8" fill-rule="evenodd" stroke-linecap="round" stroke-linejoin="round"></path>
                        <g id="Group-2" stroke="none" stroke-width="1" fill="none" fill-rule="evenodd" transform="translate(233.787466, 627.221477)">
                            <path d="M0,11.6939597 C0.0284613209,41.2688194 9.86856566,60.3663591 29.520313,68.9865789 C58.9979341,81.9169086 91.9221513,71.3747665 105.20436,41.3885131 C82.7262198,44.1411835 47.6580999,34.2429991 0,11.6939597 Z" id="Path-40" fill="#5F6696"></path>
                            <path d="M26.5992293,44.3096307 C26.1889169,56.7903678 29.6671207,65.3808302 37.0338408,70.081018 C49.4132664,71.06725 60.1155818,63.0941782 62.6975477,53.7838844 C52.1806513,43.2871462 40.1478785,40.1290616 26.5992293,44.3096307 Z" id="Path-39" fill="#535983"></path>
                            <path d="M2.63540814,23.0407463 C14.0940463,29.2493138 22.44041,36.2438864 27.6744994,44.0244643 C34.6124579,44.3558885 45.1395062,43.1299571 63.7461918,54.2174497 C71.7664014,52.2914692 81.4037104,49.6155569 95.1080407,52.2914692 C97.6480806,49.1677396 101.367744,45.5313735 106.26703,41.3823708 C97.6240864,33.1452392 93.0146839,26.1424936 92.4388225,20.3741342 C85.0974262,17.2078493 65.2854493,8.08522886 60.699483,3.33030602 C53.6393214,4.39475265 34.9765563,3.48925437 24.6319757,0 C15.864318,5.00095459 9.56750755,9.88946167 1.0626703,12.0318825 C1.6563879,13.9048802 2.18063385,17.5745014 2.63540814,23.0407463 Z" id="Path-38" fill="#494C74"></path>
                        </g>
                        <path d="M183.082889,110.268936 C160.724619,114.163982 150.41348,125.241758 152.14947,143.502263 C153.88546,161.762768 173.121608,170.227027 209.857912,168.895041 L290.279998,168.895041 C316.392378,164.376443 329.441639,151.091703 329.427782,129.040822 C329.406997,95.9644989 291.418694,87.5215903 271.351588,95.590468 C271.392242,72.5260896 244.665613,46.0647616 209.857912,58.4326852 C186.652778,66.6779676 177.72777,83.9567178 183.082889,110.268936 Z" id="Path-33" stroke="none" fill="url(#linearGradient-7)" fill-rule="evenodd" transform="translate(240.694823, 112.155705) scale(1, -1) translate(-240.694823, -112.155705) "></path>
                        <path d="M528.810927,116.691676 C510.469112,119.895079 502.010273,129.005773 503.434409,144.023759 C504.858545,159.041744 520.639097,166.003004 550.776065,164.907538 L616.75107,164.907538 C638.172603,161.191308 648.877685,150.265541 648.866318,132.130236 C648.849266,104.92728 617.685209,97.983579 601.222973,104.619665 C601.256324,85.6508308 579.330886,63.8882433 550.776065,74.0599935 C531.739518,80.8411603 524.417805,95.0517212 528.810927,116.691676 Z" id="Path-33-Copy" stroke="none" fill="url(#linearGradient-7)" fill-rule="evenodd" transform="translate(576.073411, 118.243411) scale(1, -1) rotate(10.000000) translate(-576.073411, -118.243411) "></path>
                    </g>
                </g>
            </g>
        </g>
    </g>
</svg>