<?xml version="1.0" encoding="UTF-8"?>
<svg width="236px" height="195px" viewBox="0 0 236 195" version="1.1" xmlns="http://www.w3.org/2000/svg" xmlns:xlink="http://www.w3.org/1999/xlink">
    <!-- Generator: sketchtool 49.2 (51160) - http://www.bohemiancoding.com/sketch -->
    <title>2575C17E-A095-470C-9B65-707A9C4D7F8E</title>
    <desc>Created with sketchtool.</desc>
    <defs>
        <linearGradient x1="103.456905%" y1="19.5311152%" x2="26.8785359%" y2="60.619235%" id="linearGradient-1">
            <stop stop-color="#7DB6D0" offset="0%"></stop>
            <stop stop-color="#5B9AB7" offset="100%"></stop>
        </linearGradient>
        <rect id="path-2" x="0.349822544" y="0.69075691" width="220" height="179.309243" rx="5"></rect>
        <filter x="-5.9%" y="-6.1%" width="111.8%" height="114.5%" filterUnits="objectBoundingBox" id="filter-4">
            <feOffset dx="0" dy="2" in="SourceAlpha" result="shadowOffsetOuter1"></feOffset>
            <feGaussianBlur stdDeviation="4" in="shadowOffsetOuter1" result="shadowBlurOuter1"></feGaussianBlur>
            <feColorMatrix values="0 0 0 0 0.227628162   0 0 0 0 0.512254271   0 0 0 0 0.627816752  0 0 0 0.342362998 0" type="matrix" in="shadowBlurOuter1"></feColorMatrix>
        </filter>
        <linearGradient x1="-36.5163527%" y1="0%" x2="84.1090457%" y2="66.5279453%" id="linearGradient-5">
            <stop stop-color="#7DB6D0" offset="0%"></stop>
            <stop stop-color="#0384B8" offset="100%"></stop>
        </linearGradient>
        <linearGradient x1="-29.3451684%" y1="17.3417217%" x2="106.251687%" y2="89.6189218%" id="linearGradient-6">
            <stop stop-color="#7DB6D0" offset="0%"></stop>
            <stop stop-color="#1994C6" offset="100%"></stop>
        </linearGradient>
    </defs>
    <g id="Page-1" stroke="none" stroke-width="1" fill="none" fill-rule="evenodd">
        <g id="library---Pending-Transaction" transform="translate(-694.000000, -104.000000)">
            <g id="Group-4" transform="translate(701.000000, 108.000000)">
                <g id="Group-36-Copy-2">
                    <g id="Group-20" transform="translate(0.794010, 0.871707)">
                        <g id="Group-19">
                            <mask id="mask-3" fill="white">
                                <use xlink:href="#path-2"></use>
                            </mask>
                            <g id="Mask">
                                <use fill="black" fill-opacity="1" filter="url(#filter-4)" xlink:href="#path-2"></use>
                                <use fill="url(#linearGradient-1)" fill-rule="evenodd" xlink:href="#path-2"></use>
                            </g>
                            <g style="mix-blend-mode: lighten;" mask="url(#mask-3)" id="Group">
                                <g transform="translate(56.423060, -54.802737)">
                                    <g>
                                        <ellipse id="Oval-4" fill="url(#linearGradient-5)" cx="86.5000531" cy="148.664815" rx="85.9652246" ry="89.067206"></ellipse>
                                        <ellipse id="Oval-4-Copy" fill-opacity="0.8" fill="url(#linearGradient-6)" cx="160.111581" cy="85.0848264" rx="81.7356063" ry="84.6849656"></ellipse>
                                    </g>
                                </g>
                            </g>
                            <path d="M203.567641,16.7336118 L198.060028,16.7336118 L195.831683,13.2321337 C196.152973,12.8882385 196.353057,12.4303529 196.353057,11.9238891 C196.353057,10.8628643 195.490193,10 194.429168,10 C193.368143,10 192.505279,10.8628643 192.505279,11.9238891 C192.505279,12.9849139 193.368143,13.8477782 194.429168,13.8477782 C194.635986,13.8477782 194.831742,13.8064146 195.018359,13.745812 L196.919643,16.7336118 L187.128971,16.7336118 L189.030254,13.745812 C189.216872,13.8064146 189.412627,13.8477782 189.619445,13.8477782 C190.68047,13.8477782 191.543335,12.9849139 191.543335,11.9238891 C191.543335,10.8628643 190.68047,10 189.619445,10 C188.558421,10 187.695556,10.8628643 187.695556,11.9238891 C187.695556,12.4303529 187.896122,12.8882385 188.216449,13.2321337 L185.988105,16.7336118 L180.480972,16.7336118 C180.214995,16.7336118 180,16.9486064 180,17.2145841 C180,17.4805617 180.214995,17.6955563 180.480972,17.6955563 L181.020142,17.6955563 L182.413038,28.4505773 C182.503461,29.4481138 183.326885,30.2008354 184.32875,30.2008354 L199.719863,30.2008354 C200.721728,30.2008354 201.545634,29.4485948 201.633652,28.4688542 L203.028471,17.6955563 L203.567641,17.6955563 C203.833619,17.6955563 204.048614,17.4805617 204.048614,17.2145841 C204.048614,16.9486064 203.833619,16.7336118 203.567641,16.7336118 Z M193.419126,11.9238891 C193.419126,11.3669232 193.871721,10.9138473 194.429168,10.9138473 C194.986615,10.9138473 195.43921,11.3664422 195.43921,11.9238891 C195.43921,12.480374 194.986615,12.9339309 194.429168,12.9339309 C193.871721,12.9339309 193.419126,12.480374 193.419126,11.9238891 Z M189.619445,10.9138473 C190.176411,10.9138473 190.629487,11.3664422 190.629487,11.9238891 C190.629487,12.480374 190.176411,12.9339309 189.619445,12.9339309 C189.06248,12.9339309 188.609404,12.480855 188.609404,11.9238891 C188.609404,11.3669232 189.06248,10.9138473 189.619445,10.9138473 Z M188.195287,17.6955563 L188.383828,22.5052791 L186.18867,22.5052791 L185.811107,17.6955563 L188.195287,17.6955563 Z M191.543335,22.5052791 L189.346253,22.5052791 L189.157712,17.6955563 L191.543335,17.6955563 L191.543335,22.5052791 Z M192.505279,17.6955563 L194.890902,17.6955563 L194.70236,22.5052791 L192.505279,22.5052791 L192.505279,17.6955563 Z M188.421343,23.4672236 L188.647881,29.2388908 L186.716297,29.2388908 L186.263702,23.4672236 L188.421343,23.4672236 Z M189.383769,23.4672236 L191.543335,23.4672236 L191.543335,29.2388908 L189.610307,29.2388908 L189.383769,23.4672236 Z M192.505279,23.4672236 L194.664845,23.4672236 L194.438307,29.2388908 L192.505279,29.2388908 L192.505279,23.4672236 Z M195.626789,23.4672236 L197.784431,23.4672236 L197.332317,29.2388908 L195.400251,29.2388908 L195.626789,23.4672236 Z M195.664786,22.5052791 L195.853327,17.6955563 L198.237507,17.6955563 L197.860424,22.5052791 L195.664786,22.5052791 Z M184.845796,17.6955563 L185.222878,22.5052791 L182.612641,22.5052791 L181.990263,17.6955563 L184.845796,17.6955563 Z M183.369211,28.3462063 L182.737694,23.4672236 L185.298872,23.4672236 L185.751466,29.2388908 L184.32875,29.2388908 C183.827577,29.2388908 183.416346,28.8627705 183.369211,28.3462063 Z M200.677479,28.3644833 C200.632268,28.8627705 200.221036,29.2388908 199.719863,29.2388908 L198.297628,29.2388908 L198.749742,23.4672236 L201.310919,23.4672236 L200.677479,28.3644833 Z M201.435972,22.5052791 L198.825255,22.5052791 L199.202337,17.6955563 L202.057869,17.6955563 L201.435972,22.5052791 Z" id="Shape" stroke="#FFFFFF" stroke-width="0.5" fill="#FFFFFF" mask="url(#mask-3)"></path>
                        </g>
                    </g>
                </g>
            </g>
        </g>
    </g>
</svg>