<?xml version="1.0" encoding="UTF-8" standalone="no"?>
<svg width="55px" height="21px" viewBox="0 0 55 21" version="1.1" xmlns="http://www.w3.org/2000/svg" xmlns:xlink="http://www.w3.org/1999/xlink">
    <!-- Generator: sketchtool 47.1 (45422) - http://www.bohemiancoding.com/sketch -->
    <title>E9F5676F-5DD0-4F6B-973A-75760349F0D2</title>
    <desc>Created with sketchtool.</desc>
    <defs>
        <polygon id="path-1" points="26.9874488 13.7747218 26.9874488 0.00759380456 0.0717681143 0.00759380456 0.0717681143 13.7747218 26.9874488 13.7747218"></polygon>
        <polygon id="path-3" points="7.22212228e-21 0.105394014 7.22212228e-21 11.7229824 9.34005987 11.7229824 9.34005987 0.105394014"></polygon>
    </defs>
    <g id="Symbols" stroke="none" stroke-width="1" fill="none" fill-rule="evenodd">
        <g id="logo">
            <g id="Page-1" transform="translate(1.086911, 0.500000)">
                <path d="M37.3033659,16.6649905 L39.102165,19.8429311 L40.9013638,16.7274728 L39.1883613,15.0140707 L37.3033659,16.6649905 Z M39.102165,17.7966006 L39.7078042,18.0550564 L39.102165,19.3474686 L39.102165,17.7966006 Z" id="Fill-1" fill="#7159A5"></path>
                <g id="Group-24" transform="translate(0.000000, 0.125631)">
                    <path d="M32.0314137,12.745335 C31.7733576,12.745335 31.5651274,12.9539648 31.5651274,13.2113548 C31.5651274,13.4690112 31.7733576,13.677641 32.0314137,13.677641 C32.2892034,13.677641 32.4978332,13.4690112 32.4978332,13.2113548 C32.4978332,12.9539648 32.2892034,12.745335 32.0314137,12.745335" id="Fill-2" fill="#7159A5"></path>
                    <path d="M46.2867168,13.677641 C46.5437071,13.677641 46.7526033,13.4690112 46.7526033,13.2113548 C46.7526033,12.9539648 46.5437071,12.745335 46.2867168,12.745335 C46.0287939,12.745335 45.8202973,12.9539648 45.8202973,13.2113548 C45.8202973,13.4690112 46.0287939,13.677641 46.2867168,13.677641" id="Fill-4" fill="#7159A5"></path>
                    <path d="M43.8744848,13.677641 C44.6927505,13.677641 45.3552767,13.0143155 45.3552767,12.1965827 C45.3552767,11.3784502 44.6927505,10.7157908 43.8744848,10.7157908 C43.7988132,10.7157908 43.7254064,10.7229849 43.6529322,10.7341758 L42.6055201,11.4362697 C42.4716293,11.6587548 42.3934265,11.9184096 42.3934265,12.1965827 C42.3934265,13.0143155 43.0563523,13.677641 43.8744848,13.677641" id="Fill-6" fill="#7159A5"></path>
                    <path d="M46.7423317,8.66350517 L45.0209361,9.81723057 C45.4107514,9.88131162 45.7749876,10.0207978 46.0965919,10.2223667 C46.0373069,10.3004363 46.0013363,10.3972907 46.0013363,10.5029378 C46.0013363,10.760461 46.2094332,10.969224 46.4672228,10.969224 C46.5953849,10.969224 46.7114236,10.9168668 46.7953551,10.8333349 C47.216345,11.3391889 47.4686725,11.9891919 47.4686725,12.6990128 C47.4686725,14.3115638 46.1612058,15.6190305 44.548788,15.6190305 C42.935704,15.6190305 41.6275713,14.3115638 41.6275713,12.6990128 C41.6275713,12.4713319 41.6572804,12.2509783 41.7065735,12.0386182 L40.1188022,13.1033496 C40.0840306,13.1712941 40.0425977,13.2355084 39.9955694,13.2958592 C40.2891965,15.5496204 42.2145591,17.2919323 44.548788,17.2919323 C47.0856516,17.2919323 49.1421072,15.2352103 49.1421072,12.6990128 C49.1421072,10.9564345 48.1716989,9.44206998 46.7423317,8.66350517" id="Fill-8" fill="#7159A5"></path>
                    <path d="M38.2824338,13.5197032 C38.1369525,13.4088603 38.0159845,13.2680419 37.9317865,13.1033762 L36.6508316,12.2352845 C36.6508316,12.2379489 36.649899,12.2398141 36.649899,12.2420789 C36.6517642,12.2483405 36.6522971,12.254602 36.6517642,12.2613965 L36.6537625,12.262862 C36.6753449,12.4052791 36.6901329,12.5499611 36.6901329,12.6990394 C36.6901329,14.3114573 35.3823998,15.6190571 33.7691826,15.6190571 C32.1562319,15.6190571 30.848632,14.3114573 30.848632,12.6990394 C30.848632,11.9892185 31.101892,11.3392155 31.5218161,10.8333616 C31.6062805,10.9168934 31.7227189,10.9691175 31.8510142,10.9691175 C32.1084042,10.9691175 32.3167675,10.7604877 32.3167675,10.5028312 C32.3167675,10.3973173 32.280264,10.300463 32.2211123,10.2223933 C32.4884941,10.0547967 32.7855851,9.93023171 33.1018604,9.85575913 C33.108788,9.85136272 33.117048,9.84816533 33.1269066,9.84776565 L31.4681266,8.72334968 C31.4619983,8.72774609 31.4557367,8.73214251 31.4480097,8.73507345 L31.4486758,8.7353399 C30.0896512,9.5328226 29.1762631,11.0086852 29.1762631,12.6990394 C29.1762631,15.2352369 31.2324522,17.2918257 33.7691826,17.2918257 C36.0161494,17.2918257 37.8854243,15.6780756 38.2832331,13.5470143 C38.2848318,13.5480801 38.2862973,13.5488794 38.2872299,13.5496788 C38.2848318,13.5396869 38.2824338,13.5298283 38.2824338,13.5197032" id="Fill-10" fill="#7159A5"></path>
                    <path d="M35.8417184,11.7125776 L35.8466477,11.7159082 C35.8441164,11.7099131 35.8398532,11.7047173 35.8387874,11.6980561 C35.8387874,11.6969903 35.838521,11.6953916 35.838521,11.6937929 C35.8357233,11.6896629 35.8353236,11.6857994 35.8334584,11.6816695 L34.4071554,10.7152579 C34.3956981,10.7160573 34.384374,10.7164569 34.3717177,10.7164569 L34.3757144,10.7191214 C33.5891561,10.7545592 32.9627339,11.4016313 32.9627339,12.1965827 C32.9627339,13.0143155 33.6257929,13.677641 34.4433925,13.677641 C35.2616583,13.677641 35.9241844,13.0143155 35.9241844,12.1965827 C35.9241844,12.0265881 35.8942089,11.8645869 35.8417184,11.7125776" id="Fill-12" fill="#7159A5"></path>
                    <g id="Group-16" transform="translate(25.445907, 0.000000)">
                        <mask id="mask-2" fill="white">
                            <use xlink:href="#path-1"></use>
                        </mask>
                        <g id="Clip-15"></g>
                        <path d="M13.8405348,11.2593074 L13.76473,11.310066 L13.767128,11.2904819 L13.767128,8.74988803 C13.8517257,6.73300018 16.8647342,4.6748127 19.4738055,3.26476309 C21.157765,2.35070883 22.6841197,1.70310385 23.1671923,1.50340011 L24.9968995,3.80312387 L24.9999637,3.80911898 L24.9910376,3.81458119 L13.8405348,11.2593074 Z M12.4632585,10.7190815 L8.60733766,8.11707098 L2.15926502,3.76648709 L3.94207717,1.50340011 C5.17174061,2.00952052 13.1877341,5.41900555 13.3444062,8.72497502 L13.3444062,11.2325292 C13.3444062,11.2345276 13.3428075,11.2681002 13.3414753,11.3131301 L13.307503,11.2884836 L12.4632585,10.7190815 Z M4.89156919,1.40481388 L5.56462008,0.509277837 C6.6725162,0.886037123 13.3444062,3.28328132 13.3444062,6.29882108 L13.3444062,7.29147788 C13.3328157,7.27136096 13.3190936,7.25164371 13.307503,7.23192647 L13.307503,7.30946321 C11.7948704,4.68413842 6.94496059,2.34444727 4.87784705,1.43971873 L4.90062847,1.40947674 C4.89769752,1.40801127 4.89423368,1.40641257 4.89156919,1.40481388 L4.89156919,1.40481388 Z M13.767128,6.31933767 C13.767128,5.04984006 14.9468322,3.88985311 16.3937851,2.94475751 C18.3842944,1.63302769 20.8999753,0.728832046 21.5449158,0.509277837 L22.2192989,1.40614612 C22.1982495,1.41547185 22.1757345,1.42586337 22.1544185,1.43532232 L22.1584153,1.44051808 C21.3260277,1.80635295 20.0426748,2.40559738 18.709629,3.16351237 C16.7516264,4.28113388 14.6975689,5.73541407 13.8045641,7.28961274 L13.8045641,7.24591505 C13.7923075,7.26643165 13.7784521,7.28708147 13.767128,7.30759806 L13.767128,6.31933767 Z M26.9875421,4.82282528 L25.7476204,3.30952657 L25.4044337,3.53880618 L25.3845832,3.55172897 L25.323966,3.59129669 L23.2504577,0.984623357 L23.09232,1.04683926 C23.0447588,1.06549071 22.8665043,1.13663267 22.591795,1.25347068 L21.6557587,0.00755383717 L21.5002856,0.0569801791 C21.2932545,0.123059601 18.22629,1.12277731 15.9059164,2.72147301 C14.8622346,3.44714763 13.974692,4.29445635 13.5736858,5.23249105 C13.5700888,5.2224992 13.5650262,5.21290703 13.5606298,5.20331485 C13.5529028,5.22076728 13.5438435,5.23848616 13.5370491,5.25580536 C12.237043,2.22974086 5.8366648,0.153568044 5.53491098,0.0569801791 L5.37957105,0.00755383717 L4.44353472,1.25293778 C4.16869229,1.13663267 3.98990482,1.06549071 3.94247685,1.04683926 L3.78487209,0.984623357 L1.76318816,3.49923846 L1.27811724,3.17217197 L0.0717681143,4.69666154 L12.4812438,13.1051348 C12.6816136,13.4965488 13.0842185,13.7663287 13.551837,13.7747218 C13.5667582,13.7747218 13.5812797,13.7723238 13.596334,13.7715244 C13.6299066,13.773656 13.6638789,13.7747218 13.6985173,13.7747218 C14.2926992,13.7747218 14.7745728,13.4760322 14.7745728,13.1069999 C14.7745728,13.0835524 14.7724412,13.0605045 14.7683112,13.0375899 L16.256164,12.0406699 C16.2584288,12.0310777 16.2598943,12.0209527 16.2625588,12.0114937 L17.1800769,11.396662 C17.1711508,11.4102509 17.1631574,11.4242395 17.1550307,11.4380948 L18.2019099,10.7362674 C18.1863226,10.7389319 18.1700692,10.7399977 18.1547484,10.7427954 L19.5408175,9.81382002 C19.5508094,9.81541871 19.5605348,9.81781676 19.5706599,9.81901578 L21.291789,8.66555683 C21.2848613,8.66169332 21.278733,8.6572969 21.2718053,8.65356661 L26.9875421,4.82282528 Z" id="Fill-14" fill="#7159A5" mask="url(#mask-2)"></path>
                    </g>
                    <g id="Group-19" transform="translate(0.000000, 5.595435)">
                        <mask id="mask-4" fill="white">
                            <use xlink:href="#path-3"></use>
                        </mask>
                        <g id="Clip-18"></g>
                        <path d="M3.17722118,8.80869339 C3.59621268,9.21742659 4.09274092,9.42179319 4.666273,9.42179319 C5.24473439,9.42179319 5.74406035,9.21742659 6.16291862,8.80869339 C6.587772,8.39996019 6.80013208,7.9118251 6.80013208,7.34375523 C6.80013208,6.97219171 6.70154585,6.63233565 6.50530595,6.32432027 C6.30946573,6.01097592 6.04634706,5.76197906 5.71741542,5.57559779 C5.39314664,5.39014909 5.04316551,5.29729151 4.666273,5.29729151 C4.29963879,5.29729151 3.95245537,5.39014909 3.62325728,5.57559779 C3.29365952,5.76197906 3.03120698,6.01097592 2.83496708,6.32432027 C2.63846073,6.63233565 2.54027417,6.97219171 2.54027417,7.34375523 C2.54027417,7.9118251 2.75250103,8.39996019 3.17722118,8.80869339 L3.17722118,8.80869339 Z M-5.32898566e-05,0.113387492 L2.54027417,0.105394014 L2.54027417,3.46585237 L2.72359128,3.38631726 L2.90677516,3.30664892 C3.47990757,3.0994846 4.06649566,2.99570261 4.666273,2.99570261 C5.2712461,2.99570261 5.86049869,3.0994846 6.43389754,3.30664892 C6.99117622,3.51354679 7.49290022,3.81876444 7.93880309,4.22230188 C8.37964343,4.62024389 8.72189753,5.08466499 8.96583185,5.61569841 C9.2153616,6.15179436 9.34005987,6.72759126 9.34005987,7.34375523 C9.34005987,7.97524003 9.2180261,8.55396787 8.97369211,9.07927263 C8.72975779,9.60471062 8.38497241,10.071663 7.93880309,10.4807959 C7.48743801,10.8895291 6.98558078,11.1950132 6.43389754,11.3964488 C5.87675209,11.6142711 5.28709983,11.7229824 4.666273,11.7229824 C3.85386914,11.7229824 3.08676165,11.5319383 2.36508377,11.1497168 C1.64260654,10.7726911 1.06974058,10.2525821 0.645020424,9.58872366 C0.220566716,8.93645582 0.00540892044,8.20611833 -5.32898566e-05,7.39917668 L-5.32898566e-05,0.113387492 Z" id="Fill-17" fill="#7159A5" mask="url(#mask-4)"></path>
                    </g>
                    <path d="M12.4821364,11.904088 C12.2854968,12.2174324 12.1877099,12.5592868 12.1877099,12.9308503 C12.1877099,13.493458 12.3998036,13.979195 12.8245237,14.3880614 C13.2436484,14.7918653 13.739777,14.9937007 14.3133091,14.9937007 C14.8921702,14.9937007 15.3909632,14.7918653 15.8102212,14.3880614 C16.235341,13.979195 16.4477011,13.493458 16.4477011,12.9308503 C16.4477011,12.5592868 16.3489816,12.2174324 16.1528749,11.904088 C15.956635,11.5904772 15.6937828,11.3414803 15.364718,11.1554987 C15.0407156,10.9748461 14.6903348,10.8843866 14.3133091,10.8843866 C13.9470745,10.8843866 13.599225,10.9748461 13.270693,11.1554987 C12.9410953,11.3414803 12.6783763,11.5904772 12.4821364,11.904088 L12.4821364,11.904088 Z M16.4552949,16.8167466 C16.2853002,16.8912192 16.1604687,16.9417114 16.0813333,16.9682231 C15.5189921,17.1857789 14.9290734,17.2947567 14.3133091,17.2947567 C13.5015713,17.2947567 12.7343306,17.1058441 12.0122531,16.7290848 C11.2901755,16.3468633 10.7170431,15.8266211 10.2924562,15.1683582 C9.86254027,14.4995705 9.6475157,13.7541786 9.6475157,12.9308503 C9.6475157,12.3100235 9.77221396,11.7315621 10.0218769,11.1950665 C10.2711402,10.6644327 10.6136608,10.2026761 11.048506,9.80939696 C11.4790881,9.41678394 11.9774814,9.11676205 12.5456845,8.90986418 C13.1136212,8.69217512 13.7032735,8.58333058 14.3133091,8.58333058 C14.9184154,8.58333058 15.5080677,8.68977707 16.0813333,8.90213715 C16.6547322,9.11423078 17.153392,9.41678394 17.5782454,9.80939696 C18.0238818,10.2130676 18.3689336,10.6748242 18.6135341,11.1950665 C18.8627974,11.7315621 18.9874956,12.3100235 18.9874956,12.9308503 L18.9797686,17.0793324 L16.4552949,17.055352 L16.4552949,16.8167466 Z" id="Fill-20" fill="#7159A5"></path>
                    <path d="M22.5324035,14.4041283 C22.9517947,14.8128615 23.4483229,15.0172281 24.021855,15.0172281 C24.6000499,15.0172281 25.0992427,14.8128615 25.5185006,14.4041283 C25.943354,13.9953951 26.1553144,13.50726 26.1553144,12.9391902 C26.1553144,12.5676266 26.0573943,12.2277706 25.8611544,11.9197552 C25.664648,11.6064109 25.4017958,11.357414 25.0725977,11.1710327 C24.7489951,10.985584 24.3983478,10.8927265 24.021855,10.8927265 C23.655354,10.8927265 23.3075045,10.985584 22.9784396,11.1710327 C22.649508,11.357414 22.3862561,11.6064109 22.1901494,11.9197552 C21.9936431,12.2277706 21.8957229,12.5676266 21.8957229,12.9391902 C21.8957229,13.50726 22.1076833,13.9953951 22.5324035,14.4041283 L22.5324035,14.4041283 Z M19.3552623,5.70882243 L21.8957229,5.70082895 L21.8957229,9.06128731 L22.0785071,8.9817522 L22.2615578,8.90208386 C22.8349567,8.69491954 23.4212783,8.59113755 24.021855,8.59113755 C24.6265616,8.59113755 25.215681,8.69491954 25.7896128,8.90208386 C26.3470247,9.10898173 26.8484822,9.41419938 27.2941186,9.81773682 C27.734959,10.2156788 28.0766802,10.6800999 28.3212806,11.2111333 C28.5710768,11.7472293 28.6959083,12.3230262 28.6959083,12.9391902 C28.6959083,13.570675 28.5733416,14.1494028 28.3294073,14.6747076 C28.0850733,15.2001456 27.7400215,15.6670979 27.2941186,16.0762308 C26.8431532,16.484964 26.3414292,16.7904481 25.7896128,16.9918838 C25.2318012,17.209706 24.6429483,17.3184174 24.021855,17.3184174 C23.2095844,17.3184174 22.4426101,17.1273732 21.7205325,16.7451517 C20.998455,16.368126 20.4250561,15.848017 20.0004692,15.1841586 C19.5756158,14.5318908 19.3608577,13.8015533 19.3552623,12.9946116 L19.3552623,5.70882243 Z" id="Fill-22" fill="#7159A5"></path>
                </g>
            </g>
        </g>
    </g>
</svg>