<svg xmlns="http://www.w3.org/2000/svg" width="20" height="20" viewBox="0 0 20 20">
    <g fill="none" fill-rule="evenodd" stroke="#484848" stroke-linecap="round" stroke-linejoin="round">
        <path stroke-width=".8" d="M10.735 4.875a6.534 6.534 0 0 1 2.85-1.256v9.633a13.465 13.465 0 0 0-3.709 1.262 783.11 783.11 0 0 1 0-8.476c-2.213-.765-4.16-.649-5.841.348v10.137c1.725-1.039 3.608-1.119 5.648-.24 1.953-.76 3.928-.799 5.924-.12V6.406l-.524-.321"/>
        <path stroke-width=".7" d="M11.14 7.27l1.213-.62M11.14 8.849l1.213-.619M11.14 10.443l1.213-.62M11.14 11.892l1.213-.619"/>
        <path stroke-width=".6" d="M5.558 10.209c.933-.566 1.905-.658 2.92-.276M5.558 8.68c.933-.567 1.905-.659 2.92-.276M5.558 11.918c.933-.566 1.905-.657 2.92-.275M5.558 13.644c.933-.566 1.905-.658 2.92-.275"/>
    </g>
</svg>
