<svg xmlns="http://www.w3.org/2000/svg" xmlns:xlink="http://www.w3.org/1999/xlink" width="17" height="20" viewBox="0 0 17 20">
    <defs>
        <path id="a" d="M7.87.34H.046v4.992h15.648V.34z"/>
    </defs>
    <g fill="none" fill-rule="evenodd">
        <path fill="#050008" d="M14.145 6.07a.3.3 0 0 1 .291-.308.3.3 0 0 1 .295.307v11.815c0 .523-.205.997-.53 1.342-.327.344-.779.557-1.272.557H3.862c-.494 0-.946-.213-1.273-.557a1.936 1.936 0 0 1-.53-1.342V6.07a.3.3 0 0 1 .292-.307c.16 0 .294.138.294.307v11.815c0 .352.137.674.357.906.22.232.527.38.86.38h9.064c.335 0 .64-.148.86-.38.22-.232.359-.554.359-.906V6.07z"/>
        <path fill="#050008" d="M6.215 17.089c0 .172-.13.31-.294.31-.161 0-.292-.138-.292-.31V6.147a.3.3 0 0 1 .292-.307.3.3 0 0 1 .294.307V17.09zM8.687 17.089c0 .172-.13.31-.292.31-.16 0-.291-.138-.291-.31V6.147a.3.3 0 0 1 .291-.307.3.3 0 0 1 .292.307V17.09zM11.162 17.089c0 .172-.131.31-.292.31a.302.302 0 0 1-.294-.31V6.147a.3.3 0 0 1 .294-.307.3.3 0 0 1 .292.307V17.09z"/>
        <g transform="translate(.548 -.268)">
            <mask id="b" fill="#fff">
                <use xlink:href="#a"/>
            </mask>
            <path fill="#050008" d="M5.494 2.239c0 .169-.13.31-.291.31-.161 0-.292-.141-.292-.31 0-.523.202-.997.53-1.341A1.745 1.745 0 0 1 6.713.34H8.98c.494 0 .946.213 1.274.558.327.344.529.82.529 1.34 0 .17-.131.311-.292.311-.163 0-.294-.141-.294-.31 0-.35-.137-.674-.357-.906a1.187 1.187 0 0 0-.86-.375H6.713c-.332 0-.638.143-.859.375-.22.232-.36.555-.36.906zM1.047 3.126h13.597c.288 0 .55.122.74.322v.003c.191.201.31.477.31.778v.795a.3.3 0 0 1-.294.308H.292A.3.3 0 0 1 0 5.024V4.23c0-.301.119-.577.306-.778l.003-.003c.19-.2.453-.322.738-.322zm13.597.613H1.047a.455.455 0 0 0-.327.145.5.5 0 0 0-.134.345v.488h14.522V4.23a.5.5 0 0 0-.137-.345.453.453 0 0 0-.327-.145z" mask="url(#b)"/>
        </g>
    </g>
</svg>
