<svg xmlns="http://www.w3.org/2000/svg" width="18" height="18" viewBox="0 0 18 18">
    <g fill="none" fill-rule="evenodd" stroke="#484848">
        <g stroke-width=".8" transform="translate(1 2)">
            <path stroke-linecap="round" stroke-linejoin="round" d="M8.415 6.563a5.768 5.768 0 0 0-2.712-.654C2.6 5.909.085 8.395.085 11.779v1.494h5.618"/>
            <circle cx="5.747" cy="3.268" r="3.248" fill="#FFF"/>
        </g>
        <path fill="#484848" stroke-linecap="round" stroke-linejoin="round" stroke-width=".1" d="M15.018 7.477l-1.016-.712a.92.92 0 0 0-1.28.226l-3.843 5.49-.227 2.473-.13.185a.307.307 0 0 0 .073.427v.006l.006-.002a.305.305 0 0 0 .425-.077l.13-.186 2.245-1.059 3.843-5.49a.92.92 0 0 0-.226-1.28zm-5.411 5.039l2.557-3.654 1.514 1.06-2.558 3.654-1.513-1.06zm-.17.632l1.148.805-1.278.602.13-1.407zm5.303-4.743l-.71 1.012-1.512-1.06.708-1.012a.304.304 0 0 1 .423-.075l1.016.712c.137.096.17.286.075.423z"/>
    </g>
</svg>
