<svg xmlns="http://www.w3.org/2000/svg" width="30" height="27" viewBox="0 0 30 27">
    <g fill="none" fill-rule="evenodd" stroke="#979797">
        <path stroke-linecap="round" stroke-linejoin="round" stroke-width="2" d="M8.15 21.738A3.15 3.15 0 0 1 5 18.588V8.15A3.15 3.15 0 0 1 8.15 5h4.979c1.16 0 2.1.94 2.1 2.1v14.638h-2.924"/>
        <path stroke-width="2" d="M22.729 5H17.5a2 2 0 0 0-2 2v14.738h7.229a3 3 0 0 0 3-3V8a3 3 0 0 0-3-3z"/>
        <path stroke-linecap="round" stroke-linejoin="round" stroke-width="1.5" d="M8.15 10.04h2.52M8.15 13.19h3.43M8.15 16.55h3.43M18.935 16.55h3.16"/>
        <path fill="#979797" stroke-linecap="round" stroke-linejoin="round" stroke-width="1.5" d="M18.935 10.452h3.16v2.268h-3.16z"/>
    </g>
</svg>
