<svg xmlns="http://www.w3.org/2000/svg" width="33" height="29" viewBox="0 0 33 29">
    <g fill="#000" fill-rule="evenodd">
        <path d="M27.825 9.343c-.287-4.903-4.328-8.82-9.2-8.82-2.956 0-5.817 1.45-7.594 3.815-.04-.02-.082-.034-.122-.055-.108-.05-.218-.101-.33-.146-.063-.025-.124-.046-.188-.07a6.82 6.82 0 0 0-.335-.103c-.064-.016-.125-.035-.191-.048-.12-.03-.245-.05-.373-.066a1.421 1.421 0 0 0-.165-.027 4.906 4.906 0 0 0-5.448 4.868c0 .07.002.139.008.208-2.266 1.233-3.82 3.82-3.82 6.41a7.002 7.002 0 0 0 6.995 6.996h2.805a.546.546 0 0 0 0-1.09H7.062a5.91 5.91 0 0 1-5.905-5.905c0-2.263 1.473-4.611 3.501-5.584l.308-.146v-.343c0-.067.006-.136.009-.205l.005-.096-.005-.1c-.003-.049-.009-.097-.009-.145 0-2.1 1.71-3.813 3.814-3.813.167 0 .334.017.5.038.042.005.082.013.124.018.147.027.29.057.431.099l.056.013a3.974 3.974 0 0 1 .954.447A3.812 3.812 0 0 1 12.59 8.69a.546.546 0 0 0 1.09 0c0-1.5-.677-2.842-1.741-3.74 1.56-2.043 4.132-3.337 6.688-3.337 4.217 0 7.72 3.34 8.086 7.561-.556-.04-1.391-.06-2.223.067a.546.546 0 0 0 .082 1.084.507.507 0 0 0 .082-.007c1.21-.184 2.473-.01 2.55 0 2.537.481 4.446 2.815 4.446 5.437a5.464 5.464 0 0 1-5.459 5.459h-2.164a.546.546 0 0 0 0 1.09h2.164a6.556 6.556 0 0 0 6.55-6.549c0-2.989-2.085-5.671-4.915-6.413z"/>
        <path d="M17.333 14.842a.53.53 0 0 0-.178-.118.534.534 0 0 0-.415 0 .518.518 0 0 0-.178.118l-4.355 4.355a.544.544 0 0 0 .768.77l3.428-3.426v11.21a.546.546 0 0 0 1.09 0V16.54l3.425 3.427a.543.543 0 0 0 .77 0 .546.546 0 0 0 0-.77l-4.355-4.356z"/>
    </g>
</svg>
