<svg xmlns="http://www.w3.org/2000/svg" width="20" height="21" viewBox="0 0 20 21">
    <g fill="#000" fill-rule="evenodd">
        <path d="M18.736 8.296h-1.83a.685.685 0 0 1-.649-.433.686.686 0 0 1 .152-.766l1.294-1.294a1.007 1.007 0 0 0 0-1.423l-1.65-1.65a1.03 1.03 0 0 0-1.423 0l-1.293 1.295a.681.681 0 0 1-.764.152.684.684 0 0 1-.435-.649v-1.83c0-.555-.451-1.006-1.006-1.006H8.8c-.555 0-1.006.451-1.006 1.006v1.83a.685.685 0 0 1-.433.649.683.683 0 0 1-.766-.152L5.301 2.73a1.03 1.03 0 0 0-1.423 0L2.228 4.38c-.189.19-.293.444-.293.713a1 1 0 0 0 .294.71l1.294 1.294a.686.686 0 0 1 .152.766.683.683 0 0 1-.649.433h-1.83C.641 8.296.19 8.747.19 9.302v2.332c0 .555.45 1.006 1.006 1.006h1.83c.293 0 .535.163.649.435a.681.681 0 0 1-.152.764l-1.294 1.294c-.19.189-.294.444-.294.71a1 1 0 0 0 .294.713l1.649 1.65c.38.38 1.043.38 1.423 0l1.294-1.295a.686.686 0 0 1 .766-.152c.27.113.433.355.433.65v1.83c0 .554.45 1.005 1.006 1.005h2.332c.555 0 1.006-.451 1.006-1.006v-1.83c0-.294.163-.536.433-.649a.683.683 0 0 1 .766.152l1.293 1.294c.38.38 1.044.38 1.424 0l1.65-1.649a1.006 1.006 0 0 0 0-1.423l-1.295-1.294a.684.684 0 0 1-.152-.764.683.683 0 0 1 .65-.435h1.829c.555 0 1.006-.451 1.006-1.006V9.302c0-.555-.451-1.006-1.006-1.006zm.283 3.338a.284.284 0 0 1-.283.283h-1.83c-.587 0-1.092.338-1.317.88a1.399 1.399 0 0 0 .31 1.554l1.291 1.294a.28.28 0 0 1 0 .4l-1.647 1.647a.282.282 0 0 1-.4 0L13.85 16.4a1.402 1.402 0 0 0-1.554-.31c-.543.226-.88.731-.88 1.318v1.83a.284.284 0 0 1-.283.283H8.8a.284.284 0 0 1-.283-.283v-1.83c0-.587-.336-1.092-.88-1.317a1.408 1.408 0 0 0-1.554.308L4.79 17.691a.284.284 0 0 1-.401 0L2.74 16.045a.286.286 0 0 1 0-.401l1.294-1.293a1.402 1.402 0 0 0 .308-1.554 1.403 1.403 0 0 0-1.317-.88h-1.83a.282.282 0 0 1-.28-.283V9.302c0-.155.125-.283.28-.283h1.83a1.4 1.4 0 0 0 1.317-.88 1.4 1.4 0 0 0-.308-1.554L2.741 5.292a.286.286 0 0 1 0-.401L4.39 3.243c.111-.109.29-.109.401 0l1.293 1.293a1.401 1.401 0 0 0 1.554.31 1.4 1.4 0 0 0 .88-1.318v-1.83c0-.155.128-.28.283-.28h2.332c.156 0 .283.125.283.28v1.83c0 .589.337 1.093.88 1.317a1.402 1.402 0 0 0 1.554-.308l1.294-1.294c.11-.109.29-.109.4 0l1.647 1.65a.28.28 0 0 1 0 .4l-1.292 1.292a1.404 1.404 0 0 0-.31 1.556c.226.542.731.88 1.318.88h1.83a.281.281 0 0 1 .283.28v2.333z"/>
        <path d="M9.967 7.209a3.264 3.264 0 0 0-3.26 3.26 3.263 3.263 0 0 0 3.26 3.258 3.263 3.263 0 0 0 3.258-3.258 3.263 3.263 0 0 0-3.258-3.26zm0 5.793a2.537 2.537 0 0 1-2.535-2.533 2.538 2.538 0 0 1 2.535-2.535 2.537 2.537 0 0 1 2.533 2.535 2.536 2.536 0 0 1-2.533 2.533z"/>
    </g>
</svg>
