<?xml version="1.0" encoding="UTF-8"?>
<svg width="18px" height="18px" viewBox="0 0 18 18" version="1.1" xmlns="http://www.w3.org/2000/svg" xmlns:xlink="http://www.w3.org/1999/xlink">
    <!-- Generator: sketchtool 48.2 (47327) - http://www.bohemiancoding.com/sketch -->
    <title>E23DD059-3115-470C-90E7-987F8D44CFBD</title>
    <desc>Created with sketchtool.</desc>
    <defs></defs>
    <g id="Symbols" stroke="none" stroke-width="1" fill="none" fill-rule="evenodd" stroke-linecap="round" stroke-linejoin="round">
        <g id="message" stroke="#767676">
            <g id="Group" transform="translate(2.000000, 4.000000)">
                <g id="Group-9">
                    <path d="M2.14285714,10.7142857 C0.959389822,10.7142857 1.44932947e-16,9.75489589 0,8.57142857 L0,2.14285714 C-1.44932947e-16,0.959389822 0.959389822,2.1739942e-16 2.14285714,0 L12.8571429,0 C14.0406102,-2.1739942e-16 15,0.959389822 15,2.14285714 L15,8.57142857 C15,9.75489589 14.0406102,10.7142857 12.8571429,10.7142857 L4.68449184,10.7142857" id="Rectangle"></path>
                    <path d="M1.07142857,1.07142857 L6.49894519,5.46029509 C7.22576363,6.04802412 8.26273647,6.05394583 8.99621982,5.47455595 L14.5703949,1.07142857" id="Path-2"></path>
                    <path d="M3.34235604,5.22588309 L5.8172707,7.74732362 M9.93647481,7.57757435 L12.2994675,5.22588309" id="Path-2-Copy" transform="translate(7.820912, 6.486603) scale(1, -1) translate(-7.820912, -6.486603) "></path>
                </g>
            </g>
        </g>
    </g>
</svg>