<svg id="Group_5" data-name="Group 5" xmlns="http://www.w3.org/2000/svg" viewBox="0 0 42 42">
  <defs>
    <style>
      .cls-1 {
        fill: #623faa;
      }

      .cls-2 {
        fill: none;
        stroke: #fff;
        stroke-linecap: round;
        stroke-linejoin: round;
        stroke-miterlimit: 10;
        stroke-width: 2px;
      }

      .cls-3 {
        fill: #fff;
      }
    </style>
  </defs>
  <circle id="Oval_2" data-name="Oval 2" class="cls-1" cx="21" cy="21" r="21"/>
  <g id="pdf" transform="translate(9 9)">
    <g id="Group_5-2" data-name="Group 5" transform="translate(4 4)">
      <path id="Rectangle_8" data-name="Rectangle 8" class="cls-2" d="M11.33,16H1.75A1.888,1.888,0,0,1,0,14V2A1.888,1.888,0,0,1,1.75,0h10.5A1.888,1.888,0,0,1,14,2V14.649" transform="translate(3)"/>
      <rect id="Rectangle" class="cls-3" width="14" height="7" rx="1" transform="translate(0 6)"/>
      <path id="PDF-2" data-name="PDF" class="cls-1" d="M6.8,3H5.973V0H8V.664H6.8v.572H7.828V1.9H6.8V3ZM3.871,3H2.905V0h.918A2.4,2.4,0,0,1,4.47.083a1.322,1.322,0,0,1,.5.264A1.2,1.2,0,0,1,5.3.807a1.77,1.77,0,0,1,.118.679,1.841,1.841,0,0,1-.115.683,1.24,1.24,0,0,1-.322.471,1.322,1.322,0,0,1-.492.273A2.124,2.124,0,0,1,3.871,3ZM3.728.637V2.363h.048a1.236,1.236,0,0,0,.315-.04.6.6,0,0,0,.256-.136.657.657,0,0,0,.17-.268,1.281,1.281,0,0,0,.062-.434,1.244,1.244,0,0,0-.062-.429A.619.619,0,0,0,4.346.8.6.6,0,0,0,4.09.671,1.424,1.424,0,0,0,3.776.637ZM.822,3H0V0H1.138A2.3,2.3,0,0,1,1.62.049a1.118,1.118,0,0,1,.4.166A.855.855,0,0,1,2.3.524,1,1,0,0,1,2.4,1a1.032,1.032,0,0,1-.1.475.927.927,0,0,1-.275.325,1.185,1.185,0,0,1-.4.19,1.724,1.724,0,0,1-.468.062H.822V3Zm0-2.372v.794h.3a.508.508,0,0,0,.36-.111A.411.411,0,0,0,1.6,1a.314.314,0,0,0-.13-.286A.677.677,0,0,0,1.1.627Z" transform="translate(3 8)"/>
    </g>
  </g>
</svg>
