<svg id="Group_4" data-name="Group 4" xmlns="http://www.w3.org/2000/svg" viewBox="0 0 42 42">
  <defs>
    <style>
      .cls-1 {
        fill: #623faa;
      }

      .cls-2 {
        fill: #fff;
      }

      .cls-2, .cls-3 {
        stroke: #fff;
        stroke-miterlimit: 10;
      }

      .cls-3 {
        fill: none;
        stroke-linecap: round;
      }
    </style>
  </defs>
  <circle id="Oval_2_Copy" data-name="Oval 2 Copy" class="cls-1" cx="21" cy="21" r="21"/>
  <g id="nulis" transform="translate(9 9)">
    <g id="_003-pen" data-name="003-pen" transform="translate(4 3)">
      <path id="Fill_1" data-name="Fill 1" class="cls-2" d="M.392,10a.39.39,0,0,1-.275-.113.372.372,0,0,1-.081-.427L1.8,5.212a.251.251,0,0,1,.057-.084l.01-.01L3.12,3.9a.265.265,0,0,1,.368,0,.251.251,0,0,1,0,.359L2.42,5.3,4.814,7.637,12.556.075a.264.264,0,0,1,.368,0,.249.249,0,0,1,0,.359L4.988,8.185A.252.252,0,0,1,4.9,8.24L.554,9.966A.422.422,0,0,1,.392,10Zm1.75-4.255L.626,9.389,4.357,7.908,2.141,5.745Z" transform="translate(0 8)"/>
      <path id="Fill_3" data-name="Fill 3" class="cls-2" d="M7.269,12a.26.26,0,0,1-.183-.443l4.7-4.717a.106.106,0,0,0,.031-.074.107.107,0,0,0-.031-.074l-.668-.67-1.292,1.3A.257.257,0,0,1,9.64,7.4a.259.259,0,0,1-.184-.443l.634-.637L7.71,3.926l-7.269,7.3a.259.259,0,0,1-.365,0,.262.262,0,0,1,0-.367l9.58-9.623a.578.578,0,0,1,.819,0l.247.248L11.828.374a1.271,1.271,0,0,1,1.8,0,1.285,1.285,0,0,1,0,1.808L12.522,3.292l.247.248a.584.584,0,0,1,0,.823L11.481,5.656l.667.67a.626.626,0,0,1,0,.882l-4.7,4.717A.257.257,0,0,1,7.269,12ZM9.028,2.6l-.952.956L10.457,5.95l.951-.956Zm1.038-1.017a.066.066,0,0,0-.044.018l-.628.632,2.38,2.391L12.4,4a.061.061,0,0,0,.018-.044.066.066,0,0,0-.018-.044L10.11,1.6A.066.066,0,0,0,10.066,1.586ZM12.728.519a.75.75,0,0,0-.535.222L11.087,1.851l1.069,1.074,1.106-1.111a.763.763,0,0,0,0-1.074A.748.748,0,0,0,12.728.519Z" transform="translate(4)"/>
      <path id="Path_2" data-name="Path 2" class="cls-3" d="M0,.138A8.331,8.331,0,0,0,3.9,1.494c1.893,0,4.446-2.034,7.663-1.356a27.085,27.085,0,0,0,5,.678" transform="translate(0.265 17.703)"/>
    </g>
  </g>
</svg>
