<svg xmlns="http://www.w3.org/2000/svg" width="30" height="27" viewBox="0 0 30 27">
    <g fill="none" fill-rule="evenodd" stroke-linecap="round" stroke-linejoin="round" stroke-width="1.2">
        <path fill="#6454BD" stroke="#6454BD" d="M27.063 12.685H6.833a3.841 3.841 0 0 0 0 7.682h20.23a5.16 5.16 0 0 1-1.708-3.84 5.16 5.16 0 0 1 1.708-3.842z"/>
        <path stroke="#FFF" d="M24.881 16.526H9.613"/>
        <path fill="#6454BD" stroke="#FFF" d="M10.856 16.523h6.145v8.084l-3.02-2.133-3.125 2.133z"/>
        <path fill="#6454BD" stroke="#6454BD" d="M25.185 3.97H9.89a3.133 3.133 0 1 0 0 6.265h15.295a4.208 4.208 0 0 1-1.393-3.133c0-1.243.537-2.36 1.393-3.133z"/>
        <path stroke="#FFF" d="M23.88 7.203H11.542"/>
    </g>
</svg>
