<svg xmlns="http://www.w3.org/2000/svg" width="30" height="27" viewBox="0 0 30 27">
    <g fill="none" fill-rule="evenodd" stroke="#979797" stroke-linecap="round" stroke-linejoin="round">
        <path fill="#FFF" stroke-width="2" d="M17.851 20.009h-9.21a3.226 3.226 0 0 1 0-6.453h16.992a4.334 4.334 0 0 0-1.435 3.226c0 1.28.554 2.432 1.435 3.227h-4.236"/>
        <path stroke-width="1.5" d="M23.8 16.782H10.975"/>
        <path fill="#FFF" stroke-width="1.5" d="M12.2 16.779H17v5.493l-2.359-1.45-2.441 1.45z"/>
        <path fill="#FFF" stroke-width="2" d="M11.208 10.657a2.631 2.631 0 1 1 0-5.263h12.847a3.534 3.534 0 0 0-1.17 2.631c0 1.045.452 1.983 1.17 2.632H15.25"/>
        <path d="M22.36 8.11H17.7"/>
    </g>
</svg>
