<?xml version="1.0" encoding="UTF-8" standalone="no"?>
<svg width="30px" height="27px" viewBox="0 0 30 27" version="1.1" xmlns="http://www.w3.org/2000/svg" xmlns:xlink="http://www.w3.org/1999/xlink">
    <!-- Generator: sketchtool 47.1 (45422) - http://www.bohemiancoding.com/sketch -->
    <title>7C62D3D3-105D-4411-96E1-5B0A1B5FE449</title>
    <desc>Created with sketchtool.</desc>
    <defs></defs>
    <g id="Symbols" stroke="none" stroke-width="1" fill="none" fill-rule="evenodd" stroke-linecap="round" opacity="0.5" stroke-linejoin="round">
        <g id="libraryIcon" stroke="#333333">
            <g id="Group" transform="translate(2.500000, 3.500000)">
                <path d="M24.5634064,9.18549692 L4.3335059,9.18549692 L4.3335059,9.18549692 C2.21219019,9.18549692 0.492524029,10.9051631 0.492524029,13.0264788 L0.492524029,13.0264788 L0.492524029,13.0264788 C0.492524029,15.1477945 2.21219019,16.8674607 4.3335059,16.8674607 L4.3335059,16.8674607 L24.5634064,16.8674607 C23.5144676,15.920854 22.8551939,14.5506572 22.8551939,13.0264788 L22.8551939,13.0264788 L22.8551939,13.0264788 C22.8551939,11.5023004 23.5144676,10.1321036 24.5634064,9.18549692 Z" id="Combined-Shape-Copy" fill="#FFFFFF"></path>
                <path d="M22.3809524,13.0264788 L7.11312425,13.0264788" id="Line" stroke-width="0.6"></path>
                <polygon id="Rectangle-2" stroke-width="0.6" fill="#FFFFFF" points="8.57142857 13.0225552 14.2857143 13.0225552 14.2857143 19.5622737 11.4778932 17.8365483 8.57142857 19.5622737"></polygon>
                <path d="M22.6847408,0.469061638 L7.39033896,0.469061638 C5.66023783,0.469061638 4.25771376,1.87158572 4.25771376,3.60168684 L4.25771376,3.60168684 L4.25771376,3.60168684 C4.25771376,5.33178797 5.66023783,6.73431205 7.39033896,6.73431205 L22.6847408,6.73431205 C21.829248,5.96227926 21.2915581,4.84477516 21.2915581,3.60168684 L21.2915581,3.60168684 L21.2915581,3.60168684 C21.2915581,2.35859853 21.829248,1.24109443 22.6847408,0.469061638 Z" id="Combined-Shape" fill="#FFFFFF"></path>
                <path d="M21.2053897,3.70260311 L8.86797489,3.70260311" id="Line-Copy" stroke-width="0.6"></path>
            </g>
        </g>
    </g>
</svg>