<svg xmlns="http://www.w3.org/2000/svg" width="20" height="20" viewBox="0 0 20 20">
    <g fill="#484848" fill-rule="evenodd" stroke="#484848" stroke-linecap="round" stroke-linejoin="round" stroke-width=".3">
        <path d="M13.645 12.588a.209.209 0 0 1-.144-.057l-2.422-2.272a.214.214 0 0 1-.01-.298.211.211 0 0 1 .298-.008l2.424 2.271a.211.211 0 0 1-.146.364zM5.56 12.588a.21.21 0 0 1-.146-.364l2.423-2.271a.21.21 0 1 1 .29.306l-2.424 2.272a.207.207 0 0 1-.144.057z"/>
        <path d="M15.078 14.702H4.126c-.58 0-1.053-.47-1.053-1.053V6.472c0-.58.473-1.053 1.053-1.053h10.952c.58 0 1.053.473 1.053 1.053v7.177c0 .582-.474 1.053-1.053 1.053zM4.126 5.84a.633.633 0 0 0-.631.63v7.178c0 .35.284.631.63.631h10.953a.63.63 0 0 0 .631-.631V6.472a.631.631 0 0 0-.631-.631H4.126z"/>
        <path d="M9.603 11.119c-.282 0-.561-.093-.773-.278L3.423 6.124a.21.21 0 1 1 .277-.318l5.405 4.716a.79.79 0 0 0 .994 0l5.398-4.708a.212.212 0 0 1 .298.02.21.21 0 0 1-.02.297l-5.4 4.708c-.213.187-.492.28-.772.28z"/>
    </g>
</svg>
