<svg xmlns="http://www.w3.org/2000/svg" width="25" height="17" viewBox="0 0 25 17">
    <g fill="#2E2E2E" fill-rule="evenodd">
        <path d="M19.136 12.683a.34.34 0 0 1-.235-.093l-3.944-3.7a.348.348 0 0 1-.018-.487.344.344 0 0 1 .487-.013l3.948 3.7a.344.344 0 0 1-.238.593zM5.964 12.683a.343.343 0 0 1-.238-.592l3.95-3.7a.343.343 0 1 1 .472.498l-3.95 3.7a.338.338 0 0 1-.234.094z"/>
        <path d="M21.47 16.126H3.63a1.715 1.715 0 0 1-1.715-1.714V2.72c0-.944.77-1.715 1.715-1.715h17.84c.945 0 1.716.77 1.716 1.715v11.692c0 .948-.771 1.714-1.715 1.714zM3.63 1.692A1.03 1.03 0 0 0 2.602 2.72v11.692c0 .569.462 1.028 1.028 1.028h17.84c.57 0 1.029-.46 1.029-1.028V2.72c0-.566-.459-1.028-1.028-1.028H3.63z"/>
        <path d="M12.552 10.29a1.91 1.91 0 0 1-1.259-.453L2.484 2.154a.344.344 0 1 1 .452-.519l8.805 7.683c.44.382 1.18.382 1.618 0l8.794-7.67a.346.346 0 0 1 .486.033.341.341 0 0 1-.033.483l-8.795 7.67a1.908 1.908 0 0 1-1.26.455z"/>
    </g>
</svg>
