<svg xmlns="http://www.w3.org/2000/svg" xmlns:xlink="http://www.w3.org/1999/xlink" width="30" height="27" viewBox="0 0 30 27">
    <defs>
        <path id="a" d="M6.032 7.651a.798.798 0 1 0 .002 1.595.798.798 0 0 0-.002-1.595z"/>
        <path id="b" d="M13.203 7.651a.798.798 0 1 0 .002 1.595.798.798 0 0 0-.002-1.595z"/>
    </defs>
    <g fill="none" fill-rule="evenodd">
        <path fill="#6454BD" stroke="#6454BD" stroke-width=".2" d="M10.744 6.983a2.792 2.792 0 0 0-2.79 2.79 2.792 2.792 0 0 0 2.79 2.788 2.792 2.792 0 0 0 2.788-2.789 2.792 2.792 0 0 0-2.788-2.789z"/>
        <path fill="#6454BD" stroke="#6454BD" stroke-width=".2" d="M5.967 11.31a.398.398 0 0 0 .789.112c.408-2.861-.39-4.9-.436-5.014-.007-.014-.622-1.292-.737-3.793l2.531 1.898c.105.079.24.1.365.06.023-.008 2.38-.777 5.85-.777 3.47 0 5.827.769 5.85.777.125.04.26.019.365-.06l2.531-1.898c-.114 2.5-.731 3.782-.75 3.822-.034.085-.831 2.124-.423 4.985a.398.398 0 1 0 .79-.113c-.377-2.63.361-4.546.36-4.546.034-.069.838-1.715.838-4.959a.399.399 0 0 0-.637-.318l-3.025 2.268C19.571 3.562 17.386 3 14.33 3s-5.242.563-5.899.755L5.405 1.486a.397.397 0 0 0-.637.318c0 3.244.804 4.89.825 4.93.007.018.753 1.923.374 4.575z"/>
        <path fill="#6454BD" stroke="#6454BD" stroke-width=".3" d="M15.363 13.276c-.105-.055-.245-.032-.315.048l-.719.837-.72-.837c-.069-.08-.21-.103-.314-.048-.104.054-.132.163-.063.244l.908 1.056a.25.25 0 0 0 .189.078.25.25 0 0 0 .189-.078l.908-1.056c.07-.081.041-.19-.063-.244z"/>
        <g transform="translate(4.712 1.324)">
            <use fill="#6454BD" xlink:href="#a"/>
            <path stroke="#FFF" stroke-width=".7" d="M6.032 7.301a1.148 1.148 0 1 1-.002 2.295 1.148 1.148 0 0 1 .002-2.295z"/>
        </g>
        <g fill="#6454BD">
            <path stroke="#6454BD" stroke-width=".2" d="M20.703 9.772a2.792 2.792 0 0 0-2.789-2.789 2.792 2.792 0 0 0-2.788 2.79 2.792 2.792 0 0 0 2.788 2.788 2.792 2.792 0 0 0 2.79-2.789z"/>
            <path stroke="#6454BD" stroke-width=".2" d="M22.617 12.569c-.052.01-1.273.268-2.167 1.64-1.013 1.554-1.194 3.843-.537 6.804a.399.399 0 0 0 .778-.172c-.597-2.69-.454-4.825.412-6.175.446-.695.982-1.034 1.325-1.192.81 3.06.306 6.597-1.273 8.733-.476.644-1.25 1.395-2.277 1.49a1.589 1.589 0 0 0-1.362-.778c-.587 0-1.095.323-1.371.797h-3.631a1.588 1.588 0 0 0-1.372-.797 1.59 1.59 0 0 0-1.361.777c-1.029-.099-1.804-.852-2.282-1.498-1.578-2.137-2.08-5.67-1.269-8.724.338.156.867.49 1.31 1.17.879 1.348 1.026 3.491.424 6.197a.398.398 0 1 0 .778.172c.658-2.96.479-5.25-.534-6.804-.893-1.372-2.115-1.63-2.167-1.64a.399.399 0 0 0-.459.273c-1.036 3.367-.51 7.409 1.277 9.829.774 1.048 1.698 1.665 2.693 1.808 0 .011-.003.022-.003.034 0 .439.357.796.796.796h1.594c.44 0 .797-.357.797-.796h3.187c0 .439.357.796.797.796h1.593c.44 0 .797-.357.797-.796 0-.011-.003-.021-.003-.032.994-.14 1.916-.755 2.69-1.8 1.788-2.42 2.314-6.465 1.28-9.839a.397.397 0 0 0-.46-.273zM10.345 24.513a.798.798 0 0 1 1.594 0h-1.594zm6.374 0a.798.798 0 0 1 1.594 0H16.72z"/>
            <path d="M5.924 13.05l-.483 3.21.483 3.392 1.472 2.521 1.163-5.913-1.163-2.3zM22.886 13.05l.484 3.21-.484 3.392-1.47 2.521-1.165-5.913 1.164-2.3z"/>
        </g>
        <g transform="translate(4.712 1.324)">
            <use fill="#6454BD" xlink:href="#b"/>
            <path stroke="#FFF" stroke-width=".7" d="M13.203 7.301a1.148 1.148 0 1 1-.002 2.296 1.148 1.148 0 0 1 .002-2.296z"/>
        </g>
        <path fill="#FFF" stroke="#6454BD" stroke-linecap="round" stroke-linejoin="round" d="M14.318 18.42c-2.125-2.173-4.373-2.7-6.744-1.582-.102 2.363-.215 5.469 0 7.395 2.185.552 4.433.552 6.744 0V18.42z"/>
        <path fill="#FFF" stroke="#6454BD" stroke-linecap="round" stroke-linejoin="round" d="M14.279 18.42c2.125-2.173 4.373-2.7 6.744-1.582.102 2.363.215 5.469 0 7.395-2.185.552-4.433.552-6.744 0V18.42z"/>
    </g>
</svg>
