<svg xmlns="http://www.w3.org/2000/svg" width="30" height="27" viewBox="0 0 30 27">
    <g fill="none" fill-rule="evenodd">
        <path fill="#979797" stroke="#979797" d="M7.254 11.244a.34.34 0 0 0 .675.097c.35-2.448-.333-4.19-.373-4.288-.006-.013-.532-1.106-.63-3.244l2.165 1.623a.34.34 0 0 0 .312.05c.02-.006 2.035-.663 5.003-.663 2.967 0 4.983.657 5.003.664a.34.34 0 0 0 .312-.05l2.165-1.624c-.098 2.138-.626 3.234-.642 3.268-.029.073-.711 1.816-.361 4.264a.34.34 0 0 0 .337.292c.234-.03.364-.203.337-.389-.321-2.25.31-3.888.308-3.888.03-.058.718-1.466.718-4.24a.341.341 0 0 0-.545-.273l-2.587 1.94c-.563-.164-2.43-.645-5.045-.645-2.615 0-4.483.48-5.045.645l-2.587-1.94a.34.34 0 0 0-.545.272c0 2.775.688 4.183.706 4.216.006.016.644 1.644.32 3.913zM15.29 12.926c-.09-.047-.21-.028-.27.042l-.614.715-.615-.715c-.06-.07-.18-.089-.27-.042-.089.046-.113.14-.053.209l.776.903a.214.214 0 0 0 .162.067.214.214 0 0 0 .161-.067l.777-.903c.06-.07.035-.163-.054-.21z"/>
        <g fill="#979797">
            <path stroke="#979797" stroke-width=".8" d="M11.53 7.294a2.356 2.356 0 0 0-2.354 2.353A2.356 2.356 0 0 0 11.53 12a2.356 2.356 0 0 0 2.353-2.353 2.356 2.356 0 0 0-2.353-2.353zm0 4.034c-.927 0-1.681-.754-1.681-1.68 0-.928.754-1.682 1.68-1.682.927 0 1.681.754 1.681 1.681s-.754 1.68-1.68 1.68zM17.412 7.294a2.356 2.356 0 0 0-2.353 2.353A2.356 2.356 0 0 0 17.412 12a2.356 2.356 0 0 0 2.353-2.353 2.356 2.356 0 0 0-2.353-2.353zm0 4.034c-.927 0-1.68-.754-1.68-1.68 0-.928.753-1.682 1.68-1.682.927 0 1.68.754 1.68 1.681s-.753 1.68-1.68 1.68z"/>
            <path d="M11.559 9.412a.795.795 0 1 0 .001 1.59.795.795 0 0 0-.001-1.59zM17.488 9.412a.795.795 0 1 0 .002 1.59.795.795 0 0 0-.002-1.59z"/>
        </g>
        <path fill="#979797" stroke="#979797" d="M21.494 12.321c-.044.009-1.089.23-1.854 1.403-.866 1.329-1.02 3.286-.46 5.819a.341.341 0 0 0 .666-.147c-.51-2.3-.388-4.127.353-5.281.381-.594.84-.885 1.133-1.02.693 2.618.262 5.642-1.088 7.469-.408.55-1.07 1.193-1.948 1.274a1.359 1.359 0 0 0-1.164-.665c-.503 0-.937.276-1.173.681h-3.106a1.358 1.358 0 0 0-1.173-.681 1.36 1.36 0 0 0-1.164.664c-.88-.084-1.543-.729-1.95-1.281-1.35-1.827-1.78-4.848-1.087-7.46.29.133.742.418 1.121 1 .752 1.153.877 2.986.363 5.3a.34.34 0 1 0 .665.147c.563-2.532.41-4.49-.457-5.82-.764-1.172-1.809-1.393-1.853-1.402a.341.341 0 0 0-.393.234c-.885 2.88-.436 6.336 1.092 8.405.662.897 1.452 1.424 2.303 1.547l-.002.029c0 .375.305.68.68.68h1.364a.682.682 0 0 0 .681-.68h2.726c0 .375.305.68.681.68h1.363a.682.682 0 0 0 .681-.68l-.002-.027c.85-.12 1.638-.646 2.3-1.54 1.53-2.069 1.98-5.529 1.094-8.414a.34.34 0 0 0-.392-.234zM10.999 22.536a.682.682 0 0 1 1.363 0h-1.363zm5.451 0a.682.682 0 0 1 1.363 0H16.45z"/>
        <path fill="#FFF" stroke="#979797" stroke-linecap="round" stroke-linejoin="round" stroke-width="2" d="M14.396 17.222c-1.817-1.86-3.74-2.31-5.767-1.354-.087 2.021-.184 4.677 0 6.324 1.869.473 3.791.473 5.767 0v-4.97z"/>
        <path fill="#FFF" stroke="#979797" stroke-linecap="round" stroke-linejoin="round" stroke-width="2" d="M14.363 17.222c1.817-1.86 3.74-2.31 5.767-1.354.088 2.021.184 4.677 0 6.324-1.868.473-3.79.473-5.767 0v-4.97z"/>
    </g>
</svg>
