<?xml version="1.0" encoding="UTF-8" standalone="no"?>
<svg width="30px" height="27px" viewBox="0 0 30 27" version="1.1" xmlns="http://www.w3.org/2000/svg" xmlns:xlink="http://www.w3.org/1999/xlink">
    <!-- Generator: sketchtool 47.1 (45422) - http://www.bohemiancoding.com/sketch -->
    <title>A17815BD-CEB3-49B3-B9F1-2004C6F0DDE8</title>
    <desc>Created with sketchtool.</desc>
    <defs></defs>
    <g id="Symbols" stroke="none" stroke-width="1" fill="none" fill-rule="evenodd">
        <g id="profilIcon">
            <g id="Group" transform="translate(4.500000, 0.500000)">
                <g id="001-owl" transform="translate(0.211511, 0.824213)" fill="#979797">
                    <path d="M6.03202602,5.65912038 C4.4942425,5.65912038 3.24340375,6.9101342 3.24340375,8.44797607 C3.24340375,9.98552616 4.4942425,11.2365983 6.03202602,11.2365983 C7.5698679,11.2365983 8.82064829,9.98552616 8.82064829,8.44797607 C8.82064829,6.9101342 7.5698679,5.65912038 6.03202602,5.65912038 Z M6.03202602,10.4398408 C4.93373428,10.4398408 4.04010295,9.54626782 4.04010295,8.44797607 C4.04010295,7.34939254 4.93373428,6.45581957 6.03202602,6.45581957 C7.13037612,6.45581957 8.02394909,7.34939254 8.02394909,8.44797607 C8.02394909,9.54626782 7.13037612,10.4398408 6.03202602,10.4398408 Z" id="Fill-2" stroke="#979797" stroke-width="0.2"></path>
                    <g id="Group-6" transform="translate(0.000000, 0.058358)" stroke="#979797" stroke-width="0.2">
                        <path d="M1.25539065,9.92652653 C1.22416929,10.1444342 1.37572421,10.3464101 1.59322332,10.3773981 C1.81025558,10.4070438 2.01264005,10.2572979 2.04409484,10.0395654 C2.45283211,7.177996 1.65519919,5.13979528 1.60827961,5.02558928 C1.60121833,5.01123329 0.986128264,3.73308314 0.871280328,1.23257279 L3.40277861,3.13077341 C3.50718052,3.20920615 3.64303722,3.23109028 3.76728075,3.19006482 C3.79074054,3.18206982 6.14763261,2.41361574 9.61763928,2.41361574 C13.0874125,2.41361574 15.4440712,3.18206982 15.4679978,3.19006482 C15.5922413,3.23109028 15.728098,3.20920615 15.8324999,3.13077341 L18.3637648,1.23257279 C18.2490919,3.73308314 17.6322511,5.0139761 17.6135183,5.05406783 C17.5797876,5.13979528 16.7821547,7.177996 17.1908919,10.0395654 C17.219137,10.2380982 17.3896582,10.3814831 17.5850398,10.3814831 C17.6037142,10.3814831 17.622447,10.3801409 17.6418218,10.3773981 C17.859496,10.3464101 18.0108758,10.1444342 17.9796545,9.92652653 C17.6037142,7.29564511 18.3418807,5.38052076 18.3398381,5.38052076 C18.3742108,5.31189211 19.1789634,3.66579672 19.1789634,0.421692676 C19.1789634,0.270838044 19.0937028,0.132880463 18.958488,0.0651855409 C18.8230982,-0.00250938072 18.6621477,0.0123134728 18.5415807,0.103059682 L15.5165514,2.37189 C14.8590937,2.17954305 12.6747653,1.61691655 9.61763928,1.61691655 C6.56022148,1.61691655 4.37589311,2.17954305 3.71872715,2.37189 L0.693697874,0.103059682 C0.572430592,0.0120800421 0.411246649,-0.00250938072 0.27649874,0.0651855409 C0.141575759,0.132880463 0.0563151719,0.270838044 0.0563151719,0.421692676 C0.0563151719,3.66579672 0.860542512,5.31189211 0.88131785,5.35064162 C0.888787635,5.36937444 1.63424878,7.27393604 1.25539065,9.92652653 Z" id="Fill-5"></path>
                    </g>
                    <path d="M10.6515781,11.9515255 C10.5468915,11.8972505 10.4062231,11.9192957 10.3367203,12.0002828 L9.61744903,12.836634 L8.89831079,12.0002828 C8.82854191,11.9192957 8.68760745,11.8972505 8.5834197,11.9515255 C8.47923195,12.0053106 8.45106501,12.1146858 8.52053459,12.1956729 L9.42856093,13.2517026 C9.47066169,13.3006404 9.54146147,13.3300598 9.61744903,13.3300598 C9.69330356,13.3300598 9.76410334,13.3006404 9.80630387,13.2517026 L10.7144632,12.1956729 C10.7839661,12.1146858 10.7557659,12.0053106 10.6515781,11.9515255 Z" id="Fill-7" stroke="#979797" stroke-width="0.3"></path>
                    <path d="M6.03202602,7.65098509 C5.59253425,7.65098509 5.23532682,8.00842594 5.23532682,8.44797607 C5.23532682,8.88746785 5.59253425,9.24467527 6.03202602,9.24467527 C6.47157615,9.24467527 6.82878358,8.88746785 6.82878358,8.44797607 C6.82878358,8.00842594 6.47157615,7.65098509 6.03202602,7.65098509 Z" id="Fill-8"></path>
                    <g id="Group-13" transform="translate(0.291788, 5.602338)" stroke="#979797" stroke-width="0.2">
                        <path d="M15.700028,2.84563773 C15.700028,1.30779586 14.4490142,0.0567820334 12.9111723,0.0567820334 C11.3736222,0.0567820334 10.12255,1.30779586 10.12255,2.84563773 C10.12255,4.38318782 11.3736222,5.63426 12.9111723,5.63426 C14.4490142,5.63426 15.700028,4.38342125 15.700028,2.84563773 Z M12.9111723,4.83750244 C11.8128805,4.83750244 10.9192492,3.94392948 10.9192492,2.84563773 C10.9192492,1.7470542 11.8128805,0.853481232 12.9111723,0.853481232 C14.009464,0.853481232 14.9030954,1.7470542 14.9030954,2.84563773 C14.9030954,3.94392948 14.009464,4.83750244 12.9111723,4.83750244 Z" id="Fill-10"></path>
                        <path d="M17.6137517,5.64219665 C17.5620468,5.65223417 16.3408538,5.91029188 15.4465805,7.28193105 C14.4339579,8.83617143 14.2529323,11.1251352 14.9092229,14.0865545 C14.9566677,14.3014859 15.1704903,14.4369341 15.3840794,14.3894893 C15.5993026,14.3418694 15.7346925,14.1291557 15.6872477,13.9143994 C15.0911822,11.2245183 15.2338667,9.08897695 16.0996615,7.73968878 C16.5457476,7.04464868 17.0819381,6.70518199 17.4245561,6.54744115 C18.2345025,9.60824369 17.730934,13.1446031 16.1520667,15.2803778 C15.6756345,15.9245884 14.9017531,16.6759437 13.8745411,16.770308 C13.5957664,16.3066562 13.0926647,15.9922833 12.5129394,15.9922833 C11.925686,15.9922833 11.4173905,16.3150597 11.1413002,16.7892159 L7.51034305,16.7892159 C7.23384431,16.3150597 6.72595733,15.9922833 6.13870388,15.9922833 C5.5595038,15.9922833 5.05657722,16.3061893 4.77733566,16.7696077 C3.74878136,16.670458 2.97349943,15.9170602 2.49613352,15.2712157 C0.918199911,13.1343321 0.415798549,9.6018827 1.22667867,6.54744115 C1.56515327,6.70313947 2.0938156,7.0368871 2.53721733,7.71733778 C3.41573402,9.06592566 3.56232854,11.2085283 2.96118596,13.9139908 C2.91333265,14.1286888 3.0487225,14.3414026 3.2634788,14.3892559 C3.47800167,14.4367007 3.69089053,14.3014859 3.73874384,14.086788 C4.39690188,11.1255437 4.2172769,8.83640487 3.20488768,7.28239791 C2.31125635,5.91029188 1.08942138,5.65223417 1.0376581,5.64219665 C0.837316151,5.6028052 0.638958359,5.71998745 0.57879158,5.91554407 C-0.457057436,9.28225763 0.0681617832,13.3239946 1.8555995,15.7440297 C2.62930577,16.7921922 3.55322474,17.4092664 4.54828173,17.5524178 C4.54828173,17.5638559 4.54530548,17.5743019 4.54530548,17.5859735 C4.54530548,18.0252318 4.90251291,18.3826727 5.34200468,18.3826727 L6.93546144,18.3826727 C7.37495321,18.3826727 7.73239407,18.0252318 7.73239407,17.5859735 L10.9194826,17.5859735 C10.9194826,18.0252318 11.2766901,18.3826727 11.7162402,18.3826727 L13.3096386,18.3826727 C13.7491887,18.3826727 14.1066296,18.0252318 14.1066296,17.5859735 C14.1066296,17.5752357 14.1036533,17.5651981 14.1034199,17.5546938 C15.0973098,17.4149855 16.0196531,16.7997203 16.7928925,15.7540672 C18.5812056,13.3349658 19.1075919,9.28937726 18.0728517,5.9157775 C18.0126849,5.72039595 17.8134518,5.60029582 17.6137517,5.64219665 Z M5.34177125,17.5859735 C5.34177125,17.1464234 5.69921211,16.7892159 6.13870388,16.7892159 C6.57802058,16.7892159 6.93546144,17.1464234 6.93569487,17.5859735 L5.34177125,17.5859735 Z M11.7160068,17.5859735 C11.7160068,17.1464234 12.0734476,16.7892159 12.5129394,16.7892159 C12.9521977,16.7892159 13.3096386,17.1464234 13.3101055,17.5859735 L11.7160068,17.5859735 Z" id="Fill-12"></path>
                    </g>
                    <path d="M13.2029607,7.65098509 C12.7637024,7.65098509 12.4062615,8.00842594 12.4062615,8.44797607 C12.4062615,8.88746785 12.763469,9.24467527 13.2029607,9.24467527 C13.6424525,9.24467527 13.9998934,8.88746785 13.9998934,8.44797607 C13.9998934,8.00842594 13.6424525,7.65098509 13.2029607,7.65098509 Z" id="Fill-15"></path>
                </g>
                <path d="M9.817986,17.7988256 C7.69327761,15.6252746 5.44531978,15.0976223 3.07411249,16.2158687 C2.97227809,18.5793441 2.8590603,21.6847229 3.07411249,23.6110035 C5.25914743,24.1633684 7.50710527,24.1633684 9.817986,23.6110035 L9.817986,17.7988256 Z" id="Path-7" stroke="#979797" fill="#FFFFFF" stroke-linecap="round" stroke-linejoin="round"></path>
                <path d="M9.77899897,17.7988256 C11.9037074,15.6252746 14.1516652,15.0976223 16.5228725,16.2158687 C16.6247069,18.5793441 16.7379247,21.6847229 16.5228725,23.6110035 C14.3378375,24.1633684 12.0898797,24.1633684 9.77899897,23.6110035 L9.77899897,17.7988256 Z" id="Path-7-Copy" stroke="#979797" fill="#FFFFFF" stroke-linecap="round" stroke-linejoin="round"></path>
            </g>
        </g>
    </g>
</svg>