<svg xmlns="http://www.w3.org/2000/svg" xmlns:xlink="http://www.w3.org/1999/xlink" width="25" height="25" viewBox="0 0 25 25">
    <defs>
        <path id="a" d="M0 .086v19.368h20.72V.086z"/>
    </defs>
    <g fill="none" fill-rule="evenodd" transform="translate(2 2.5)">
        <mask id="b" fill="#fff">
            <use xlink:href="#a"/>
        </mask>
        <path fill="#2A2A2A" d="M20.614 7.503a.436.436 0 0 0-.333-.153h-.929V2.427a.612.612 0 0 0-.61-.611H8.133L7.274.384a.608.608 0 0 0-.523-.298H1.98a.611.611 0 0 0-.611.612V7.35H.439a.438.438 0 0 0-.434.505l1.7 11.226a.438.438 0 0 0 .434.373h16.44c.22 0 .402-.157.435-.375l1.701-11.223a.44.44 0 0 0-.101-.353zM2.06.779h4.646l.86 1.432c.11.182.31.297.525.297H18.66V7.35h-.69V4.928H2.75V7.35h-.69V.779zm1.383 6.57h13.834V5.62H3.443v1.73zm14.92 11.412H2.357L.733 8.041h19.254l-1.624 10.72z" mask="url(#b)"/>
    </g>
</svg>
