<svg xmlns="http://www.w3.org/2000/svg" width="15" height="18" viewBox="0 0 15 18">
    <g fill="#CD0000" fill-rule="evenodd" stroke="#CD0000" stroke-linecap="round" stroke-linejoin="round" stroke-width=".5">
        <path d="M12.794 5.115c0-.155.12-.282.268-.282.15 0 .271.127.271.282v10.814c0 .479-.189.912-.487 1.227a1.62 1.62 0 0 1-1.172.51H3.327c-.455 0-.872-.194-1.172-.51a1.767 1.767 0 0 1-.488-1.227V5.115c0-.155.12-.282.268-.282.148 0 .271.127.271.282v10.814c0 .321.127.617.33.829.202.212.484.347.79.347h8.345c.31 0 .589-.135.792-.347.202-.212.33-.508.33-.83V5.116z"/>
        <path d="M4.683 15.051c0 .157-.152.282-.343.282-.187 0-.34-.125-.34-.282V5.112c0-.153.153-.279.34-.279.191 0 .343.126.343.28v9.938zM7.597 15.051c0 .157-.153.282-.34.282-.188 0-.34-.125-.34-.282V5.112c0-.153.152-.279.34-.279.187 0 .34.126.34.28v9.938zM10.517 15.051c0 .157-.152.282-.34.282-.19 0-.344-.125-.344-.282V5.112c0-.153.153-.279.344-.279.188 0 .34.126.34.28v9.938zM5.307 2.343c0 .165-.114.302-.255.302-.14 0-.255-.137-.255-.302 0-.508.177-.968.464-1.304.283-.334.679-.542 1.113-.542h1.984c.432 0 .827.208 1.114.542.286.336.463.799.463 1.304 0 .165-.115.302-.255.302-.143 0-.257-.137-.257-.302 0-.34-.12-.655-.313-.88a.994.994 0 0 0-.752-.365H6.374a.993.993 0 0 0-.751.365 1.36 1.36 0 0 0-.316.88z"/>
        <path d="M1.416 3.206h11.897c.253 0 .482.118.649.313v.003c.166.195.27.463.27.756v.773c0 .165-.114.3-.257.3H.755c-.14 0-.255-.135-.255-.3v-.773c0-.293.104-.56.268-.756L.77 3.52a.85.85 0 0 1 .645-.313zm11.897.596H1.416a.381.381 0 0 0-.286.14.517.517 0 0 0-.117.336v.475H13.72v-.475a.515.515 0 0 0-.12-.335.38.38 0 0 0-.287-.14z"/>
    </g>
</svg>
